v -0.050000 0.050000 0.100000
v -0.050000 0.050000 0.000000
v -0.050000 -0.050000 0.000000
v -0.050000 -0.050000 0.100000
v -0.050000 -0.050000 0.100000
v -0.050000 -0.050000 0.000000
v 0.050000 -0.050000 0.000000
v 0.050000 -0.050000 0.100000
v 0.050000 -0.050000 0.100000
v 0.050000 -0.050000 0.000000
v 0.050000 0.050000 0.000000
v 0.050000 0.050000 0.100000
v 0.050000 0.050000 0.100000
v 0.050000 0.050000 0.000000
v -0.050000 0.050000 0.000000
v -0.050000 0.050000 0.100000
v 0.050000 0.050000 0.000000
v 0.050000 -0.050000 0.000000
v -0.050000 -0.050000 0.000000
v -0.050000 0.050000 0.000000
v -0.050000 0.050000 0.100000
v -0.050000 -0.050000 0.100000
v -0.040000 -0.040000 0.100000
v 0.050000 -0.050000 0.100000
v 0.040000 -0.040000 0.100000
v 0.050000 0.050000 0.100000
v 0.040000 0.040000 0.100000
v -0.040000 0.040000 0.100000
v 0.040000 -0.040000 0.100000
v 0.040000 -0.040000 0.010000
v -0.040000 -0.040000 0.010000
v -0.040000 -0.040000 0.100000
v 0.040000 0.040000 0.100000
v 0.040000 0.040000 0.010000
v 0.040000 -0.040000 0.010000
v 0.040000 -0.040000 0.100000
v -0.040000 0.040000 0.100000
v -0.040000 0.040000 0.010000
v 0.040000 0.040000 0.010000
v 0.040000 0.040000 0.100000
v -0.040000 -0.040000 0.100000
v -0.040000 -0.040000 0.010000
v -0.040000 0.040000 0.010000
v -0.040000 0.040000 0.100000
v -0.040000 0.040000 0.010000
v -0.040000 -0.040000 0.010000
v 0.040000 -0.040000 0.010000
v 0.040000 0.040000 0.010000
vn -1.0000 0.0000 0.0000
vn 0.0000 -1.0000 0.0000
vn 1.0000 0.0000 0.0000
vn 0.0000 1.0000 0.0000
vn 0.0000 0.0000 -1.0000
vn 0.0000 0.0000 1.0000
s 1
f 1//1 2//1 3//1
f 3//1 4//1 1//1
f 5//2 6//2 7//2
f 7//2 8//2 5//2
f 9//3 10//3 11//3
f 11//3 12//3 9//3
f 13//4 14//4 15//4
f 15//4 16//4 13//4
f 17//5 18//5 19//5
f 19//5 20//5 17//5
f 21//6 22//6 23//6
f 22//6 24//6 25//6
f 24//6 26//6 27//6
f 26//6 21//6 28//6
f 25//6 23//6 22//6
f 28//6 27//6 26//6
f 27//6 25//6 24//6
f 23//6 28//6 21//6
f 29//4 30//4 31//4
f 31//4 32//4 29//4
f 33//1 34//1 35//1
f 35//1 36//1 33//1
f 37//2 38//2 39//2
f 39//2 40//2 37//2
f 41//3 42//3 43//3
f 43//3 44//3 41//3
f 45//6 46//6 47//6
f 47//6 48//6 45//6