o Cube
v -0.380788 -0.609455 0.749086
v -0.380091 -0.609744 0.749086
v -0.380091 -0.609455 0.749783
v -0.380833 -0.609077 0.749828
v -0.380091 -0.608878 0.750360
v -0.380091 -0.608181 0.750649
v -0.380788 -0.608181 0.750360
v -0.380833 -0.608923 0.749982
v -0.381365 -0.608878 0.749086
v -0.380987 -0.608923 0.749828
v -0.381365 -0.608181 0.749783
v -0.381654 -0.608181 0.749086
v -0.380788 0.608580 0.750360
v -0.380091 0.608580 0.750649
v -0.380091 0.609277 0.750360
v -0.380833 0.609321 0.749982
v -0.380091 0.609854 0.749783
v -0.380091 0.610142 0.749086
v -0.380788 0.609854 0.749086
v -0.380833 0.609476 0.749828
v -0.381365 0.608580 0.749783
v -0.380987 0.609321 0.749828
v -0.381365 0.609277 0.749086
v -0.381654 0.608580 0.749086
v -0.380091 -0.609455 0.735832
v -0.380091 -0.609744 0.736529
v -0.380788 -0.609455 0.736529
v -0.380833 -0.609077 0.735787
v -0.381365 -0.608878 0.736529
v -0.381654 -0.608181 0.736529
v -0.381365 -0.608181 0.735832
v -0.380987 -0.608923 0.735787
v -0.380091 -0.608878 0.735255
v -0.380833 -0.608923 0.735633
v -0.380788 -0.608181 0.735255
v -0.380091 -0.608181 0.734966
v -0.380788 0.609854 0.736529
v -0.380091 0.610142 0.736529
v -0.380091 0.609854 0.735832
v -0.380833 0.609476 0.735787
v -0.380091 0.609277 0.735255
v -0.380091 0.608580 0.734966
v -0.380788 0.608580 0.735255
v -0.380833 0.609321 0.735633
v -0.381365 0.609277 0.736529
v -0.380987 0.609321 0.735787
v -0.381365 0.608580 0.735832
v -0.381654 0.608580 0.736529
v 0.380091 -0.609455 0.749783
v 0.380091 -0.609744 0.749086
v 0.380788 -0.609455 0.749086
v 0.380833 -0.609077 0.749828
v 0.381365 -0.608878 0.749086
v 0.381654 -0.608181 0.749086
v 0.381365 -0.608181 0.749783
v 0.380987 -0.608923 0.749828
v 0.380091 -0.608878 0.750360
v 0.380833 -0.608923 0.749982
v 0.380788 -0.608181 0.750360
v 0.380091 -0.608181 0.750649
v 0.380788 0.609854 0.749086
v 0.380091 0.610142 0.749086
v 0.380091 0.609854 0.749783
v 0.380833 0.609476 0.749828
v 0.380091 0.609277 0.750360
v 0.380091 0.608580 0.750649
v 0.380788 0.608580 0.750360
v 0.380833 0.609321 0.749982
v 0.381365 0.609277 0.749086
v 0.380987 0.609321 0.749828
v 0.381365 0.608580 0.749783
v 0.381654 0.608580 0.749086
v 0.380788 -0.609455 0.736529
v 0.380091 -0.609744 0.736529
v 0.380091 -0.609455 0.735832
v 0.380833 -0.609077 0.735787
v 0.380091 -0.608878 0.735255
v 0.380091 -0.608181 0.734966
v 0.380788 -0.608181 0.735255
v 0.380833 -0.608923 0.735633
v 0.381365 -0.608878 0.736529
v 0.380987 -0.608923 0.735787
v 0.381365 -0.608181 0.735832
v 0.381654 -0.608181 0.736529
v 0.380091 0.609854 0.735832
v 0.380091 0.610142 0.736529
v 0.380788 0.609854 0.736529
v 0.380833 0.609476 0.735787
v 0.381365 0.609277 0.736529
v 0.381654 0.608580 0.736529
v 0.381365 0.608580 0.735832
v 0.380987 0.609321 0.735787
v 0.380091 0.609277 0.735255
v 0.380833 0.609321 0.735633
v 0.380788 0.608580 0.735255
v 0.380091 0.608580 0.734966
vn -1.0000 -0.0000 -0.0000
vn 0.7071 0.7071 -0.0000
vn -0.0000 -0.7071 -0.7071
vn -0.5772 0.5776 0.5772
vn -0.5772 0.5776 -0.5772
vn -0.0000 -1.0000 -0.0000
vn -0.0000 0.7071 0.7071
vn -0.7071 -0.0000 -0.7071
vn -0.0000 0.7071 -0.7071
vn 0.7071 -0.7071 -0.0000
vn 0.5775 -0.5775 -0.5771
vn 0.7071 -0.0000 -0.7071
vn -0.5775 -0.5775 0.5771
vn -0.0000 -0.0000 1.0000
vn -0.0000 1.0000 -0.0000
vn -0.0000 -0.0000 -1.0000
vn -0.5775 -0.5775 -0.5771
vn 0.5775 -0.5775 0.5771
vn 0.5772 0.5776 -0.5772
vn 0.7071 -0.0000 0.7071
vn 0.5772 0.5776 0.5772
vn 1.0000 -0.0000 -0.0000
vn -0.7071 -0.0000 0.7071
vn -0.7071 0.7071 -0.0000
vn -0.0000 -0.7071 0.7071
vn -0.3794 -0.8439 0.3793
vn -0.3793 -0.3794 0.8439
vn -0.8439 -0.3794 0.3793
vn -0.3793 0.3794 0.8439
vn -0.3793 0.8439 0.3794
vn -0.8439 0.3793 0.3793
vn -0.3794 -0.8439 -0.3793
vn -0.8439 -0.3793 -0.3793
vn -0.3793 -0.3794 -0.8439
vn -0.3793 0.8439 -0.3793
vn -0.3794 0.3793 -0.8439
vn -0.8440 0.3793 -0.3793
vn 0.3794 -0.8439 0.3793
vn 0.8439 -0.3794 0.3793
vn 0.3793 -0.3794 0.8439
vn 0.3793 0.8439 0.3793
vn 0.3794 0.3794 0.8439
vn 0.8439 0.3793 0.3793
vn 0.3794 -0.8439 -0.3793
vn 0.3793 -0.3793 -0.8439
vn 0.8439 -0.3793 -0.3793
vn 0.3793 0.8439 -0.3793
vn 0.8440 0.3793 -0.3793
vn 0.3794 0.3793 -0.8439
vn -0.6739 -0.6738 0.3029
vn -0.3029 -0.6739 0.6739
vn -0.6739 -0.3029 0.6739
vn -0.6739 0.3029 0.6739
vn -0.3029 0.6739 0.6739
vn -0.6739 0.6739 0.3029
vn -0.3029 -0.6739 -0.6739
vn -0.6739 -0.6739 -0.3029
vn -0.6739 -0.3029 -0.6739
vn -0.6739 0.6739 -0.3029
vn -0.3029 0.6739 -0.6739
vn -0.6739 0.3029 -0.6739
vn 0.3029 -0.6739 0.6739
vn 0.6739 -0.6738 0.3029
vn 0.6739 -0.3029 0.6739
vn 0.6739 0.6739 0.3029
vn 0.3029 0.6739 0.6739
vn 0.6739 0.3030 0.6739
vn 0.6739 -0.6739 -0.3029
vn 0.3029 -0.6739 -0.6739
vn 0.6739 -0.3029 -0.6739
vn 0.3029 0.6739 -0.6739
vn 0.6739 0.6739 -0.3029
vn 0.6739 0.3029 -0.6739
vn -0.3827 -0.9239 -0.0000
vn -0.9239 -0.3827 -0.0000
vn -0.3827 -0.0000 0.9239
vn -0.9239 -0.0000 0.3827
vn -0.3827 0.9239 -0.0000
vn -0.9239 0.3827 -0.0000
vn -0.3827 -0.0000 -0.9239
vn -0.9239 -0.0000 -0.3827
vn -0.0000 -0.9239 -0.3827
vn -0.0000 -0.3827 -0.9239
vn -0.0000 0.9239 -0.3827
vn -0.0000 0.3827 -0.9239
vn 0.9239 -0.0000 -0.3827
vn 0.3827 -0.0000 -0.9239
vn 0.3827 -0.9239 -0.0000
vn 0.9239 -0.3827 -0.0000
vn 0.3827 0.9239 -0.0000
vn 0.9239 0.3827 -0.0000
vn 0.3827 -0.0000 0.9239
vn 0.9239 -0.0000 0.3827
vn -0.0000 -0.9239 0.3827
vn -0.0000 -0.3827 0.9239
vn -0.0000 0.9239 0.3827
vn -0.0000 0.3827 0.9239
vn -0.7071 -0.7071 -0.0000
vt 0.008660 0.019278
vt 0.012946 0.627603
vt 0.004907 0.628879
vt 0.000590 0.016884
vt 0.499918 0.637560
vt 0.497845 0.628607
vt 0.498437 0.628220
vt 0.500536 0.637493
vt 0.508439 -0.000000
vt 0.997953 0.000357
vt 0.997866 0.000925
vt 0.508493 0.000563
vt 0.013976 0.627856
vt 0.013943 0.628004
vt 0.013830 0.627893
vt 0.999500 0.611495
vt 0.999470 0.611335
vt 0.999629 0.611381
vt 0.008881 0.008894
vt 0.499649 0.008291
vt 0.497311 0.017074
vt 0.009920 0.017960
vt 0.497217 0.628308
vt 0.014429 0.628281
vt 0.014515 0.627764
vt 0.497139 0.627785
vt 0.999395 0.610733
vt 0.998361 0.001422
vt 0.998964 0.001335
vt 1.000000 0.610823
vt 0.998946 0.611794
vt 0.508393 0.612088
vt 0.508469 0.611523
vt 0.998881 0.611224
vt 0.497853 0.017284
vt 0.500179 0.008385
vt 0.500788 0.008469
vt 0.498446 0.017688
vt 0.507863 0.000285
vt 0.507897 0.000449
vt 0.507735 0.000402
vt 0.507357 0.611107
vt 0.507357 0.000957
vt 0.507977 0.001055
vt 0.507968 0.611021
vt 0.009594 0.018791
vt 0.009634 0.018936
vt 0.009486 0.018905
vt 0.497074 0.018581
vt 0.497098 0.627300
vt 0.014566 0.627277
vt 0.010243 0.019491
vt 0.499387 0.637641
vt 0.012032 0.637472
vt 0.014331 0.628774
vt 0.497304 0.628802
vt 0.997809 0.001442
vt 0.998842 0.610704
vt 0.508524 0.611002
vt 0.508531 0.001084
vt 0.998489 0.000676
vt 0.998611 0.000791
vt 0.998454 0.000833
vt 0.497685 0.017852
vt 0.497805 0.017951
vt 0.497658 0.017996
vt 0.507836 0.611781
vt 0.507713 0.611660
vt 0.507874 0.611619
vt 0.497613 0.627343
vt 0.497594 0.018542
vt 0.498145 0.018423
vt 0.498163 0.627466
vt 0.497705 0.628034
vt 0.497676 0.627886
vt 0.497821 0.627927
vt 0.506744 0.017070
vt 0.506748 0.628876
vt 0.498718 0.627641
vt 0.498700 0.018258
vt 0.009736 0.019472
vt 0.014048 0.627314
vt 0.013497 0.627432
vt 0.009199 0.019397
vt 0.013797 0.628571
vt 0.011507 0.637379
vt 0.010904 0.637296
vt 0.013209 0.628170
vt 0.010053 0.018467
vt 0.497209 0.017572
vt 0.497122 0.018093
vt 0.010177 0.019000
vt 0.009318 0.018186
vt 0.008904 0.018748
vt 0.008835 0.008381
vt 0.008335 0.008902
vt 0.008229 0.008301
vt 0.000671 0.016354
vt -0.000000 0.016763
vt 0.000097 0.016072
vt 0.011911 0.637993
vt 0.011252 0.637945
vt 0.004923 0.629418
vt 0.004300 0.629581
vt 0.004331 0.628938
vt 0.499771 0.007765
vt 0.500437 0.007814
vt 0.506734 0.016531
vt 0.507357 0.016374
vt 0.507320 0.017016
vt 0.499493 0.638163
vt 0.500159 0.638139
vt 0.506733 0.629410
vt 0.507330 0.628932
vt 0.507357 0.629579
vt 0.000769 0.015760
vt 0.000115 0.015901
vt 0.011081 0.637928
vt 0.500610 0.007831
vt 0.500330 0.638133
s 0
f 12/1/1 24/2/1 48/3/1 30/4/1
f 87/5/2 61/6/2 69/7/2 89/8/2
f 75/9/3 25/10/3 33/11/3 77/12/3
f 16/13/4 20/14/4 22/15/4
f 40/16/5 44/17/5 46/18/5
f 26/19/6 74/20/6 50/21/6 2/22/6
f 63/23/7 17/24/7 15/25/7 65/26/7
f 43/27/8 35/28/8 31/29/8 47/30/8
f 39/31/9 85/32/9 93/33/9 41/34/9
f 51/35/10 73/36/10 81/37/10 53/38/10
f 76/39/11 80/40/11 82/41/11
f 91/42/12 83/43/12 79/44/12 95/45/12
f 4/46/13 8/47/13 10/48/13
f 60/49/14 66/50/14 14/51/14 6/52/14
f 86/53/15 38/54/15 18/55/15 62/56/15
f 36/57/16 42/58/16 96/59/16 78/60/16
f 28/61/17 32/62/17 34/63/17
f 52/64/18 56/65/18 58/66/18
f 88/67/19 92/68/19 94/69/19
f 67/70/20 59/71/20 55/72/20 71/73/20
f 64/74/21 68/75/21 70/76/21
f 84/77/22 90/78/22 72/79/22 54/80/22
f 7/81/23 13/82/23 21/83/23 11/84/23
f 19/85/24 37/86/24 45/87/24 23/88/24
f 3/89/25 49/90/25 57/91/25 5/92/25
f 1/93/26 2/22/26 3/89/26 4/46/26
f 5/92/27 6/52/27 7/81/27 8/47/27
f 9/94/28 10/48/28 11/84/28 12/1/28
f 13/82/29 14/51/29 15/25/29 16/13/29
f 17/24/30 18/55/30 19/85/30 20/14/30
f 21/83/31 22/15/31 23/88/31 24/2/31
f 25/95/32 26/19/32 27/96/32 28/97/32
f 29/98/33 30/4/33 31/99/33 32/100/33
f 33/11/34 34/63/34 35/28/34 36/57/34
f 37/86/35 38/54/35 39/101/35 40/102/35
f 41/34/36 42/58/36 43/27/36 44/17/36
f 45/103/37 46/104/37 47/105/37 48/3/37
f 49/90/38 50/21/38 51/35/38 52/64/38
f 53/38/39 54/80/39 55/72/39 56/65/39
f 57/91/40 58/66/40 59/71/40 60/49/40
f 61/6/41 62/56/41 63/23/41 64/74/41
f 65/26/42 66/50/42 67/70/42 68/75/42
f 69/7/43 70/76/43 71/73/43 72/79/43
f 73/36/44 74/20/44 75/106/44 76/107/44
f 77/12/45 78/60/45 79/44/45 80/40/45
f 81/108/46 82/109/46 83/110/46 84/77/46
f 85/111/47 86/53/47 87/5/47 88/112/47
f 89/113/48 90/78/48 91/114/48 92/115/48
f 93/33/49 94/69/49 95/45/49 96/59/49
f 9/94/50 1/93/50 4/46/50 10/48/50
f 3/89/51 5/92/51 8/47/51 4/46/51
f 7/81/52 11/84/52 10/48/52 8/47/52
f 21/83/53 13/82/53 16/13/53 22/15/53
f 15/25/54 17/24/54 20/14/54 16/13/54
f 19/85/55 23/88/55 22/15/55 20/14/55
f 33/11/56 25/10/56 28/61/56 34/63/56
f 27/116/57 29/98/57 32/100/57 28/117/57
f 31/29/58 35/28/58 34/63/58 32/62/58
f 45/87/59 37/86/59 40/102/59 46/118/59
f 39/31/60 41/34/60 44/17/60 40/16/60
f 43/27/61 47/30/61 46/18/61 44/17/61
f 57/91/62 49/90/62 52/64/62 58/66/62
f 51/35/63 53/38/63 56/65/63 52/64/63
f 55/72/64 59/71/64 58/66/64 56/65/64
f 69/7/65 61/6/65 64/74/65 70/76/65
f 63/23/66 65/26/66 68/75/66 64/74/66
f 67/70/67 71/73/67 70/76/67 68/75/67
f 81/37/68 73/36/68 76/107/68 82/119/68
f 75/9/69 77/12/69 80/40/69 76/39/69
f 79/44/70 83/43/70 82/41/70 80/40/70
f 93/33/71 85/32/71 88/67/71 94/69/71
f 87/5/72 89/8/72 92/120/72 88/112/72
f 91/42/73 95/45/73 94/69/73 92/68/73
f 26/19/74 2/22/74 1/93/74 27/96/74
f 12/1/75 30/4/75 29/98/75 9/94/75
f 6/52/76 14/51/76 13/82/76 7/81/76
f 24/2/77 12/1/77 11/84/77 21/83/77
f 18/55/78 38/54/78 37/86/78 19/85/78
f 48/3/79 24/2/79 23/88/79 45/103/79
f 42/58/80 36/57/80 35/28/80 43/27/80
f 30/4/81 48/3/81 47/105/81 31/99/81
f 74/20/82 26/19/82 25/95/82 75/106/82
f 36/57/83 78/60/83 77/12/83 33/11/83
f 38/54/84 86/53/84 85/111/84 39/101/84
f 96/59/85 42/58/85 41/34/85 93/33/85
f 90/78/86 84/77/86 83/110/86 91/114/86
f 78/60/87 96/59/87 95/45/87 79/44/87
f 50/21/88 74/20/88 73/36/88 51/35/88
f 84/77/89 54/80/89 53/38/89 81/108/89
f 86/53/90 62/56/90 61/6/90 87/5/90
f 72/79/91 90/78/91 89/113/91 69/7/91
f 66/50/92 60/49/92 59/71/92 67/70/92
f 54/80/93 72/79/93 71/73/93 55/72/93
f 2/22/94 50/21/94 49/90/94 3/89/94
f 60/49/95 6/52/95 5/92/95 57/91/95
f 62/56/96 18/55/96 17/24/96 63/23/96
f 14/51/97 66/50/97 65/26/97 15/25/97
f 27/116/98 1/93/98 9/94/98 29/98/98
