<svg version="1.1" viewBox="0.0 0.0 535.0 396.0" fill="none" stroke="none" stroke-linecap="square" stroke-miterlimit="10" width="535" height="396" xmlns:xlink="http://www.w3.org/1999/xlink" xmlns="http://www.w3.org/2000/svg"><path fill="#ffffff" d="M0 0L535.0 0L535.0 396.0L0 396.0L0 0Z" fill-rule="nonzero"/><path stroke="#cccccc" stroke-width="1.0" stroke-linecap="butt" d="M62.5 91.5L62.5 324.5" fill-rule="nonzero"/><path stroke="#cccccc" stroke-width="1.0" stroke-linecap="butt" d="M112.5 91.5L112.5 324.5" fill-rule="nonzero"/><path stroke="#cccccc" stroke-width="1.0" stroke-linecap="butt" d="M162.5 91.5L162.5 324.5" fill-rule="nonzero"/><path stroke="#cccccc" stroke-width="1.0" stroke-linecap="butt" d="M212.5 91.5L212.5 324.5" fill-rule="nonzero"/><path stroke="#cccccc" stroke-width="1.0" stroke-linecap="butt" d="M262.5 91.5L262.5 324.5" fill-rule="nonzero"/><path stroke="#cccccc" stroke-width="1.0" stroke-linecap="butt" d="M313.5 91.5L313.5 324.5" fill-rule="nonzero"/><path stroke="#cccccc" stroke-width="1.0" stroke-linecap="butt" d="M363.5 91.5L363.5 324.5" fill-rule="nonzero"/><path stroke="#cccccc" stroke-width="1.0" stroke-linecap="butt" d="M413.5 91.5L413.5 324.5" fill-rule="nonzero"/><path stroke="#cccccc" stroke-width="1.0" stroke-linecap="butt" d="M463.5 91.5L463.5 324.5" fill-rule="nonzero"/><path stroke="#cccccc" stroke-width="1.0" stroke-linecap="butt" d="M513.5 91.5L513.5 324.5" fill-rule="nonzero"/><path stroke="#cccccc" stroke-width="1.0" stroke-linecap="butt" d="M60.5 324.5L515.5 324.5" fill-rule="nonzero"/><path stroke="#cccccc" stroke-width="1.0" stroke-linecap="butt" d="M60.5 293.5L515.5 293.5" fill-rule="nonzero"/><path stroke="#cccccc" stroke-width="1.0" stroke-linecap="butt" d="M60.5 275.5L515.5 275.5" fill-rule="nonzero"/><path stroke="#cccccc" stroke-width="1.0" stroke-linecap="butt" d="M60.5 263.5L515.5 263.5" fill-rule="nonzero"/><path stroke="#cccccc" stroke-width="1.0" stroke-linecap="butt" d="M60.5 253.5L515.5 253.5" fill-rule="nonzero"/><path stroke="#cccccc" stroke-width="1.0" stroke-linecap="butt" d="M60.5 222.5L515.5 222.5" fill-rule="nonzero"/><path stroke="#cccccc" stroke-width="1.0" stroke-linecap="butt" d="M60.5 192.5L515.5 192.5" fill-rule="nonzero"/><path stroke="#cccccc" stroke-width="1.0" stroke-linecap="butt" d="M60.5 174.5L515.5 174.5" fill-rule="nonzero"/><path stroke="#cccccc" stroke-width="1.0" stroke-linecap="butt" d="M60.5 161.5L515.5 161.5" fill-rule="nonzero"/><path stroke="#cccccc" stroke-width="1.0" stroke-linecap="butt" d="M60.5 152.5L515.5 152.5" fill-rule="nonzero"/><path stroke="#cccccc" stroke-width="1.0" stroke-linecap="butt" d="M60.5 121.5L515.5 121.5" fill-rule="nonzero"/><path stroke="#cccccc" stroke-width="1.0" stroke-linecap="butt" d="M60.5 91.5L515.5 91.5" fill-rule="nonzero"/><clipPath id="id_0"><path d="M60.8 91.2L515.2 91.2L515.2 324.2L60.8 324.2L60.8 91.2Z" clip-rule="nonzero"/></clipPath><path stroke="#4a86e8" stroke-width="2.0" stroke-linecap="butt" clip-path="url(#id_0)" d="M62.782547 171.0364L112.83087 212.40501L162.8792 225.8933L212.92752 239.04726L262.97583 249.40587L313.02417 258.50128L363.07248 265.6267L413.12082 272.2483L463.16913 279.00296L513.21747 284.79434" fill-rule="nonzero"/><path stroke="#0000ff" stroke-width="2.0" stroke-linecap="butt" clip-path="url(#id_0)" d="M62.782547 125.76865L112.83087 165.3716L162.8792 184.60089L212.92752 197.53001L262.97583 208.81174L313.02417 216.69301L363.07248 223.08173L413.12082 229.28514L463.16913 236.15306L513.21747 241.1612" fill-rule="nonzero"/><path stroke="#ff9900" stroke-width="2.0" stroke-linecap="butt" clip-path="url(#id_0)" d="M62.782547 154.28517L112.83087 200.89081L162.8792 228.43239L212.92752 247.9131L262.97583 268.57556L313.02417 281.40482L363.07248 294.52798L413.12082 303.24472L463.16913 314.6481L513.21747 323.86703" fill-rule="nonzero"/><path stroke="#ff0000" stroke-width="2.0" stroke-linecap="butt" clip-path="url(#id_0)" d="M62.782547 108.827644L112.83087 151.4559L162.8792 176.50438L212.92752 192.02046L262.97583 212.14044L313.02417 223.65532L363.07248 234.47826L413.12082 248.95615L463.16913 253.59996L513.21747 263.67053" fill-rule="nonzero"/><path fill="#4a86e8" clip-path="url(#id_0)" d="M64.78255 171.0364C64.78255 172.14098 63.88712 173.0364 62.782547 173.0364C61.67798 173.0364 60.782547 172.14098 60.782547 171.0364C60.782547 169.93184 61.67798 169.0364 62.782547 169.0364C63.88712 169.0364 64.78255 169.93184 64.78255 171.0364Z" fill-rule="nonzero"/><path fill="#4a86e8" clip-path="url(#id_0)" d="M114.83087 212.40501C114.83087 213.50958 113.93544 214.40501 112.83087 214.40501C111.7263 214.40501 110.83087 213.50958 110.83087 212.40501C110.83087 211.30045 111.7263 210.40501 112.83087 210.40501C113.93544 210.40501 114.83087 211.30045 114.83087 212.40501Z" fill-rule="nonzero"/><path fill="#4a86e8" clip-path="url(#id_0)" d="M164.8792 225.8933C164.8792 226.99786 163.98376 227.8933 162.8792 227.8933C161.77463 227.8933 160.8792 226.99786 160.8792 225.8933C160.8792 224.78873 161.77463 223.8933 162.8792 223.8933C163.98376 223.8933 164.8792 224.78873 164.8792 225.8933Z" fill-rule="nonzero"/><path fill="#4a86e8" clip-path="url(#id_0)" d="M214.92752 239.04726C214.92752 240.15182 214.03209 241.04726 212.92752 241.04726C211.82295 241.04726 210.92752 240.15182 210.92752 239.04726C210.92752 237.94269 211.82295 237.04726 212.92752 237.04726C214.03209 237.04726 214.92752 237.94269 214.92752 239.04726Z" fill-rule="nonzero"/><path fill="#4a86e8" clip-path="url(#id_0)" d="M264.97583 249.40587C264.97583 250.51044 264.0804 251.40587 262.97583 251.40587C261.87128 251.40587 260.97583 250.51044 260.97583 249.40587C260.97583 248.3013 261.87128 247.40587 262.97583 247.40587C264.0804 247.40587 264.97583 248.3013 264.97583 249.40587Z" fill-rule="nonzero"/><path fill="#4a86e8" clip-path="url(#id_0)" d="M315.02417 258.50128C315.02417 259.60587 314.12872 260.50128 313.02417 260.50128C311.9196 260.50128 311.02417 259.60587 311.02417 258.50128C311.02417 257.39673 311.9196 256.50128 313.02417 256.50128C314.12872 256.50128 315.02417 257.39673 315.02417 258.50128Z" fill-rule="nonzero"/><path fill="#4a86e8" clip-path="url(#id_0)" d="M365.07248 265.6267C365.07248 266.7313 364.17706 267.6267 363.07248 267.6267C361.96793 267.6267 361.07248 266.7313 361.07248 265.6267C361.07248 264.52216 361.96793 263.6267 363.07248 263.6267C364.17706 263.6267 365.07248 264.52216 365.07248 265.6267Z" fill-rule="nonzero"/><path fill="#4a86e8" clip-path="url(#id_0)" d="M415.12082 272.2483C415.12082 273.35284 414.22537 274.2483 413.12082 274.2483C412.01624 274.2483 411.12082 273.35284 411.12082 272.2483C411.12082 271.1437 412.01624 270.2483 413.12082 270.2483C414.22537 270.2483 415.12082 271.1437 415.12082 272.2483Z" fill-rule="nonzero"/><path fill="#4a86e8" clip-path="url(#id_0)" d="M465.16913 279.00296C465.16913 280.10754 464.2737 281.00296 463.16913 281.00296C462.06454 281.00296 461.16913 280.10754 461.16913 279.00296C461.16913 277.8984 462.06454 277.00296 463.16913 277.00296C464.2737 277.00296 465.16913 277.8984 465.16913 279.00296Z" fill-rule="nonzero"/><path fill="#4a86e8" clip-path="url(#id_0)" d="M515.21747 284.79434C515.21747 285.8989 514.322 286.79434 513.21747 286.79434C512.11285 286.79434 511.21744 285.8989 511.21744 284.79434C511.21744 283.68976 512.11285 282.79434 513.21747 282.79434C514.322 282.79434 515.21747 283.68976 515.21747 284.79434Z" fill-rule="nonzero"/><path fill="#0000ff" clip-path="url(#id_0)" d="M64.78255 125.76865C64.78255 126.873215 63.88712 127.76865 62.782547 127.76865C61.67798 127.76865 60.782547 126.873215 60.782547 125.76865C60.782547 124.66408 61.67798 123.76865 62.782547 123.76865C63.88712 123.76865 64.78255 124.66408 64.78255 125.76865Z" fill-rule="nonzero"/><path fill="#0000ff" clip-path="url(#id_0)" d="M114.83087 165.3716C114.83087 166.47617 113.93544 167.3716 112.83087 167.3716C111.7263 167.3716 110.83087 166.47617 110.83087 165.3716C110.83087 164.26703 111.7263 163.3716 112.83087 163.3716C113.93544 163.3716 114.83087 164.26703 114.83087 165.3716Z" fill-rule="nonzero"/><path fill="#0000ff" clip-path="url(#id_0)" d="M164.8792 184.60089C164.8792 185.70546 163.98376 186.60089 162.8792 186.60089C161.77463 186.60089 160.8792 185.70546 160.8792 184.60089C160.8792 183.49632 161.77463 182.60089 162.8792 182.60089C163.98376 182.60089 164.8792 183.49632 164.8792 184.60089Z" fill-rule="nonzero"/><path fill="#0000ff" clip-path="url(#id_0)" d="M214.92752 197.53001C214.92752 198.63458 214.03209 199.53001 212.92752 199.53001C211.82295 199.53001 210.92752 198.63458 210.92752 197.53001C210.92752 196.42545 211.82295 195.53001 212.92752 195.53001C214.03209 195.53001 214.92752 196.42545 214.92752 197.53001Z" fill-rule="nonzero"/><path fill="#0000ff" clip-path="url(#id_0)" d="M264.97583 208.81174C264.97583 209.9163 264.0804 210.81174 262.97583 210.81174C261.87128 210.81174 260.97583 209.9163 260.97583 208.81174C260.97583 207.70715 261.87128 206.81174 262.97583 206.81174C264.0804 206.81174 264.97583 207.70715 264.97583 208.81174Z" fill-rule="nonzero"/><path fill="#0000ff" clip-path="url(#id_0)" d="M315.02417 216.69301C315.02417 217.79758 314.12872 218.69301 313.02417 218.69301C311.9196 218.69301 311.02417 217.79758 311.02417 216.69301C311.02417 215.58844 311.9196 214.69301 313.02417 214.69301C314.12872 214.69301 315.02417 215.58844 315.02417 216.69301Z" fill-rule="nonzero"/><path fill="#0000ff" clip-path="url(#id_0)" d="M365.07248 223.08173C365.07248 224.1863 364.17706 225.08173 363.07248 225.08173C361.96793 225.08173 361.07248 224.1863 361.07248 223.08173C361.07248 221.97716 361.96793 221.08173 363.07248 221.08173C364.17706 221.08173 365.07248 221.97716 365.07248 223.08173Z" fill-rule="nonzero"/><path fill="#0000ff" clip-path="url(#id_0)" d="M415.12082 229.28514C415.12082 230.38971 414.22537 231.28514 413.12082 231.28514C412.01624 231.28514 411.12082 230.38971 411.12082 229.28514C411.12082 228.18057 412.01624 227.28514 413.12082 227.28514C414.22537 227.28514 415.12082 228.18057 415.12082 229.28514Z" fill-rule="nonzero"/><path fill="#0000ff" clip-path="url(#id_0)" d="M465.16913 236.15306C465.16913 237.25763 464.2737 238.15306 463.16913 238.15306C462.06454 238.15306 461.16913 237.25763 461.16913 236.15306C461.16913 235.0485 462.06454 234.15306 463.16913 234.15306C464.2737 234.15306 465.16913 235.0485 465.16913 236.15306Z" fill-rule="nonzero"/><path fill="#0000ff" clip-path="url(#id_0)" d="M515.21747 241.1612C515.21747 242.26576 514.322 243.1612 513.21747 243.1612C512.11285 243.1612 511.21744 242.26576 511.21744 241.1612C511.21744 240.05663 512.11285 239.1612 513.21747 239.1612C514.322 239.1612 515.21747 240.05663 515.21747 241.1612Z" fill-rule="nonzero"/><path fill="#ff9900" clip-path="url(#id_0)" d="M64.78255 154.28517C64.78255 155.38976 63.88712 156.28517 62.782547 156.28517C61.67798 156.28517 60.782547 155.38976 60.782547 154.28517C60.782547 153.1806 61.67798 152.28517 62.782547 152.28517C63.88712 152.28517 64.78255 153.1806 64.78255 154.28517Z" fill-rule="nonzero"/><path fill="#ff9900" clip-path="url(#id_0)" d="M114.83087 200.89081C114.83087 201.99539 113.93544 202.89081 112.83087 202.89081C111.7263 202.89081 110.83087 201.99539 110.83087 200.89081C110.83087 199.78624 111.7263 198.89081 112.83087 198.89081C113.93544 198.89081 114.83087 199.78624 114.83087 200.89081Z" fill-rule="nonzero"/><path fill="#ff9900" clip-path="url(#id_0)" d="M164.8792 228.43239C164.8792 229.53696 163.98376 230.43239 162.8792 230.43239C161.77463 230.43239 160.8792 229.53696 160.8792 228.43239C160.8792 227.32782 161.77463 226.43239 162.8792 226.43239C163.98376 226.43239 164.8792 227.32782 164.8792 228.43239Z" fill-rule="nonzero"/><path fill="#ff9900" clip-path="url(#id_0)" d="M214.92752 247.9131C214.92752 249.01767 214.03209 249.9131 212.92752 249.9131C211.82295 249.9131 210.92752 249.01767 210.92752 247.9131C210.92752 246.80853 211.82295 245.9131 212.92752 245.9131C214.03209 245.9131 214.92752 246.80853 214.92752 247.9131Z" fill-rule="nonzero"/><path fill="#ff9900" clip-path="url(#id_0)" d="M264.97583 268.57556C264.97583 269.68015 264.0804 270.57556 262.97583 270.57556C261.87128 270.57556 260.97583 269.68015 260.97583 268.57556C260.97583 267.471 261.87128 266.57556 262.97583 266.57556C264.0804 266.57556 264.97583 267.471 264.97583 268.57556Z" fill-rule="nonzero"/><path fill="#ff9900" clip-path="url(#id_0)" d="M315.02417 281.40482C315.02417 282.5094 314.12872 283.40482 313.02417 283.40482C311.9196 283.40482 311.02417 282.5094 311.02417 281.40482C311.02417 280.30026 311.9196 279.40482 313.02417 279.40482C314.12872 279.40482 315.02417 280.30026 315.02417 281.40482Z" fill-rule="nonzero"/><path fill="#ff9900" clip-path="url(#id_0)" d="M365.07248 294.52798C365.07248 295.63254 364.17706 296.52798 363.07248 296.52798C361.96793 296.52798 361.07248 295.63254 361.07248 294.52798C361.07248 293.4234 361.96793 292.52798 363.07248 292.52798C364.17706 292.52798 365.07248 293.4234 365.07248 294.52798Z" fill-rule="nonzero"/><path fill="#ff9900" clip-path="url(#id_0)" d="M415.12082 303.24472C415.12082 304.3493 414.22537 305.24472 413.12082 305.24472C412.01624 305.24472 411.12082 304.3493 411.12082 303.24472C411.12082 302.14017 412.01624 301.24472 413.12082 301.24472C414.22537 301.24472 415.12082 302.14017 415.12082 303.24472Z" fill-rule="nonzero"/><path fill="#ff9900" clip-path="url(#id_0)" d="M465.16913 314.6481C465.16913 315.7527 464.2737 316.6481 463.16913 316.6481C462.06454 316.6481 461.16913 315.7527 461.16913 314.6481C461.16913 313.54352 462.06454 312.6481 463.16913 312.6481C464.2737 312.6481 465.16913 313.54352 465.16913 314.6481Z" fill-rule="nonzero"/><path fill="#ff9900" clip-path="url(#id_0)" d="M515.21747 323.86703C515.21747 324.97162 514.322 325.86703 513.21747 325.86703C512.11285 325.86703 511.21744 324.97162 511.21744 323.86703C511.21744 322.76248 512.11285 321.86703 513.21747 321.86703C514.322 321.86703 515.21747 322.76248 515.21747 323.86703Z" fill-rule="nonzero"/><path fill="#ff0000" clip-path="url(#id_0)" d="M64.78255 108.827644C64.78255 109.93221 63.88712 110.827644 62.782547 110.827644C61.67798 110.827644 60.782547 109.93221 60.782547 108.827644C60.782547 107.72307 61.67798 106.827644 62.782547 106.827644C63.88712 106.827644 64.78255 107.72307 64.78255 108.827644Z" fill-rule="nonzero"/><path fill="#ff0000" clip-path="url(#id_0)" d="M114.83087 151.4559C114.83087 152.56047 113.93544 153.4559 112.83087 153.4559C111.7263 153.4559 110.83087 152.56047 110.83087 151.4559C110.83087 150.35133 111.7263 149.4559 112.83087 149.4559C113.93544 149.4559 114.83087 150.35133 114.83087 151.4559Z" fill-rule="nonzero"/><path fill="#ff0000" clip-path="url(#id_0)" d="M164.8792 176.50438C164.8792 177.60895 163.98376 178.50438 162.8792 178.50438C161.77463 178.50438 160.8792 177.60895 160.8792 176.50438C160.8792 175.39981 161.77463 174.50438 162.8792 174.50438C163.98376 174.50438 164.8792 175.39981 164.8792 176.50438Z" fill-rule="nonzero"/><path fill="#ff0000" clip-path="url(#id_0)" d="M214.92752 192.02046C214.92752 193.12503 214.03209 194.02046 212.92752 194.02046C211.82295 194.02046 210.92752 193.12503 210.92752 192.02046C210.92752 190.9159 211.82295 190.02046 212.92752 190.02046C214.03209 190.02046 214.92752 190.9159 214.92752 192.02046Z" fill-rule="nonzero"/><path fill="#ff0000" clip-path="url(#id_0)" d="M264.97583 212.14044C264.97583 213.24501 264.0804 214.14044 262.97583 214.14044C261.87128 214.14044 260.97583 213.24501 260.97583 212.14044C260.97583 211.03587 261.87128 210.14044 262.97583 210.14044C264.0804 210.14044 264.97583 211.03587 264.97583 212.14044Z" fill-rule="nonzero"/><path fill="#ff0000" clip-path="url(#id_0)" d="M315.02417 223.65532C315.02417 224.75989 314.12872 225.65532 313.02417 225.65532C311.9196 225.65532 311.02417 224.75989 311.02417 223.65532C311.02417 222.55075 311.9196 221.65532 313.02417 221.65532C314.12872 221.65532 315.02417 222.55075 315.02417 223.65532Z" fill-rule="nonzero"/><path fill="#ff0000" clip-path="url(#id_0)" d="M365.07248 234.47826C365.07248 235.58282 364.17706 236.47826 363.07248 236.47826C361.96793 236.47826 361.07248 235.58282 361.07248 234.47826C361.07248 233.37369 361.96793 232.47826 363.07248 232.47826C364.17706 232.47826 365.07248 233.37369 365.07248 234.47826Z" fill-rule="nonzero"/><path fill="#ff0000" clip-path="url(#id_0)" d="M415.12082 248.95615C415.12082 250.06071 414.22537 250.95615 413.12082 250.95615C412.01624 250.95615 411.12082 250.06071 411.12082 248.95615C411.12082 247.85158 412.01624 246.95615 413.12082 246.95615C414.22537 246.95615 415.12082 247.85158 415.12082 248.95615Z" fill-rule="nonzero"/><path fill="#ff0000" clip-path="url(#id_0)" d="M465.16913 253.59996C465.16913 254.70453 464.2737 255.59996 463.16913 255.59996C462.06454 255.59996 461.16913 254.70453 461.16913 253.59996C461.16913 252.49539 462.06454 251.59996 463.16913 251.59996C464.2737 251.59996 465.16913 252.49539 465.16913 253.59996Z" fill-rule="nonzero"/><path fill="#ff0000" clip-path="url(#id_0)" d="M515.21747 263.67053C515.21747 264.7751 514.322 265.67053 513.21747 265.67053C512.11285 265.67053 511.21744 264.7751 511.21744 263.67053C511.21744 262.56595 512.11285 261.67053 513.21747 261.67053C514.322 261.67053 515.21747 262.56595 515.21747 263.67053Z" fill-rule="nonzero"/><path stroke="#000000" stroke-width="1.0" stroke-linecap="butt" d="M57.5 324.5L63.5 324.5" fill-rule="nonzero"/><path stroke="#000000" stroke-width="1.0" stroke-linecap="butt" d="M57.5 293.5L63.5 293.5" fill-rule="nonzero"/><path stroke="#000000" stroke-width="1.0" stroke-linecap="butt" d="M57.5 275.5L63.5 275.5" fill-rule="nonzero"/><path stroke="#000000" stroke-width="1.0" stroke-linecap="butt" d="M57.5 263.5L63.5 263.5" fill-rule="nonzero"/><path stroke="#000000" stroke-width="1.0" stroke-linecap="butt" d="M57.5 253.5L63.5 253.5" fill-rule="nonzero"/><path stroke="#000000" stroke-width="1.0" stroke-linecap="butt" d="M57.5 222.5L63.5 222.5" fill-rule="nonzero"/><path stroke="#000000" stroke-width="1.0" stroke-linecap="butt" d="M57.5 192.5L63.5 192.5" fill-rule="nonzero"/><path stroke="#000000" stroke-width="1.0" stroke-linecap="butt" d="M57.5 174.5L63.5 174.5" fill-rule="nonzero"/><path stroke="#000000" stroke-width="1.0" stroke-linecap="butt" d="M57.5 161.5L63.5 161.5" fill-rule="nonzero"/><path stroke="#000000" stroke-width="1.0" stroke-linecap="butt" d="M57.5 152.5L63.5 152.5" fill-rule="nonzero"/><path stroke="#000000" stroke-width="1.0" stroke-linecap="butt" d="M57.5 121.5L63.5 121.5" fill-rule="nonzero"/><path stroke="#000000" stroke-width="1.0" stroke-linecap="butt" d="M57.5 91.5L63.5 91.5" fill-rule="nonzero"/><path fill="#000000" d="M225.92188 373.2L225.92188 364.60626L227.07812 364.60626L231.59375 371.35626L231.59375 364.60626L232.6875 364.60626L232.6875 373.2L231.51562 373.2L227.0 366.45L227.0 373.2L225.92188 373.2ZM238.875 373.2L238.875 372.27814Q238.14062 373.34064 236.89062 373.34064Q236.34375 373.34064 235.85938 373.1375Q235.39062 372.91876 235.15625 372.60626Q234.92188 372.27814 234.82812 371.8094Q234.76562 371.5125 234.76562 370.825L234.76562 366.98126L235.82812 366.98126L235.82812 370.4344Q235.82812 371.2469 235.89062 371.54376Q235.98438 371.95 236.29688 372.2Q236.625 372.4344 237.10938 372.4344Q237.57812 372.4344 237.98438 372.2Q238.40625 371.95 238.57812 371.52814Q238.76562 371.10626 238.76562 370.3094L238.76562 366.98126L239.8125 366.98126L239.8125 373.2L238.875 373.2ZM241.79688 373.2L241.79688 366.98126L242.73438 366.98126L242.73438 367.85626Q243.03125 367.3875 243.51562 367.1219Q244.0 366.84064 244.625 366.84064Q245.3125 366.84064 245.75 367.1219Q246.20312 367.40314 246.375 367.91876Q247.125 366.84064 248.29688 366.84064Q249.23438 366.84064 249.71875 367.35626Q250.21875 367.85626 250.21875 368.9344L250.21875 373.2L249.17188 373.2L249.17188 369.27814Q249.17188 368.65314 249.0625 368.3719Q248.96875 368.09064 248.70312 367.91876Q248.4375 367.7469 248.0625 367.7469Q247.40625 367.7469 246.96875 368.1844Q246.54688 368.6219 246.54688 369.59064L246.54688 373.2L245.48438 373.2L245.48438 369.15314Q245.48438 368.45 245.21875 368.10626Q244.96875 367.7469 244.39062 367.7469Q243.9375 367.7469 243.5625 367.98126Q243.1875 368.21564 243.01562 368.66876Q242.84375 369.1219 242.84375 369.96564L242.84375 373.2L241.79688 373.2ZM253.76562 373.2L252.78125 373.2L252.78125 364.60626L253.84375 364.60626L253.84375 367.66876Q254.51562 366.84064 255.54688 366.84064Q256.125 366.84064 256.625 367.075Q257.14062 367.29376 257.46875 367.71564Q257.8125 368.1375 258.0 368.73126Q258.1875 369.325 258.1875 369.9969Q258.1875 371.59064 257.39062 372.46564Q256.59375 373.34064 255.5 373.34064Q254.39062 373.34064 253.76562 372.41876L253.76562 373.2ZM253.75 370.04376Q253.75 371.15314 254.0625 371.65314Q254.5625 372.46564 255.40625 372.46564Q256.09375 372.46564 256.59375 371.8719Q257.10938 371.27814 257.10938 370.075Q257.10938 368.85626 256.625 368.27814Q256.14062 367.7 255.45312 367.7Q254.76562 367.7 254.25 368.3094Q253.75 368.90314 253.75 370.04376ZM264.04688 371.2L265.14062 371.325Q264.89062 372.27814 264.1875 372.8094Q263.48438 373.34064 262.40625 373.34064Q261.04688 373.34064 260.23438 372.4969Q259.4375 371.65314 259.4375 370.1375Q259.4375 368.575 260.25 367.71564Q261.0625 366.84064 262.34375 366.84064Q263.59375 366.84064 264.375 367.6844Q265.17188 368.52814 265.17188 370.075Q265.17188 370.16876 265.17188 370.35626L260.53125 370.35626Q260.59375 371.3875 261.10938 371.9344Q261.625 372.46564 262.40625 372.46564Q262.98438 372.46564 263.39062 372.16876Q263.8125 371.85626 264.04688 371.2ZM260.59375 369.4969L264.0625 369.4969Q264.0 368.7 263.67188 368.3094Q263.15625 367.7 262.35938 367.7Q261.625 367.7 261.125 368.1844Q260.64062 368.66876 260.59375 369.4969ZM266.78125 373.2L266.78125 366.98126L267.73438 366.98126L267.73438 367.91876Q268.09375 367.2625 268.39062 367.0594Q268.70312 366.84064 269.07812 366.84064Q269.60938 366.84064 270.15625 367.16876L269.79688 368.15314Q269.40625 367.91876 269.03125 367.91876Q268.67188 367.91876 268.39062 368.1375Q268.125 368.34064 268.01562 368.71564Q267.82812 369.27814 267.82812 369.9344L267.82812 373.2L266.78125 373.2ZM273.40625 370.09064Q273.40625 368.35626 274.35938 367.52814Q275.15625 366.84064 276.3125 366.84064Q277.59375 366.84064 278.40625 367.6844Q279.23438 368.5125 279.23438 369.9969Q279.23438 371.2 278.875 371.8875Q278.51562 372.575 277.8125 372.96564Q277.125 373.34064 276.3125 373.34064Q275.01562 373.34064 274.20312 372.5125Q273.40625 371.66876 273.40625 370.09064ZM274.48438 370.09064Q274.48438 371.27814 275.0 371.8719Q275.53125 372.46564 276.3125 372.46564Q277.10938 372.46564 277.625 371.8719Q278.14062 371.27814 278.14062 370.0594Q278.14062 368.90314 277.60938 368.3094Q277.09375 367.71564 276.3125 367.71564Q275.53125 367.71564 275.0 368.3094Q274.48438 368.8875 274.48438 370.09064ZM281.04688 373.2L281.04688 367.79376L280.10938 367.79376L280.10938 366.98126L281.04688 366.98126L281.04688 366.3094Q281.04688 365.6844 281.15625 365.3875Q281.3125 364.96564 281.6875 364.71564Q282.07812 364.46564 282.76562 364.46564Q283.21875 364.46564 283.75 364.575L283.59375 365.48126Q283.26562 365.4344 282.96875 365.4344Q282.48438 365.4344 282.28125 365.6375Q282.09375 365.84064 282.09375 366.40314L282.09375 366.98126L283.3125 366.98126L283.3125 367.79376L282.09375 367.79376L282.09375 373.2L281.04688 373.2ZM286.96875 373.2L286.96875 364.60626L288.09375 364.60626L288.09375 368.1375L292.5625 368.1375L292.5625 364.60626L293.70312 364.60626L293.70312 373.2L292.5625 373.2L292.5625 369.15314L288.09375 369.15314L288.09375 373.2L286.96875 373.2ZM299.875 373.2L299.875 372.27814Q299.14062 373.34064 297.89062 373.34064Q297.34375 373.34064 296.85938 373.1375Q296.39062 372.91876 296.15625 372.60626Q295.92188 372.27814 295.82812 371.8094Q295.76562 371.5125 295.76562 370.825L295.76562 366.98126L296.82812 366.98126L296.82812 370.4344Q296.82812 371.2469 296.89062 371.54376Q296.98438 371.95 297.29688 372.2Q297.625 372.4344 298.10938 372.4344Q298.57812 372.4344 298.98438 372.2Q299.40625 371.95 299.57812 371.52814Q299.76562 371.10626 299.76562 370.3094L299.76562 366.98126L300.8125 366.98126L300.8125 373.2L299.875 373.2ZM302.79688 373.2L302.79688 366.98126L303.73438 366.98126L303.73438 367.85626Q304.03125 367.3875 304.51562 367.1219Q305.0 366.84064 305.625 366.84064Q306.3125 366.84064 306.75 367.1219Q307.20312 367.40314 307.375 367.91876Q308.125 366.84064 309.29688 366.84064Q310.23438 366.84064 310.71875 367.35626Q311.21875 367.85626 311.21875 368.9344L311.21875 373.2L310.17188 373.2L310.17188 369.27814Q310.17188 368.65314 310.0625 368.3719Q309.96875 368.09064 309.70312 367.91876Q309.4375 367.7469 309.0625 367.7469Q308.40625 367.7469 307.96875 368.1844Q307.54688 368.6219 307.54688 369.59064L307.54688 373.2L306.48438 373.2L306.48438 369.15314Q306.48438 368.45 306.21875 368.10626Q305.96875 367.7469 305.39062 367.7469Q304.9375 367.7469 304.5625 367.98126Q304.1875 368.21564 304.01562 368.66876Q303.84375 369.1219 303.84375 369.96564L303.84375 373.2L302.79688 373.2ZM317.85938 372.4344Q317.26562 372.9344 316.71875 373.1375Q316.1875 373.34064 315.5625 373.34064Q314.53125 373.34064 313.98438 372.84064Q313.4375 372.34064 313.4375 371.5594Q313.4375 371.10626 313.64062 370.73126Q313.84375 370.34064 314.1875 370.1219Q314.53125 369.8875 314.95312 369.77814Q315.25 369.6844 315.89062 369.60626Q317.15625 369.46564 317.76562 369.2469Q317.76562 369.02814 317.76562 368.98126Q317.76562 368.325 317.46875 368.0594Q317.0625 367.71564 316.26562 367.71564Q315.53125 367.71564 315.17188 367.98126Q314.8125 368.23126 314.64062 368.8875L313.60938 368.7469Q313.75 368.09064 314.07812 367.6844Q314.40625 367.27814 315.01562 367.0594Q315.625 366.84064 316.42188 366.84064Q317.21875 366.84064 317.71875 367.02814Q318.21875 367.21564 318.45312 367.4969Q318.6875 367.77814 318.78125 368.21564Q318.82812 368.48126 318.82812 369.1844L318.82812 370.59064Q318.82812 372.0594 318.89062 372.45Q318.96875 372.84064 319.17188 373.2L318.0625 373.2Q317.90625 372.8719 317.85938 372.4344ZM317.76562 370.075Q317.1875 370.3094 316.04688 370.48126Q315.39062 370.575 315.125 370.7Q314.85938 370.8094 314.70312 371.02814Q314.5625 371.2469 314.5625 371.52814Q314.5625 371.95 314.875 372.23126Q315.20312 372.5125 315.8125 372.5125Q316.42188 372.5125 316.89062 372.2469Q317.375 371.98126 317.59375 371.5125Q317.76562 371.15314 317.76562 370.46564L317.76562 370.075ZM320.79688 373.2L320.79688 366.98126L321.73438 366.98126L321.73438 367.85626Q322.42188 366.84064 323.71875 366.84064Q324.28125 366.84064 324.75 367.04376Q325.23438 367.2469 325.46875 367.575Q325.70312 367.90314 325.79688 368.34064Q325.84375 368.6375 325.84375 369.3719L325.84375 373.2L324.79688 373.2L324.79688 369.41876Q324.79688 368.7625 324.67188 368.45Q324.54688 368.1375 324.23438 367.95Q323.92188 367.7469 323.5 367.7469Q322.82812 367.7469 322.32812 368.1844Q321.84375 368.60626 321.84375 369.79376L321.84375 373.2L320.79688 373.2ZM327.40625 370.09064Q327.40625 368.35626 328.35938 367.52814Q329.15625 366.84064 330.3125 366.84064Q331.59375 366.84064 332.40625 367.6844Q333.23438 368.5125 333.23438 369.9969Q333.23438 371.2 332.875 371.8875Q332.51562 372.575 331.8125 372.96564Q331.125 373.34064 330.3125 373.34064Q329.01562 373.34064 328.20312 372.5125Q327.40625 371.66876 327.40625 370.09064ZM328.48438 370.09064Q328.48438 371.27814 329.0 371.8719Q329.53125 372.46564 330.3125 372.46564Q331.10938 372.46564 331.625 371.8719Q332.14062 371.27814 332.14062 370.0594Q332.14062 368.90314 331.60938 368.3094Q331.09375 367.71564 330.3125 367.71564Q329.53125 367.71564 329.0 368.3094Q328.48438 368.8875 328.48438 370.09064ZM334.79688 365.825L334.79688 364.60626L335.85938 364.60626L335.85938 365.825L334.79688 365.825ZM334.79688 373.2L334.79688 366.98126L335.85938 366.98126L335.85938 373.2L334.79688 373.2ZM341.82812 373.2L341.82812 372.41876Q341.23438 373.34064 340.09375 373.34064Q339.34375 373.34064 338.71875 372.9344Q338.09375 372.5125 337.75 371.77814Q337.40625 371.04376 337.40625 370.09064Q337.40625 369.16876 337.71875 368.40314Q338.03125 367.6375 338.65625 367.2469Q339.28125 366.84064 340.04688 366.84064Q340.60938 366.84064 341.04688 367.075Q341.48438 367.3094 341.76562 367.6844L341.76562 364.60626L342.8125 364.60626L342.8125 373.2L341.82812 373.2ZM338.5 370.09064Q338.5 371.29376 339.0 371.8875Q339.5 372.46564 340.1875 372.46564Q340.875 372.46564 341.35938 371.90314Q341.84375 371.34064 341.84375 370.1844Q341.84375 368.90314 341.34375 368.3094Q340.85938 367.71564 340.14062 367.71564Q339.4375 367.71564 338.96875 368.29376Q338.5 368.85626 338.5 370.09064ZM344.375 371.34064L345.40625 371.1844Q345.5 371.8094 345.89062 372.1375Q346.29688 372.46564 347.03125 372.46564Q347.75 372.46564 348.09375 372.1844Q348.45312 371.8875 348.45312 371.48126Q348.45312 371.1219 348.14062 370.91876Q347.92188 370.77814 347.0625 370.5594Q345.90625 370.2625 345.45312 370.0594Q345.01562 369.84064 344.78125 369.46564Q344.54688 369.09064 344.54688 368.6219Q344.54688 368.21564 344.73438 367.85626Q344.92188 367.4969 345.25 367.2625Q345.5 367.09064 345.92188 366.96564Q346.34375 366.84064 346.84375 366.84064Q347.5625 366.84064 348.10938 367.0594Q348.67188 367.2625 348.9375 367.6219Q349.20312 367.98126 349.29688 368.575L348.26562 368.71564Q348.20312 368.2469 347.85938 367.98126Q347.53125 367.7 346.90625 367.7Q346.1875 367.7 345.875 367.95Q345.5625 368.1844 345.5625 368.5125Q345.5625 368.71564 345.6875 368.8719Q345.82812 369.04376 346.09375 369.15314Q346.25 369.21564 347.03125 369.41876Q348.15625 369.73126 348.59375 369.91876Q349.03125 370.10626 349.28125 370.46564Q349.53125 370.825 349.53125 371.3719Q349.53125 371.90314 349.21875 372.3719Q348.92188 372.825 348.34375 373.09064Q347.76562 373.34064 347.03125 373.34064Q345.8125 373.34064 345.17188 372.84064Q344.54688 372.325 344.375 371.34064Z" fill-rule="nonzero"/><path fill="#000000" d="M32.846874 327.1844L32.846874 328.2L27.159374 328.2Q27.159374 327.825 27.284374 327.46564Q27.503124 326.8875 27.971874 326.325Q28.45625 325.7625 29.3625 325.02814Q30.76875 323.8719 31.253124 323.2Q31.753124 322.52814 31.753124 321.9344Q31.753124 321.3094 31.3 320.8875Q30.846874 320.45 30.128124 320.45Q29.3625 320.45 28.909374 320.90314Q28.45625 321.35626 28.440624 322.16876L27.3625 322.0594Q27.471874 320.84064 28.190624 320.21564Q28.925 319.575 30.159374 319.575Q31.39375 319.575 32.1125 320.2625Q32.83125 320.95 32.83125 321.96564Q32.83125 322.48126 32.6125 322.98126Q32.409374 323.46564 31.909374 324.02814Q31.425 324.575 30.3 325.52814Q29.346874 326.325 29.065624 326.6219Q28.8 326.90314 28.628124 327.1844L32.846874 327.1844ZM34.3 323.96564Q34.3 322.4344 34.6125 321.5125Q34.925 320.575 35.534374 320.075Q36.159374 319.575 37.096874 319.575Q37.784374 319.575 38.3 319.85626Q38.83125 320.1375 39.175 320.66876Q39.51875 321.1844 39.70625 321.9344Q39.89375 322.6844 39.89375 323.96564Q39.89375 325.48126 39.58125 326.40314Q39.284374 327.325 38.659374 327.84064Q38.05 328.34064 37.096874 328.34064Q35.8625 328.34064 35.14375 327.45Q34.3 326.3875 34.3 323.96564ZM35.378124 323.96564Q35.378124 326.075 35.878124 326.77814Q36.378124 327.48126 37.096874 327.48126Q37.83125 327.48126 38.315624 326.77814Q38.815624 326.075 38.815624 323.96564Q38.815624 321.84064 38.315624 321.15314Q37.83125 320.45 37.08125 320.45Q36.3625 320.45 35.925 321.0594Q35.378124 321.84064 35.378124 323.96564ZM41.675 328.2L41.675 319.60626L42.815624 319.60626L42.815624 323.8719L47.08125 319.60626L48.628124 319.60626L45.01875 323.09064L48.784374 328.2L47.284374 328.2L44.221874 323.85626L42.815624 325.21564L42.815624 328.2L41.675 328.2Z" fill-rule="nonzero"/><path fill="#000000" d="M30.675 297.71802L30.675 295.65552L26.95625 295.65552L26.95625 294.68677L30.878124 289.12427L31.7375 289.12427L31.7375 294.68677L32.89375 294.68677L32.89375 295.65552L31.7375 295.65552L31.7375 297.71802L30.675 297.71802ZM30.675 294.68677L30.675 290.8274L27.9875 294.68677L30.675 294.68677ZM34.3 293.48364Q34.3 291.9524 34.6125 291.03052Q34.925 290.09302 35.534374 289.59302Q36.159374 289.09302 37.096874 289.09302Q37.784374 289.09302 38.3 289.37427Q38.83125 289.65552 39.175 290.18677Q39.51875 290.7024 39.70625 291.4524Q39.89375 292.2024 39.89375 293.48364Q39.89375 294.99927 39.58125 295.92114Q39.284374 296.84302 38.659374 297.35864Q38.05 297.85864 37.096874 297.85864Q35.8625 297.85864 35.14375 296.96802Q34.3 295.90552 34.3 293.48364ZM35.378124 293.48364Q35.378124 295.59302 35.878124 296.29614Q36.378124 296.99927 37.096874 296.99927Q37.83125 296.99927 38.315624 296.29614Q38.815624 295.59302 38.815624 293.48364Q38.815624 291.35864 38.315624 290.67114Q37.83125 289.96802 37.08125 289.96802Q36.3625 289.96802 35.925 290.5774Q35.378124 291.35864 35.378124 293.48364ZM41.675 297.71802L41.675 289.12427L42.815624 289.12427L42.815624 293.3899L47.08125 289.12427L48.628124 289.12427L45.01875 292.60864L48.784374 297.71802L47.284374 297.71802L44.221874 293.37427L42.815624 294.73364L42.815624 297.71802L41.675 297.71802Z" fill-rule="nonzero"/><path fill="#000000" d="M32.76875 273.4028L31.721874 273.48093Q31.58125 272.85593 31.33125 272.57468Q30.89375 272.12155 30.26875 272.12155Q29.76875 272.12155 29.378124 272.4028Q28.89375 272.7778 28.596874 273.48093Q28.315624 274.16843 28.3 275.44968Q28.675 274.87155 29.221874 274.5903Q29.784374 274.30905 30.39375 274.30905Q31.440624 274.30905 32.175 275.0903Q32.925 275.87155 32.925 277.0903Q32.925 277.9028 32.565624 278.60593Q32.221874 279.29343 31.6125 279.66843Q31.003124 280.0278 30.2375 280.0278Q28.909374 280.0278 28.08125 279.05905Q27.253124 278.0903 27.253124 275.87155Q27.253124 273.37155 28.175 272.24655Q28.971874 271.26218 30.33125 271.26218Q31.346874 271.26218 31.9875 271.8403Q32.64375 272.4028 32.76875 273.4028ZM28.471874 277.10593Q28.471874 277.6528 28.690624 278.1528Q28.925 278.63718 29.33125 278.9028Q29.753124 279.16843 30.221874 279.16843Q30.878124 279.16843 31.3625 278.63718Q31.846874 278.0903 31.846874 277.16843Q31.846874 276.2778 31.3625 275.76218Q30.89375 275.24655 30.175 275.24655Q29.45625 275.24655 28.95625 275.76218Q28.471874 276.2778 28.471874 277.10593ZM34.3 275.6528Q34.3 274.12155 34.6125 273.19968Q34.925 272.26218 35.534374 271.76218Q36.159374 271.26218 37.096874 271.26218Q37.784374 271.26218 38.3 271.54343Q38.83125 271.82468 39.175 272.35593Q39.51875 272.87155 39.70625 273.62155Q39.89375 274.37155 39.89375 275.6528Q39.89375 277.16843 39.58125 278.0903Q39.284374 279.01218 38.659374 279.5278Q38.05 280.0278 37.096874 280.0278Q35.8625 280.0278 35.14375 279.13718Q34.3 278.07468 34.3 275.6528ZM35.378124 275.6528Q35.378124 277.76218 35.878124 278.4653Q36.378124 279.16843 37.096874 279.16843Q37.83125 279.16843 38.315624 278.4653Q38.815624 277.76218 38.815624 275.6528Q38.815624 273.5278 38.315624 272.8403Q37.83125 272.13718 37.08125 272.13718Q36.3625 272.13718 35.925 272.74655Q35.378124 273.5278 35.378124 275.6528ZM41.675 279.88718L41.675 271.29343L42.815624 271.29343L42.815624 275.55905L47.08125 271.29343L48.628124 271.29343L45.01875 274.7778L48.784374 279.88718L47.284374 279.88718L44.221874 275.54343L42.815624 276.9028L42.815624 279.88718L41.675 279.88718Z" fill-rule="nonzero"/><path fill="#000000" d="M24.26875 257.423L23.221874 257.423L23.221874 250.70425Q22.83125 251.06363 22.20625 251.43863Q21.596874 251.798 21.1125 251.96988L21.1125 250.95425Q21.9875 250.53238 22.64375 249.95425Q23.315624 249.3605 23.596874 248.798L24.26875 248.798L24.26875 257.423ZM27.3 253.18863Q27.3 251.65738 27.6125 250.7355Q27.925 249.798 28.534374 249.298Q29.159374 248.798 30.096874 248.798Q30.784374 248.798 31.3 249.07925Q31.83125 249.3605 32.175 249.89175Q32.51875 250.40738 32.70625 251.15738Q32.89375 251.90738 32.89375 253.18863Q32.89375 254.70425 32.58125 255.62613Q32.284374 256.548 31.659374 257.06363Q31.05 257.56363 30.096874 257.56363Q28.8625 257.56363 28.14375 256.673Q27.3 255.6105 27.3 253.18863ZM28.378124 253.18863Q28.378124 255.298 28.878124 256.00113Q29.378124 256.70425 30.096874 256.70425Q30.83125 256.70425 31.315624 256.00113Q31.815624 255.298 31.815624 253.18863Q31.815624 251.06363 31.315624 250.37613Q30.83125 249.673 30.08125 249.673Q29.3625 249.673 28.925 250.28238Q28.378124 251.06363 28.378124 253.18863ZM34.3 253.18863Q34.3 251.65738 34.6125 250.7355Q34.925 249.798 35.534374 249.298Q36.159374 248.798 37.096874 248.798Q37.784374 248.798 38.3 249.07925Q38.83125 249.3605 39.175 249.89175Q39.51875 250.40738 39.70625 251.15738Q39.89375 251.90738 39.89375 253.18863Q39.89375 254.70425 39.58125 255.62613Q39.284374 256.548 38.659374 257.06363Q38.05 257.56363 37.096874 257.56363Q35.8625 257.56363 35.14375 256.673Q34.3 255.6105 34.3 253.18863ZM35.378124 253.18863Q35.378124 255.298 35.878124 256.00113Q36.378124 256.70425 37.096874 256.70425Q37.83125 256.70425 38.315624 256.00113Q38.815624 255.298 38.815624 253.18863Q38.815624 251.06363 38.315624 250.37613Q37.83125 249.673 37.08125 249.673Q36.3625 249.673 35.925 250.28238Q35.378124 251.06363 35.378124 253.18863ZM41.675 257.423L41.675 248.82925L42.815624 248.82925L42.815624 253.09488L47.08125 248.82925L48.628124 248.82925L45.01875 252.31363L48.784374 257.423L47.284374 257.423L44.221874 253.07925L42.815624 254.43863L42.815624 257.423L41.675 257.423Z" fill-rule="nonzero"/><path fill="#000000" d="M25.846874 225.92537L25.846874 226.941L20.159374 226.941Q20.159374 226.566 20.284374 226.20662Q20.503124 225.6285 20.971874 225.066Q21.45625 224.5035 22.3625 223.76912Q23.76875 222.61287 24.253124 221.941Q24.753124 221.26912 24.753124 220.67537Q24.753124 220.05037 24.3 219.6285Q23.846874 219.191 23.128124 219.191Q22.3625 219.191 21.909374 219.64412Q21.45625 220.09724 21.440624 220.90974L20.3625 220.80037Q20.471874 219.58162 21.190624 218.95662Q21.925 218.316 23.159374 218.316Q24.39375 218.316 25.1125 219.0035Q25.83125 219.691 25.83125 220.70662Q25.83125 221.22224 25.6125 221.72224Q25.409374 222.20662 24.909374 222.76912Q24.425 223.316 23.3 224.26912Q22.346874 225.066 22.065624 225.36287Q21.8 225.64412 21.628124 225.92537L25.846874 225.92537ZM27.3 222.70662Q27.3 221.17537 27.6125 220.2535Q27.925 219.316 28.534374 218.816Q29.159374 218.316 30.096874 218.316Q30.784374 218.316 31.3 218.59724Q31.83125 218.8785 32.175 219.40974Q32.51875 219.92537 32.70625 220.67537Q32.89375 221.42537 32.89375 222.70662Q32.89375 224.22224 32.58125 225.14412Q32.284374 226.066 31.659374 226.58162Q31.05 227.08162 30.096874 227.08162Q28.8625 227.08162 28.14375 226.191Q27.3 225.1285 27.3 222.70662ZM28.378124 222.70662Q28.378124 224.816 28.878124 225.51912Q29.378124 226.22224 30.096874 226.22224Q30.83125 226.22224 31.315624 225.51912Q31.815624 224.816 31.815624 222.70662Q31.815624 220.58162 31.315624 219.89412Q30.83125 219.191 30.08125 219.191Q29.3625 219.191 28.925 219.80037Q28.378124 220.58162 28.378124 222.70662ZM34.3 222.70662Q34.3 221.17537 34.6125 220.2535Q34.925 219.316 35.534374 218.816Q36.159374 218.316 37.096874 218.316Q37.784374 218.316 38.3 218.59724Q38.83125 218.8785 39.175 219.40974Q39.51875 219.92537 39.70625 220.67537Q39.89375 221.42537 39.89375 222.70662Q39.89375 224.22224 39.58125 225.14412Q39.284374 226.066 38.659374 226.58162Q38.05 227.08162 37.096874 227.08162Q35.8625 227.08162 35.14375 226.191Q34.3 225.1285 34.3 222.70662ZM35.378124 222.70662Q35.378124 224.816 35.878124 225.51912Q36.378124 226.22224 37.096874 226.22224Q37.83125 226.22224 38.315624 225.51912Q38.815624 224.816 38.815624 222.70662Q38.815624 220.58162 38.315624 219.89412Q37.83125 219.191 37.08125 219.191Q36.3625 219.191 35.925 219.80037Q35.378124 220.58162 35.378124 222.70662ZM41.675 226.941L41.675 218.34724L42.815624 218.34724L42.815624 222.61287L47.08125 218.34724L48.628124 218.34724L45.01875 221.83162L48.784374 226.941L47.284374 226.941L44.221874 222.59724L42.815624 223.95662L42.815624 226.941L41.675 226.941Z" fill-rule="nonzero"/><path fill="#000000" d="M23.675 196.459L23.675 194.3965L19.95625 194.3965L19.95625 193.42775L23.878124 187.86525L24.7375 187.86525L24.7375 193.42775L25.89375 193.42775L25.89375 194.3965L24.7375 194.3965L24.7375 196.459L23.675 196.459ZM23.675 193.42775L23.675 189.56837L20.9875 193.42775L23.675 193.42775ZM27.3 192.22462Q27.3 190.69337 27.6125 189.7715Q27.925 188.834 28.534374 188.334Q29.159374 187.834 30.096874 187.834Q30.784374 187.834 31.3 188.11525Q31.83125 188.3965 32.175 188.92775Q32.51875 189.44337 32.70625 190.19337Q32.89375 190.94337 32.89375 192.22462Q32.89375 193.74025 32.58125 194.66212Q32.284374 195.584 31.659374 196.09962Q31.05 196.59962 30.096874 196.59962Q28.8625 196.59962 28.14375 195.709Q27.3 194.6465 27.3 192.22462ZM28.378124 192.22462Q28.378124 194.334 28.878124 195.03712Q29.378124 195.74025 30.096874 195.74025Q30.83125 195.74025 31.315624 195.03712Q31.815624 194.334 31.815624 192.22462Q31.815624 190.09962 31.315624 189.41212Q30.83125 188.709 30.08125 188.709Q29.3625 188.709 28.925 189.31837Q28.378124 190.09962 28.378124 192.22462ZM34.3 192.22462Q34.3 190.69337 34.6125 189.7715Q34.925 188.834 35.534374 188.334Q36.159374 187.834 37.096874 187.834Q37.784374 187.834 38.3 188.11525Q38.83125 188.3965 39.175 188.92775Q39.51875 189.44337 39.70625 190.19337Q39.89375 190.94337 39.89375 192.22462Q39.89375 193.74025 39.58125 194.66212Q39.284374 195.584 38.659374 196.09962Q38.05 196.59962 37.096874 196.59962Q35.8625 196.59962 35.14375 195.709Q34.3 194.6465 34.3 192.22462ZM35.378124 192.22462Q35.378124 194.334 35.878124 195.03712Q36.378124 195.74025 37.096874 195.74025Q37.83125 195.74025 38.315624 195.03712Q38.815624 194.334 38.815624 192.22462Q38.815624 190.09962 38.315624 189.41212Q37.83125 188.709 37.08125 188.709Q36.3625 188.709 35.925 189.31837Q35.378124 190.09962 35.378124 192.22462ZM41.675 196.459L41.675 187.86525L42.815624 187.86525L42.815624 192.13087L47.08125 187.86525L48.628124 187.86525L45.01875 191.34962L48.784374 196.459L47.284374 196.459L44.221874 192.11525L42.815624 193.47462L42.815624 196.459L41.675 196.459Z" fill-rule="nonzero"/><path fill="#000000" d="M25.76875 172.1438L24.721874 172.22192Q24.58125 171.59692 24.33125 171.31567Q23.89375 170.86255 23.26875 170.86255Q22.76875 170.86255 22.378124 171.1438Q21.89375 171.5188 21.596874 172.22192Q21.315624 172.90942 21.3 174.19067Q21.675 173.61255 22.221874 173.3313Q22.784374 173.05005 23.39375 173.05005Q24.440624 173.05005 25.175 173.8313Q25.925 174.61255 25.925 175.8313Q25.925 176.6438 25.565624 177.34692Q25.221874 178.03442 24.6125 178.40942Q24.003124 178.7688 23.2375 178.7688Q21.909374 178.7688 21.08125 177.80005Q20.253124 176.8313 20.253124 174.61255Q20.253124 172.11255 21.175 170.98755Q21.971874 170.00317 23.33125 170.00317Q24.346874 170.00317 24.9875 170.5813Q25.64375 171.1438 25.76875 172.1438ZM21.471874 175.84692Q21.471874 176.3938 21.690624 176.8938Q21.925 177.37817 22.33125 177.6438Q22.753124 177.90942 23.221874 177.90942Q23.878124 177.90942 24.3625 177.37817Q24.846874 176.8313 24.846874 175.90942Q24.846874 175.0188 24.3625 174.50317Q23.89375 173.98755 23.175 173.98755Q22.45625 173.98755 21.95625 174.50317Q21.471874 175.0188 21.471874 175.84692ZM27.3 174.3938Q27.3 172.86255 27.6125 171.94067Q27.925 171.00317 28.534374 170.50317Q29.159374 170.00317 30.096874 170.00317Q30.784374 170.00317 31.3 170.28442Q31.83125 170.56567 32.175 171.09692Q32.51875 171.61255 32.70625 172.36255Q32.89375 173.11255 32.89375 174.3938Q32.89375 175.90942 32.58125 176.8313Q32.284374 177.75317 31.659374 178.2688Q31.05 178.7688 30.096874 178.7688Q28.8625 178.7688 28.14375 177.87817Q27.3 176.81567 27.3 174.3938ZM28.378124 174.3938Q28.378124 176.50317 28.878124 177.2063Q29.378124 177.90942 30.096874 177.90942Q30.83125 177.90942 31.315624 177.2063Q31.815624 176.50317 31.815624 174.3938Q31.815624 172.2688 31.315624 171.5813Q30.83125 170.87817 30.08125 170.87817Q29.3625 170.87817 28.925 171.48755Q28.378124 172.2688 28.378124 174.3938ZM34.3 174.3938Q34.3 172.86255 34.6125 171.94067Q34.925 171.00317 35.534374 170.50317Q36.159374 170.00317 37.096874 170.00317Q37.784374 170.00317 38.3 170.28442Q38.83125 170.56567 39.175 171.09692Q39.51875 171.61255 39.70625 172.36255Q39.89375 173.11255 39.89375 174.3938Q39.89375 175.90942 39.58125 176.8313Q39.284374 177.75317 38.659374 178.2688Q38.05 178.7688 37.096874 178.7688Q35.8625 178.7688 35.14375 177.87817Q34.3 176.81567 34.3 174.3938ZM35.378124 174.3938Q35.378124 176.50317 35.878124 177.2063Q36.378124 177.90942 37.096874 177.90942Q37.83125 177.90942 38.315624 177.2063Q38.815624 176.50317 38.815624 174.3938Q38.815624 172.2688 38.315624 171.5813Q37.83125 170.87817 37.08125 170.87817Q36.3625 170.87817 35.925 171.48755Q35.378124 172.2688 35.378124 174.3938ZM41.675 178.62817L41.675 170.03442L42.815624 170.03442L42.815624 174.30005L47.08125 170.03442L48.628124 170.03442L45.01875 173.5188L48.784374 178.62817L47.284374 178.62817L44.221874 174.28442L42.815624 175.6438L42.815624 178.62817L41.675 178.62817Z" fill-rule="nonzero"/><path fill="#000000" d="M37.26875 156.16399L36.221874 156.16399L36.221874 149.44524Q35.83125 149.80461 35.20625 150.17961Q34.596874 150.53899 34.1125 150.71086L34.1125 149.69524Q34.9875 149.27336 35.64375 148.69524Q36.315624 148.10149 36.596874 147.53899L37.26875 147.53899L37.26875 156.16399ZM40.690624 156.16399L40.690624 147.57024L42.409374 147.57024L44.440624 153.64836Q44.721874 154.50774 44.846874 154.92961Q44.9875 154.46086 45.3 153.55461L47.3625 147.57024L48.89375 147.57024L48.89375 156.16399L47.8 156.16399L47.8 148.97649L45.3 156.16399L44.26875 156.16399L41.784374 148.85149L41.784374 156.16399L40.690624 156.16399Z" fill-rule="nonzero"/><path fill="#000000" d="M38.846874 124.666374L38.846874 125.682L33.159374 125.682Q33.159374 125.307 33.284374 124.947624Q33.503124 124.3695 33.971874 123.807Q34.45625 123.2445 35.3625 122.510124Q36.76875 121.353874 37.253124 120.682Q37.753124 120.010124 37.753124 119.416374Q37.753124 118.791374 37.3 118.3695Q36.846874 117.932 36.128124 117.932Q35.3625 117.932 34.909374 118.385124Q34.45625 118.83825 34.440624 119.65075L33.3625 119.541374Q33.471874 118.322624 34.190624 117.697624Q34.925 117.057 36.159374 117.057Q37.39375 117.057 38.1125 117.7445Q38.83125 118.432 38.83125 119.447624Q38.83125 119.96325 38.6125 120.46325Q38.409374 120.947624 37.909374 121.510124Q37.425 122.057 36.3 123.010124Q35.346874 123.807 35.065624 124.103874Q34.8 124.385124 34.628124 124.666374L38.846874 124.666374ZM40.690624 125.682L40.690624 117.08825L42.409374 117.08825L44.440624 123.166374Q44.721874 124.02575 44.846874 124.447624Q44.9875 123.978874 45.3 123.072624L47.3625 117.08825L48.89375 117.08825L48.89375 125.682L47.8 125.682L47.8 118.4945L45.3 125.682L44.26875 125.682L41.784374 118.3695L41.784374 125.682L40.690624 125.682Z" fill-rule="nonzero"/><path fill="#000000" d="M36.675 95.2L36.675 93.1375L32.95625 93.1375L32.95625 92.16875L36.878124 86.60625L37.7375 86.60625L37.7375 92.16875L38.89375 92.16875L38.89375 93.1375L37.7375 93.1375L37.7375 95.2L36.675 95.2ZM36.675 92.16875L36.675 88.30937L33.9875 92.16875L36.675 92.16875ZM40.690624 95.2L40.690624 86.60625L42.409374 86.60625L44.440624 92.68437Q44.721874 93.54375 44.846874 93.96562Q44.9875 93.49687 45.3 92.59062L47.3625 86.60625L48.89375 86.60625L48.89375 95.2L47.8 95.2L47.8 88.0125L45.3 95.2L44.26875 95.2L41.784374 87.8875L41.784374 95.2L40.690624 95.2Z" fill-rule="nonzero"/><path fill="#000000" d="M63.751297 341.2L62.704422 341.2L62.704422 334.48126Q62.313797 334.84064 61.688797 335.21564Q61.079422 335.575 60.595047 335.7469L60.595047 334.73126Q61.470047 334.3094 62.126297 333.73126Q62.798172 333.1375 63.079422 332.575L63.751297 332.575L63.751297 341.2Z" fill-rule="nonzero"/><path fill="#000000" d="M115.37775 340.1844L115.37775 341.2L109.69025 341.2Q109.69025 340.825 109.81525 340.46564Q110.034 339.8875 110.50275 339.325Q110.98712 338.7625 111.89337 338.02814Q113.29962 336.8719 113.784 336.2Q114.284 335.52814 114.284 334.9344Q114.284 334.3094 113.83087 333.8875Q113.37775 333.45 112.659 333.45Q111.89337 333.45 111.44025 333.90314Q110.98712 334.35626 110.9715 335.16876L109.89337 335.0594Q110.00275 333.84064 110.7215 333.21564Q111.45587 332.575 112.69025 332.575Q113.92462 332.575 114.64337 333.2625Q115.36212 333.95 115.36212 334.96564Q115.36212 335.48126 115.14337 335.98126Q114.94025 336.46564 114.44025 337.02814Q113.95587 337.575 112.83087 338.52814Q111.87775 339.325 111.5965 339.6219Q111.33087 339.90314 111.159 340.1844L115.37775 340.1844Z" fill-rule="nonzero"/><path fill="#000000" d="M159.8792 338.9344L160.9417 338.79376Q161.11357 339.6844 161.55107 340.09064Q161.98857 340.48126 162.61357 340.48126Q163.36357 340.48126 163.8792 339.96564Q164.39482 339.45 164.39482 338.6844Q164.39482 337.96564 163.91045 337.4969Q163.4417 337.0125 162.70732 337.0125Q162.41045 337.0125 161.95732 337.1375L162.08232 336.2Q162.1917 336.21564 162.2542 336.21564Q162.92607 336.21564 163.45732 335.8719Q164.0042 335.5125 164.0042 334.77814Q164.0042 334.2 163.61357 333.825Q163.22295 333.4344 162.59795 333.4344Q161.98857 333.4344 161.5667 333.825Q161.16045 334.21564 161.05107 334.98126L159.98857 334.79376Q160.17607 333.7469 160.86357 333.16876Q161.55107 332.575 162.5667 332.575Q163.26982 332.575 163.86357 332.8875Q164.45732 333.1844 164.76982 333.7Q165.08232 334.21564 165.08232 334.8094Q165.08232 335.35626 164.78545 335.825Q164.48857 336.27814 163.91045 336.54376Q164.66045 336.71564 165.08232 337.27814Q165.5042 337.825 165.5042 338.66876Q165.5042 339.79376 164.67607 340.575Q163.86357 341.35626 162.61357 341.35626Q161.48857 341.35626 160.73857 340.6844Q159.98857 339.9969 159.8792 338.9344Z" fill-rule="nonzero"/><path fill="#000000" d="M213.30252 341.2L213.30252 339.1375L209.58377 339.1375L209.58377 338.16876L213.50565 332.60626L214.36502 332.60626L214.36502 338.16876L215.52127 338.16876L215.52127 339.1375L214.36502 339.1375L214.36502 341.2L213.30252 341.2ZM213.30252 338.16876L213.30252 334.3094L210.61502 338.16876L213.30252 338.16876Z" fill-rule="nonzero"/><path fill="#000000" d="M259.97583 338.95L261.0852 338.85626Q261.2102 339.66876 261.6477 340.075Q262.10083 340.48126 262.74146 340.48126Q263.49146 340.48126 264.0227 339.90314Q264.55396 339.325 264.55396 338.3875Q264.55396 337.48126 264.03833 336.96564Q263.53833 336.4344 262.7102 336.4344Q262.2102 336.4344 261.78833 336.66876Q261.38208 336.90314 261.1477 337.2625L260.16333 337.1375L260.99146 332.73126L265.2727 332.73126L265.2727 333.73126L261.8352 333.73126L261.38208 336.04376Q262.1477 335.4969 262.99146 335.4969Q264.11646 335.4969 264.88208 336.27814Q265.66333 337.0594 265.66333 338.29376Q265.66333 339.45 264.99146 340.3094Q264.16333 341.34064 262.74146 341.34064Q261.56958 341.34064 260.81958 340.6844Q260.0852 340.02814 259.97583 338.95Z" fill-rule="nonzero"/><path fill="#000000" d="M315.49292 334.71564L314.44604 334.79376Q314.30542 334.16876 314.05542 333.8875Q313.61792 333.4344 312.99292 333.4344Q312.49292 333.4344 312.1023 333.71564Q311.61792 334.09064 311.32104 334.79376Q311.0398 335.48126 311.02417 336.7625Q311.39917 336.1844 311.94604 335.90314Q312.50854 335.6219 313.11792 335.6219Q314.1648 335.6219 314.89917 336.40314Q315.64917 337.1844 315.64917 338.40314Q315.64917 339.21564 315.2898 339.91876Q314.94604 340.60626 314.33667 340.98126Q313.7273 341.34064 312.96167 341.34064Q311.63354 341.34064 310.80542 340.3719Q309.9773 339.40314 309.9773 337.1844Q309.9773 334.6844 310.89917 333.5594Q311.69604 332.575 313.05542 332.575Q314.07104 332.575 314.71167 333.15314Q315.36792 333.71564 315.49292 334.71564ZM311.19604 338.41876Q311.19604 338.96564 311.4148 339.46564Q311.64917 339.95 312.05542 340.21564Q312.4773 340.48126 312.94604 340.48126Q313.6023 340.48126 314.08667 339.95Q314.57104 339.40314 314.57104 338.48126Q314.57104 337.59064 314.08667 337.075Q313.61792 336.5594 312.89917 336.5594Q312.18042 336.5594 311.68042 337.075Q311.19604 337.59064 311.19604 338.41876Z" fill-rule="nonzero"/><path fill="#000000" d="M360.13498 333.73126L360.13498 332.71564L365.69748 332.71564L365.69748 333.54376Q364.88498 334.41876 364.07248 335.8719Q363.2756 337.3094 362.8381 338.84064Q362.50998 339.91876 362.43185 341.2L361.3381 341.2Q361.35373 340.1844 361.72873 338.7469Q362.11935 337.3094 362.82248 335.98126Q363.54123 334.65314 364.35373 333.73126L360.13498 333.73126Z" fill-rule="nonzero"/><path fill="#000000" d="M411.74582 336.54376Q411.08957 336.29376 410.76144 335.85626Q410.44894 335.40314 410.44894 334.79376Q410.44894 333.85626 411.12082 333.21564Q411.80832 332.575 412.9177 332.575Q414.0427 332.575 414.7302 333.23126Q415.4177 333.8875 415.4177 334.825Q415.4177 335.41876 415.1052 335.85626Q414.7927 336.29376 414.15207 336.54376Q414.94894 336.79376 415.3552 337.3719Q415.76144 337.95 415.76144 338.7469Q415.76144 339.84064 414.9802 340.59064Q414.21457 341.34064 412.93332 341.34064Q411.6677 341.34064 410.88644 340.59064Q410.1052 339.84064 410.1052 338.71564Q410.1052 337.8719 410.52707 337.3094Q410.96457 336.7469 411.74582 336.54376ZM411.52707 334.7469Q411.52707 335.35626 411.9177 335.7469Q412.32394 336.1375 412.94894 336.1375Q413.55832 336.1375 413.94894 335.7625Q414.33957 335.3719 414.33957 334.8094Q414.33957 334.23126 413.93332 333.84064Q413.52707 333.4344 412.93332 333.4344Q412.32394 333.4344 411.9177 333.825Q411.52707 334.21564 411.52707 334.7469ZM411.19894 338.71564Q411.19894 339.16876 411.40207 339.59064Q411.62082 340.0125 412.0427 340.2469Q412.46457 340.48126 412.94894 340.48126Q413.69894 340.48126 414.18332 339.9969Q414.68332 339.5125 414.68332 338.7625Q414.68332 337.9969 414.18332 337.4969Q413.68332 336.9969 412.9177 336.9969Q412.1677 336.9969 411.68332 337.4969Q411.19894 337.98126 411.19894 338.71564Z" fill-rule="nonzero"/><path fill="#000000" d="M460.32538 339.21564L461.341 339.1219Q461.466 339.84064 461.82538 340.16876Q462.20038 340.48126 462.76288 340.48126Q463.24725 340.48126 463.60663 340.2625Q463.98163 340.02814 464.216 339.66876Q464.45038 339.29376 464.60663 338.66876Q464.76288 338.02814 464.76288 337.3719Q464.76288 337.29376 464.76288 337.15314Q464.45038 337.65314 463.9035 337.98126Q463.35663 338.29376 462.716 338.29376Q461.63788 338.29376 460.9035 337.52814Q460.16913 336.7469 460.16913 335.48126Q460.16913 334.16876 460.93475 333.3719Q461.716 332.575 462.87225 332.575Q463.70038 332.575 464.38788 333.02814Q465.091 333.48126 465.45038 334.325Q465.80975 335.15314 465.80975 336.73126Q465.80975 338.3719 465.45038 339.35626Q465.10663 340.325 464.38788 340.84064Q463.68475 341.34064 462.74725 341.34064Q461.73163 341.34064 461.091 340.79376Q460.45038 340.23126 460.32538 339.21564ZM464.63788 335.41876Q464.63788 334.5125 464.1535 333.98126Q463.68475 333.45 462.99725 333.45Q462.29413 333.45 461.76288 334.02814Q461.24725 334.59064 461.24725 335.5125Q461.24725 336.325 461.74725 336.84064Q462.24725 337.35626 462.966 337.35626Q463.70038 337.35626 464.16913 336.84064Q464.63788 336.325 464.63788 335.41876Z" fill-rule="nonzero"/><path fill="#000000" d="M510.6862 341.2L509.6393 341.2L509.6393 334.48126Q509.2487 334.84064 508.6237 335.21564Q508.0143 335.575 507.52994 335.7469L507.52994 334.73126Q508.40494 334.3094 509.0612 333.73126Q509.73306 333.1375 510.0143 332.575L510.6862 332.575L510.6862 341.2ZM513.7174 336.96564Q513.7174 335.4344 514.0299 334.5125Q514.3424 333.575 514.9518 333.075Q515.5768 332.575 516.5143 332.575Q517.2018 332.575 517.7174 332.85626Q518.24866 333.1375 518.5924 333.66876Q518.93616 334.1844 519.12366 334.9344Q519.31116 335.6844 519.31116 336.96564Q519.31116 338.48126 518.99866 339.40314Q518.7018 340.325 518.0768 340.84064Q517.4674 341.34064 516.5143 341.34064Q515.2799 341.34064 514.56116 340.45Q513.7174 339.3875 513.7174 336.96564ZM514.79553 336.96564Q514.79553 339.075 515.29553 339.77814Q515.79553 340.48126 516.5143 340.48126Q517.24866 340.48126 517.73303 339.77814Q518.23303 339.075 518.23303 336.96564Q518.23303 334.84064 517.73303 334.15314Q517.24866 333.45 516.49866 333.45Q515.7799 333.45 515.3424 334.0594Q514.79553 334.84064 514.79553 336.96564Z" fill-rule="nonzero"/><path fill="#4a86e8" d="M108.5 64.0C108.5 67.313705 105.813705 70.0 102.5 70.0C99.186295 70.0 96.5 67.313705 96.5 64.0C96.5 60.68629 99.186295 58.0 102.5 58.0C105.813705 58.0 108.5 60.68629 108.5 64.0Z" fill-rule="nonzero"/><path fill="#1a1a1a" d="M117.390625 68.0L117.390625 59.40625L119.109375 59.40625L121.140625 65.484375Q121.421875 66.34375 121.546875 66.765625Q121.6875 66.296875 122.0 65.390625L124.0625 59.40625L125.59375 59.40625L125.59375 68.0L124.5 68.0L124.5 60.8125L122.0 68.0L120.96875 68.0L118.484375 60.6875L118.484375 68.0L117.390625 68.0ZM126.0 65.734375L127.0625 65.59375Q127.234375 66.484375 127.671875 66.890625Q128.10938 67.28125 128.73438 67.28125Q129.48438 67.28125 130.0 66.765625Q130.51562 66.25 130.51562 65.484375Q130.51562 64.765625 130.03125 64.296875Q129.5625 63.8125 128.82812 63.8125Q128.53125 63.8125 128.07812 63.9375L128.20312 63.0Q128.3125 63.015625 128.375 63.015625Q129.04688 63.015625 129.57812 62.671875Q130.125 62.3125 130.125 61.578125Q130.125 61.0 129.73438 60.625Q129.34375 60.234375 128.71875 60.234375Q128.10938 60.234375 127.6875 60.625Q127.28125 61.015625 127.171875 61.78125L126.109375 61.59375Q126.296875 60.546875 126.984375 59.96875Q127.671875 59.375 128.6875 59.375Q129.39062 59.375 129.98438 59.6875Q130.57812 59.984375 130.89062 60.5Q131.20312 61.015625 131.20312 61.609375Q131.20312 62.15625 130.90625 62.625Q130.60938 63.078125 130.03125 63.34375Q130.78125 63.515625 131.20312 64.078125Q131.625 64.625 131.625 65.46875Q131.625 66.59375 130.79688 67.375Q129.98438 68.15625 128.73438 68.15625Q127.609375 68.15625 126.859375 67.484375Q126.109375 66.796875 126.0 65.734375ZM136.39062 68.0L136.39062 59.40625L138.10938 59.40625L140.14062 65.484375Q140.42188 66.34375 140.54688 66.765625Q140.6875 66.296875 141.0 65.390625L143.0625 59.40625L144.59375 59.40625L144.59375 68.0L143.5 68.0L143.5 60.8125L141.0 68.0L139.96875 68.0L137.48438 60.6875L137.48438 68.0L136.39062 68.0ZM149.35938 67.234375Q148.76562 67.734375 148.21875 67.9375Q147.6875 68.140625 147.0625 68.140625Q146.03125 68.140625 145.48438 67.640625Q144.9375 67.140625 144.9375 66.359375Q144.9375 65.90625 145.14062 65.53125Q145.34375 65.140625 145.6875 64.921875Q146.03125 64.6875 146.45312 64.578125Q146.75 64.484375 147.39062 64.40625Q148.65625 64.265625 149.26562 64.046875Q149.26562 63.828125 149.26562 63.78125Q149.26562 63.125 148.96875 62.859375Q148.5625 62.515625 147.76562 62.515625Q147.03125 62.515625 146.67188 62.78125Q146.3125 63.03125 146.14062 63.6875L145.10938 63.546875Q145.25 62.890625 145.57812 62.484375Q145.90625 62.078125 146.51562 61.859375Q147.125 61.640625 147.92188 61.640625Q148.71875 61.640625 149.21875 61.828125Q149.71875 62.015625 149.95312 62.296875Q150.1875 62.578125 150.28125 63.015625Q150.32812 63.28125 150.32812 63.984375L150.32812 65.390625Q150.32812 66.859375 150.39062 67.25Q150.46875 67.640625 150.67188 68.0L149.5625 68.0Q149.40625 67.671875 149.35938 67.234375ZM149.26562 64.875Q148.6875 65.109375 147.54688 65.28125Q146.89062 65.375 146.625 65.5Q146.35938 65.609375 146.20312 65.828125Q146.0625 66.046875 146.0625 66.328125Q146.0625 66.75 146.375 67.03125Q146.70312 67.3125 147.3125 67.3125Q147.92188 67.3125 148.39062 67.046875Q148.875 66.78125 149.09375 66.3125Q149.26562 65.953125 149.26562 65.265625L149.26562 64.875ZM151.59375 68.0L153.85938 64.765625L151.76562 61.78125L153.07812 61.78125L154.03125 63.234375Q154.29688 63.65625 154.46875 63.9375Q154.71875 63.546875 154.9375 63.25L155.98438 61.78125L157.25 61.78125L155.09375 64.703125L157.40625 68.0L156.125 68.0L154.84375 66.0625L154.5 65.546875L152.85938 68.0L151.59375 68.0Z" fill-rule="nonzero"/><path fill="#0000ff" d="M184.5 64.0C184.5 67.313705 181.8137 70.0 178.5 70.0C175.1863 70.0 172.5 67.313705 172.5 64.0C172.5 60.68629 175.1863 58.0 178.5 58.0C181.8137 58.0 184.5 60.68629 184.5 64.0Z" fill-rule="nonzero"/><path fill="#1a1a1a" d="M198.46875 61.515625L197.42188 61.59375Q197.28125 60.96875 197.03125 60.6875Q196.59375 60.234375 195.96875 60.234375Q195.46875 60.234375 195.07812 60.515625Q194.59375 60.890625 194.29688 61.59375Q194.01562 62.28125 194.0 63.5625Q194.375 62.984375 194.92188 62.703125Q195.48438 62.421875 196.09375 62.421875Q197.14062 62.421875 197.875 63.203125Q198.625 63.984375 198.625 65.203125Q198.625 66.015625 198.26562 66.71875Q197.92188 67.40625 197.3125 67.78125Q196.70312 68.140625 195.9375 68.140625Q194.60938 68.140625 193.78125 67.171875Q192.95312 66.203125 192.95312 63.984375Q192.95312 61.484375 193.875 60.359375Q194.67188 59.375 196.03125 59.375Q197.04688 59.375 197.6875 59.953125Q198.34375 60.515625 198.46875 61.515625ZM194.17188 65.21875Q194.17188 65.765625 194.39062 66.265625Q194.625 66.75 195.03125 67.015625Q195.45312 67.28125 195.92188 67.28125Q196.57812 67.28125 197.0625 66.75Q197.54688 66.203125 197.54688 65.28125Q197.54688 64.390625 197.0625 63.875Q196.59375 63.359375 195.875 63.359375Q195.15625 63.359375 194.65625 63.875Q194.17188 64.390625 194.17188 65.21875ZM203.375 68.0L203.375 65.9375L199.65625 65.9375L199.65625 64.96875L203.57812 59.40625L204.4375 59.40625L204.4375 64.96875L205.59375 64.96875L205.59375 65.9375L204.4375 65.9375L204.4375 68.0L203.375 68.0ZM203.375 64.96875L203.375 61.109375L200.6875 64.96875L203.375 64.96875ZM206.875 65.421875L206.875 64.359375L210.125 64.359375L210.125 65.421875L206.875 65.421875ZM215.35938 65.71875L216.39062 65.859375Q216.21875 66.921875 215.51562 67.53125Q214.8125 68.140625 213.79688 68.140625Q212.51562 68.140625 211.73438 67.3125Q210.96875 66.46875 210.96875 64.90625Q210.96875 63.90625 211.29688 63.15625Q211.64062 62.390625 212.3125 62.015625Q213.0 61.640625 213.8125 61.640625Q214.8125 61.640625 215.45312 62.15625Q216.10938 62.65625 216.29688 63.609375L215.26562 63.765625Q215.125 63.140625 214.75 62.828125Q214.375 62.5 213.84375 62.5Q213.04688 62.5 212.54688 63.078125Q212.04688 63.640625 212.04688 64.875Q212.04688 66.140625 212.53125 66.703125Q213.01562 67.265625 213.78125 67.265625Q214.40625 67.265625 214.8125 66.890625Q215.23438 66.515625 215.35938 65.71875ZM216.90625 64.890625Q216.90625 63.15625 217.85938 62.328125Q218.65625 61.640625 219.8125 61.640625Q221.09375 61.640625 221.90625 62.484375Q222.73438 63.3125 222.73438 64.796875Q222.73438 66.0 222.375 66.6875Q222.01562 67.375 221.3125 67.765625Q220.625 68.140625 219.8125 68.140625Q218.51562 68.140625 217.70312 67.3125Q216.90625 66.46875 216.90625 64.890625ZM217.98438 64.890625Q217.98438 66.078125 218.5 66.671875Q219.03125 67.265625 219.8125 67.265625Q220.60938 67.265625 221.125 66.671875Q221.64062 66.078125 221.64062 64.859375Q221.64062 63.703125 221.10938 63.109375Q220.59375 62.515625 219.8125 62.515625Q219.03125 62.515625 218.5 63.109375Q217.98438 63.6875 217.98438 64.890625ZM224.28125 68.0L224.28125 61.78125L225.23438 61.78125L225.23438 62.71875Q225.59375 62.0625 225.89062 61.859375Q226.20312 61.640625 226.57812 61.640625Q227.10938 61.640625 227.65625 61.96875L227.29688 62.953125Q226.90625 62.71875 226.53125 62.71875Q226.17188 62.71875 225.89062 62.9375Q225.625 63.140625 225.51562 63.515625Q225.32812 64.078125 225.32812 64.734375L225.32812 68.0L224.28125 68.0ZM232.54688 66.0L233.64062 66.125Q233.39062 67.078125 232.6875 67.609375Q231.98438 68.140625 230.90625 68.140625Q229.54688 68.140625 228.73438 67.296875Q227.9375 66.453125 227.9375 64.9375Q227.9375 63.375 228.75 62.515625Q229.5625 61.640625 230.84375 61.640625Q232.09375 61.640625 232.875 62.484375Q233.67188 63.328125 233.67188 64.875Q233.67188 64.96875 233.67188 65.15625L229.03125 65.15625Q229.09375 66.1875 229.60938 66.734375Q230.125 67.265625 230.90625 67.265625Q231.48438 67.265625 231.89062 66.96875Q232.3125 66.65625 232.54688 66.0ZM229.09375 64.296875L232.5625 64.296875Q232.5 63.5 232.17188 63.109375Q231.65625 62.5 230.85938 62.5Q230.125 62.5 229.625 62.984375Q229.14062 63.46875 229.09375 64.296875ZM244.5625 64.984375L245.6875 65.28125Q245.32812 66.671875 244.40625 67.40625Q243.48438 68.140625 242.14062 68.140625Q240.75 68.140625 239.875 67.578125Q239.0 67.015625 238.54688 65.953125Q238.09375 64.875 238.09375 63.640625Q238.09375 62.296875 238.60938 61.296875Q239.125 60.296875 240.0625 59.78125Q241.01562 59.265625 242.15625 59.265625Q243.4375 59.265625 244.3125 59.921875Q245.20312 60.578125 245.54688 61.765625L244.42188 62.03125Q244.125 61.09375 243.54688 60.671875Q242.98438 60.234375 242.125 60.234375Q241.14062 60.234375 240.46875 60.71875Q239.8125 61.1875 239.53125 61.984375Q239.26562 62.78125 239.26562 63.640625Q239.26562 64.734375 239.57812 65.546875Q239.90625 66.359375 240.57812 66.765625Q241.25 67.171875 242.04688 67.171875Q243.0 67.171875 243.65625 66.625Q244.32812 66.078125 244.5625 64.984375ZM247.42188 68.0L247.42188 59.40625L250.67188 59.40625Q251.51562 59.40625 251.96875 59.484375Q252.60938 59.59375 253.03125 59.890625Q253.46875 60.1875 253.71875 60.71875Q253.98438 61.25 253.98438 61.890625Q253.98438 62.984375 253.28125 63.75Q252.59375 64.5 250.76562 64.5L248.5625 64.5L248.5625 68.0L247.42188 68.0ZM248.5625 63.5L250.78125 63.5Q251.89062 63.5 252.34375 63.09375Q252.8125 62.671875 252.8125 61.921875Q252.8125 61.390625 252.53125 61.015625Q252.26562 60.625 251.82812 60.5Q251.53125 60.421875 250.76562 60.421875L248.5625 60.421875L248.5625 63.5ZM261.0625 59.40625L262.20312 59.40625L262.20312 64.375Q262.20312 65.671875 261.90625 66.4375Q261.60938 67.1875 260.84375 67.671875Q260.07812 68.140625 258.84375 68.140625Q257.64062 68.140625 256.85938 67.734375Q256.09375 67.3125 255.76562 66.53125Q255.4375 65.734375 255.4375 64.375L255.4375 59.40625L256.57812 59.40625L256.57812 64.359375Q256.57812 65.484375 256.78125 66.015625Q257.0 66.546875 257.5 66.84375Q258.01562 67.125 258.75 67.125Q260.0 67.125 260.53125 66.5625Q261.0625 65.984375 261.0625 64.359375L261.0625 59.40625Z" fill-rule="nonzero"/><path fill="#ff9900" d="M291.5 64.0C291.5 67.313705 288.81372 70.0 285.5 70.0C282.18628 70.0 279.5 67.313705 279.5 64.0C279.5 60.68629 282.18628 58.0 285.5 58.0C288.81372 58.0 291.5 60.68629 291.5 64.0Z" fill-rule="nonzero"/><path fill="#1a1a1a" d="M299.48438 68.0L302.78125 59.40625L304.0 59.40625L307.51562 68.0L306.23438 68.0L305.21875 65.390625L301.64062 65.390625L300.6875 68.0L299.48438 68.0ZM301.96875 64.46875L304.875 64.46875L303.98438 62.09375Q303.5625 61.015625 303.375 60.3125Q303.20312 61.140625 302.90625 61.953125L301.96875 64.46875ZM310.96875 68.0L309.92188 68.0L309.92188 61.28125Q309.53125 61.640625 308.90625 62.015625Q308.29688 62.375 307.8125 62.546875L307.8125 61.53125Q308.6875 61.109375 309.34375 60.53125Q310.01562 59.9375 310.29688 59.375L310.96875 59.375L310.96875 68.0ZM314.0 63.765625Q314.0 62.234375 314.3125 61.3125Q314.625 60.375 315.23438 59.875Q315.85938 59.375 316.79688 59.375Q317.48438 59.375 318.0 59.65625Q318.53125 59.9375 318.875 60.46875Q319.21875 60.984375 319.40625 61.734375Q319.59375 62.484375 319.59375 63.765625Q319.59375 65.28125 319.28125 66.203125Q318.98438 67.125 318.35938 67.640625Q317.75 68.140625 316.79688 68.140625Q315.5625 68.140625 314.84375 67.25Q314.0 66.1875 314.0 63.765625ZM315.07812 63.765625Q315.07812 65.875 315.57812 66.578125Q316.07812 67.28125 316.79688 67.28125Q317.53125 67.28125 318.01562 66.578125Q318.51562 65.875 318.51562 63.765625Q318.51562 61.640625 318.01562 60.953125Q317.53125 60.25 316.78125 60.25Q316.0625 60.25 315.625 60.859375Q315.07812 61.640625 315.07812 63.765625ZM321.0 63.765625Q321.0 62.234375 321.3125 61.3125Q321.625 60.375 322.23438 59.875Q322.85938 59.375 323.79688 59.375Q324.48438 59.375 325.0 59.65625Q325.53125 59.9375 325.875 60.46875Q326.21875 60.984375 326.40625 61.734375Q326.59375 62.484375 326.59375 63.765625Q326.59375 65.28125 326.28125 66.203125Q325.98438 67.125 325.35938 67.640625Q324.75 68.140625 323.79688 68.140625Q322.5625 68.140625 321.84375 67.25Q321.0 66.1875 321.0 63.765625ZM322.07812 63.765625Q322.07812 65.875 322.57812 66.578125Q323.07812 67.28125 323.79688 67.28125Q324.53125 67.28125 325.01562 66.578125Q325.51562 65.875 325.51562 63.765625Q325.51562 61.640625 325.01562 60.953125Q324.53125 60.25 323.78125 60.25Q323.0625 60.25 322.625 60.859375Q322.07812 61.640625 322.07812 63.765625ZM335.45312 64.625L335.45312 63.625L339.07812 63.609375L339.07812 66.796875Q338.25 67.46875 337.35938 67.8125Q336.46875 68.140625 335.53125 68.140625Q334.26562 68.140625 333.21875 67.609375Q332.1875 67.0625 331.65625 66.046875Q331.14062 65.015625 331.14062 63.75Q331.14062 62.484375 331.65625 61.40625Q332.1875 60.3125 333.17188 59.796875Q334.15625 59.265625 335.4375 59.265625Q336.375 59.265625 337.125 59.5625Q337.875 59.859375 338.29688 60.40625Q338.73438 60.9375 338.95312 61.8125L337.9375 62.09375Q337.73438 61.4375 337.4375 61.0625Q337.15625 60.6875 336.625 60.46875Q336.09375 60.234375 335.45312 60.234375Q334.67188 60.234375 334.09375 60.46875Q333.53125 60.703125 333.17188 61.09375Q332.82812 61.484375 332.64062 61.953125Q332.3125 62.75 332.3125 63.671875Q332.3125 64.828125 332.70312 65.609375Q333.10938 66.375 333.85938 66.75Q334.60938 67.125 335.46875 67.125Q336.20312 67.125 336.90625 66.84375Q337.60938 66.546875 337.96875 66.234375L337.96875 64.625L335.45312 64.625ZM340.42188 68.0L340.42188 59.40625L343.67188 59.40625Q344.51562 59.40625 344.96875 59.484375Q345.60938 59.59375 346.03125 59.890625Q346.46875 60.1875 346.71875 60.71875Q346.98438 61.25 346.98438 61.890625Q346.98438 62.984375 346.28125 63.75Q345.59375 64.5 343.76562 64.5L341.5625 64.5L341.5625 68.0L340.42188 68.0ZM341.5625 63.5L343.78125 63.5Q344.89062 63.5 345.34375 63.09375Q345.8125 62.671875 345.8125 61.921875Q345.8125 61.390625 345.53125 61.015625Q345.26562 60.625 344.82812 60.5Q344.53125 60.421875 343.76562 60.421875L341.5625 60.421875L341.5625 63.5ZM354.0625 59.40625L355.20312 59.40625L355.20312 64.375Q355.20312 65.671875 354.90625 66.4375Q354.60938 67.1875 353.84375 67.671875Q353.07812 68.140625 351.84375 68.140625Q350.64062 68.140625 349.85938 67.734375Q349.09375 67.3125 348.76562 66.53125Q348.4375 65.734375 348.4375 64.375L348.4375 59.40625L349.57812 59.40625L349.57812 64.359375Q349.57812 65.484375 349.78125 66.015625Q350.0 66.546875 350.5 66.84375Q351.01562 67.125 351.75 67.125Q353.0 67.125 353.53125 66.5625Q354.0625 65.984375 354.0625 64.359375L354.0625 59.40625Z" fill-rule="nonzero"/><path fill="#ff0000" d="M384.5 64.0C384.5 67.313705 381.81372 70.0 378.5 70.0C375.18628 70.0 372.5 67.313705 372.5 64.0C372.5 60.68629 375.18628 58.0 378.5 58.0C381.81372 58.0 384.5 60.68629 384.5 64.0Z" fill-rule="nonzero"/><path fill="#1a1a1a" d="M395.01562 68.0L392.65625 61.78125L393.76562 61.78125L395.10938 65.5Q395.3125 66.109375 395.5 66.75Q395.64062 66.265625 395.89062 65.578125L397.28125 61.78125L398.35938 61.78125L396.0 68.0L395.01562 68.0ZM398.0 65.75L399.10938 65.65625Q399.23438 66.46875 399.67188 66.875Q400.125 67.28125 400.76562 67.28125Q401.51562 67.28125 402.04688 66.703125Q402.57812 66.125 402.57812 65.1875Q402.57812 64.28125 402.0625 63.765625Q401.5625 63.234375 400.73438 63.234375Q400.23438 63.234375 399.8125 63.46875Q399.40625 63.703125 399.17188 64.0625L398.1875 63.9375L399.01562 59.53125L403.29688 59.53125L403.29688 60.53125L399.85938 60.53125L399.40625 62.84375Q400.17188 62.296875 401.01562 62.296875Q402.14062 62.296875 402.90625 63.078125Q403.6875 63.859375 403.6875 65.09375Q403.6875 66.25 403.01562 67.109375Q402.1875 68.140625 400.76562 68.140625Q399.59375 68.140625 398.84375 67.484375Q398.10938 66.828125 398.0 65.75ZM409.54688 66.0L410.64062 66.125Q410.39062 67.078125 409.6875 67.609375Q408.98438 68.140625 407.90625 68.140625Q406.54688 68.140625 405.73438 67.296875Q404.9375 66.453125 404.9375 64.9375Q404.9375 63.375 405.75 62.515625Q406.5625 61.640625 407.84375 61.640625Q409.09375 61.640625 409.875 62.484375Q410.67188 63.328125 410.67188 64.875Q410.67188 64.96875 410.67188 65.15625L406.03125 65.15625Q406.09375 66.1875 406.60938 66.734375Q407.125 67.265625 407.90625 67.265625Q408.48438 67.265625 408.89062 66.96875Q409.3125 66.65625 409.54688 66.0ZM406.09375 64.296875L409.5625 64.296875Q409.5 63.5 409.17188 63.109375Q408.65625 62.5 407.85938 62.5Q407.125 62.5 406.625 62.984375Q406.14062 63.46875 406.09375 64.296875ZM417.60938 68.0L417.60938 60.421875L414.78125 60.421875L414.78125 59.40625L421.59375 59.40625L421.59375 60.421875L418.75 60.421875L418.75 68.0L417.60938 68.0ZM422.42188 68.0L422.42188 59.40625L425.67188 59.40625Q426.51562 59.40625 426.96875 59.484375Q427.60938 59.59375 428.03125 59.890625Q428.46875 60.1875 428.71875 60.71875Q428.98438 61.25 428.98438 61.890625Q428.98438 62.984375 428.28125 63.75Q427.59375 64.5 425.76562 64.5L423.5625 64.5L423.5625 68.0L422.42188 68.0ZM423.5625 63.5L425.78125 63.5Q426.89062 63.5 427.34375 63.09375Q427.8125 62.671875 427.8125 61.921875Q427.8125 61.390625 427.53125 61.015625Q427.26562 60.625 426.82812 60.5Q426.53125 60.421875 425.76562 60.421875L423.5625 60.421875L423.5625 63.5ZM436.0625 59.40625L437.20312 59.40625L437.20312 64.375Q437.20312 65.671875 436.90625 66.4375Q436.60938 67.1875 435.84375 67.671875Q435.07812 68.140625 433.84375 68.140625Q432.64062 68.140625 431.85938 67.734375Q431.09375 67.3125 430.76562 66.53125Q430.4375 65.734375 430.4375 64.375L430.4375 59.40625L431.57812 59.40625L431.57812 64.359375Q431.57812 65.484375 431.78125 66.015625Q432.0 66.546875 432.5 66.84375Q433.01562 67.125 433.75 67.125Q435.0 67.125 435.53125 66.5625Q436.0625 65.984375 436.0625 64.359375L436.0625 59.40625Z" fill-rule="nonzero"/><path fill="#757575" d="M69.229454 34.552963L71.010704 34.396713Q71.135704 35.459213 71.58883 36.146713Q72.05758 36.834213 73.02633 37.271713Q74.010704 37.69359 75.24508 37.69359Q76.323204 37.69359 77.15133 37.38109Q77.979454 37.052963 78.385704 36.490463Q78.791954 35.927963 78.791954 35.25609Q78.791954 34.584213 78.40133 34.084213Q78.010704 33.584213 77.12008 33.240463Q76.541954 33.00609 74.55758 32.53734Q72.58883 32.06859 71.80758 31.646713Q70.77633 31.115463 70.27633 30.318588Q69.77633 29.521713 69.77633 28.537338Q69.77633 27.443588 70.385704 26.506088Q70.99508 25.568588 72.18258 25.084213Q73.37008 24.584213 74.80758 24.584213Q76.40133 24.584213 77.62008 25.099838Q78.83883 25.615463 79.479454 26.615463Q80.135704 27.599838 80.18258 28.865463L78.37008 29.006088Q78.229454 27.646713 77.385704 26.959213Q76.541954 26.256088 74.885704 26.256088Q73.166954 26.256088 72.37008 26.896713Q71.58883 27.521713 71.58883 28.396713Q71.58883 29.177963 72.15133 29.677963Q72.698204 30.177963 75.010704 30.693588Q77.323204 31.209213 78.18258 31.599838Q79.43258 32.177963 80.02633 33.06859Q80.62008 33.94359 80.62008 35.09984Q80.62008 36.240463 79.96383 37.25609Q79.30758 38.271713 78.073204 38.834213Q76.854454 39.396713 75.323204 39.396713Q73.385704 39.396713 72.073204 38.834213Q70.760704 38.25609 70.010704 37.115463Q69.260704 35.97484 69.229454 34.552963ZM86.479454 37.56859L86.729454 39.13109Q85.99508 39.28734 85.40133 39.28734Q84.448204 39.28734 83.916954 38.990463Q83.40133 38.677963 83.18258 38.19359Q82.96383 37.69359 82.96383 36.115463L82.96383 30.146713L81.68258 30.146713L81.68258 28.771713L82.96383 28.771713L82.96383 26.209213L84.71383 25.146713L84.71383 28.771713L86.479454 28.771713L86.479454 30.146713L84.71383 30.146713L84.71383 36.209213Q84.71383 36.959213 84.80758 37.177963Q84.90133 37.38109 85.104454 37.521713Q85.323204 37.646713 85.71383 37.646713Q85.99508 37.646713 86.479454 37.56859ZM95.74508 35.802963L97.55758 36.03734Q97.135704 37.615463 95.96383 38.50609Q94.80758 39.38109 92.99508 39.38109Q90.729454 39.38109 89.385704 37.990463Q88.05758 36.584213 88.05758 34.052963Q88.05758 31.427963 89.40133 29.990463Q90.74508 28.537338 92.90133 28.537338Q94.979454 28.537338 96.291954 29.959213Q97.62008 31.365463 97.62008 33.94359Q97.62008 34.09984 97.604454 34.41234L89.87008 34.41234Q89.96383 36.115463 90.83883 37.021713Q91.71383 37.927963 93.010704 37.927963Q93.979454 37.927963 94.65133 37.427963Q95.33883 36.91234 95.74508 35.802963ZM89.96383 32.959213L95.760704 32.959213Q95.65133 31.662338 95.104454 31.006088Q94.260704 29.990463 92.916954 29.990463Q91.71383 29.990463 90.885704 30.802963Q90.05758 31.599838 89.96383 32.959213ZM99.635704 43.115463L99.635704 28.771713L101.24508 28.771713L101.24508 30.115463Q101.80758 29.334213 102.510704 28.943588Q103.229454 28.537338 104.24508 28.537338Q105.573204 28.537338 106.58883 29.224838Q107.604454 29.912338 108.12008 31.162338Q108.65133 32.396713 108.65133 33.88109Q108.65133 35.47484 108.073204 36.75609Q107.510704 38.021713 106.416954 38.709213Q105.323204 39.38109 104.12008 39.38109Q103.24508 39.38109 102.541954 39.00609Q101.854454 38.63109 101.40133 38.06859L101.40133 43.115463L99.635704 43.115463ZM101.229454 34.021713Q101.229454 36.021713 102.041954 36.97484Q102.854454 37.927963 104.010704 37.927963Q105.18258 37.927963 106.010704 36.94359Q106.854454 35.959213 106.854454 33.865463Q106.854454 31.896713 106.02633 30.912338Q105.21383 29.912338 104.08883 29.912338Q102.96383 29.912338 102.08883 30.974838Q101.229454 32.021713 101.229454 34.021713ZM109.93258 36.052963L111.68258 35.771713Q111.823204 36.81859 112.49508 37.38109Q113.166954 37.927963 114.37008 37.927963Q115.573204 37.927963 116.15133 37.44359Q116.74508 36.94359 116.74508 36.28734Q116.74508 35.69359 116.229454 35.34984Q115.87008 35.115463 114.43258 34.75609Q112.49508 34.25609 111.74508 33.91234Q111.010704 33.552963 110.62008 32.927963Q110.229454 32.28734 110.229454 31.521713Q110.229454 30.834213 110.541954 30.240463Q110.87008 29.646713 111.416954 29.256088Q111.823204 28.959213 112.52633 28.756088Q113.24508 28.537338 114.05758 28.537338Q115.27633 28.537338 116.198204 28.896713Q117.12008 29.240463 117.55758 29.849838Q117.99508 30.443588 118.166954 31.443588L116.448204 31.677963Q116.323204 30.881088 115.760704 30.443588Q115.198204 29.990463 114.18258 29.990463Q112.96383 29.990463 112.448204 30.396713Q111.93258 30.787338 111.93258 31.318588Q111.93258 31.662338 112.15133 31.943588Q112.354454 32.22484 112.823204 32.41234Q113.08883 32.50609 114.37008 32.84984Q116.24508 33.34984 116.979454 33.677963Q117.71383 33.990463 118.135704 34.59984Q118.55758 35.19359 118.55758 36.09984Q118.55758 36.97484 118.041954 37.75609Q117.52633 38.53734 116.55758 38.959213Q115.58883 39.38109 114.37008 39.38109Q112.354454 39.38109 111.291954 38.53734Q110.229454 37.69359 109.93258 36.052963ZM126.635704 43.115463L126.635704 28.771713L128.24509 28.771713L128.24509 30.115463Q128.80759 29.334213 129.51071 28.943588Q130.22946 28.537338 131.24509 28.537338Q132.57321 28.537338 133.58884 29.224838Q134.60446 29.912338 135.12009 31.162338Q135.65134 32.396713 135.65134 33.88109Q135.65134 35.47484 135.07321 36.75609Q134.51071 38.021713 133.41696 38.709213Q132.32321 39.38109 131.12009 39.38109Q130.24509 39.38109 129.54196 39.00609Q128.85446 38.63109 128.40134 38.06859L128.40134 43.115463L126.635704 43.115463ZM128.22946 34.021713Q128.22946 36.021713 129.04196 36.97484Q129.85446 37.927963 131.01071 37.927963Q132.18259 37.927963 133.01071 36.94359Q133.85446 35.959213 133.85446 33.865463Q133.85446 31.896713 133.02634 30.912338Q132.21384 29.912338 131.08884 29.912338Q129.96384 29.912338 129.08884 30.974838Q128.22946 32.021713 128.22946 34.021713ZM144.74509 35.802963L146.55759 36.03734Q146.13571 37.615463 144.96384 38.50609Q143.80759 39.38109 141.99509 39.38109Q139.72946 39.38109 138.38571 37.990463Q137.05759 36.584213 137.05759 34.052963Q137.05759 31.427963 138.40134 29.990463Q139.74509 28.537338 141.90134 28.537338Q143.97946 28.537338 145.29196 29.959213Q146.62009 31.365463 146.62009 33.94359Q146.62009 34.09984 146.60446 34.41234L138.87009 34.41234Q138.96384 36.115463 139.83884 37.021713Q140.71384 37.927963 142.01071 37.927963Q142.97946 37.927963 143.65134 37.427963Q144.33884 36.91234 144.74509 35.802963ZM138.96384 32.959213L144.76071 32.959213Q144.65134 31.662338 144.10446 31.006088Q143.26071 29.990463 141.91696 29.990463Q140.71384 29.990463 139.88571 30.802963Q139.05759 31.599838 138.96384 32.959213ZM148.62009 39.146713L148.62009 28.771713L150.19821 28.771713L150.19821 30.349838Q150.80759 29.240463 151.32321 28.896713Q151.83884 28.537338 152.44821 28.537338Q153.33884 28.537338 154.26071 29.099838L153.65134 30.740463Q153.01071 30.349838 152.37009 30.349838Q151.79196 30.349838 151.32321 30.709213Q150.87009 31.052963 150.66696 31.662338Q150.38571 32.59984 150.38571 33.709213L150.38571 39.146713L148.62009 39.146713ZM160.93259 36.052963L162.68259 35.771713Q162.82321 36.81859 163.49509 37.38109Q164.16696 37.927963 165.37009 37.927963Q166.57321 37.927963 167.15134 37.44359Q167.74509 36.94359 167.74509 36.28734Q167.74509 35.69359 167.22946 35.34984Q166.87009 35.115463 165.43259 34.75609Q163.49509 34.25609 162.74509 33.91234Q162.01071 33.552963 161.62009 32.927963Q161.22946 32.28734 161.22946 31.521713Q161.22946 30.834213 161.54196 30.240463Q161.87009 29.646713 162.41696 29.256088Q162.82321 28.959213 163.52634 28.756088Q164.24509 28.537338 165.05759 28.537338Q166.27634 28.537338 167.19821 28.896713Q168.12009 29.240463 168.55759 29.849838Q168.99509 30.443588 169.16696 31.443588L167.44821 31.677963Q167.32321 30.881088 166.76071 30.443588Q166.19821 29.990463 165.18259 29.990463Q163.96384 29.990463 163.44821 30.396713Q162.93259 30.787338 162.93259 31.318588Q162.93259 31.662338 163.15134 31.943588Q163.35446 32.22484 163.82321 32.41234Q164.08884 32.50609 165.37009 32.84984Q167.24509 33.34984 167.97946 33.677963Q168.71384 33.990463 169.13571 34.59984Q169.55759 35.19359 169.55759 36.09984Q169.55759 36.97484 169.04196 37.75609Q168.52634 38.53734 167.55759 38.959213Q166.58884 39.38109 165.37009 39.38109Q163.35446 39.38109 162.29196 38.53734Q161.22946 37.69359 160.93259 36.052963ZM178.74509 35.802963L180.55759 36.03734Q180.13571 37.615463 178.96384 38.50609Q177.80759 39.38109 175.99509 39.38109Q173.72946 39.38109 172.38571 37.990463Q171.05759 36.584213 171.05759 34.052963Q171.05759 31.427963 172.40134 29.990463Q173.74509 28.537338 175.90134 28.537338Q177.97946 28.537338 179.29196 29.959213Q180.62009 31.365463 180.62009 33.94359Q180.62009 34.09984 180.60446 34.41234L172.87009 34.41234Q172.96384 36.115463 173.83884 37.021713Q174.71384 37.927963 176.01071 37.927963Q176.97946 37.927963 177.65134 37.427963Q178.33884 36.91234 178.74509 35.802963ZM172.96384 32.959213L178.76071 32.959213Q178.65134 31.662338 178.10446 31.006088Q177.26071 29.990463 175.91696 29.990463Q174.71384 29.990463 173.88571 30.802963Q173.05759 31.599838 172.96384 32.959213ZM189.41696 35.34984L191.13571 35.56859Q190.85446 37.365463 189.68259 38.38109Q188.52634 39.38109 186.82321 39.38109Q184.69821 39.38109 183.40134 37.990463Q182.10446 36.59984 182.10446 34.00609Q182.10446 32.31859 182.65134 31.068588Q183.21384 29.802963 184.35446 29.177963Q185.49509 28.537338 186.83884 28.537338Q188.52634 28.537338 189.58884 29.396713Q190.66696 30.256088 190.97946 31.818588L189.26071 32.084213Q189.02634 31.037338 188.40134 30.521713Q187.77634 29.990463 186.90134 29.990463Q185.57321 29.990463 184.74509 30.943588Q183.91696 31.896713 183.91696 33.94359Q183.91696 36.03734 184.71384 36.990463Q185.51071 37.927963 186.80759 37.927963Q187.83884 37.927963 188.52634 37.302963Q189.22946 36.66234 189.41696 35.34984ZM191.99509 33.959213Q191.99509 31.084213 193.58884 29.693588Q194.93259 28.537338 196.85446 28.537338Q198.99509 28.537338 200.33884 29.943588Q201.69821 31.349838 201.69821 33.81859Q201.69821 35.81859 201.10446 36.97484Q200.51071 38.115463 199.35446 38.75609Q198.21384 39.38109 196.85446 39.38109Q194.66696 39.38109 193.32321 37.990463Q191.99509 36.584213 191.99509 33.959213ZM193.79196 33.959213Q193.79196 35.959213 194.65134 36.94359Q195.52634 37.927963 196.85446 37.927963Q198.16696 37.927963 199.02634 36.94359Q199.90134 35.94359 199.90134 33.896713Q199.90134 31.974838 199.02634 30.990463Q198.15134 29.990463 196.85446 29.990463Q195.52634 29.990463 194.65134 30.990463Q193.79196 31.974838 193.79196 33.959213ZM203.63571 39.146713L203.63571 28.771713L205.22946 28.771713L205.22946 30.256088Q206.37009 28.537338 208.52634 28.537338Q209.46384 28.537338 210.24509 28.881088Q211.04196 29.209213 211.43259 29.756088Q211.82321 30.302963 211.97946 31.052963Q212.07321 31.552963 212.07321 32.771713L212.07321 39.146713L210.30759 39.146713L210.30759 32.834213Q210.30759 31.756088 210.10446 31.224838Q209.90134 30.693588 209.37009 30.381088Q208.85446 30.068588 208.15134 30.068588Q207.02634 30.068588 206.21384 30.787338Q205.40134 31.490463 205.40134 33.47484L205.40134 39.146713L203.63571 39.146713ZM220.37009 39.146713L220.37009 37.834213Q219.38571 39.38109 217.46384 39.38109Q216.22946 39.38109 215.18259 38.69359Q214.15134 38.00609 213.57321 36.78734Q213.01071 35.56859 213.01071 33.97484Q213.01071 32.41234 213.52634 31.146713Q214.04196 29.881088 215.07321 29.209213Q216.12009 28.537338 217.38571 28.537338Q218.32321 28.537338 219.05759 28.943588Q219.79196 29.334213 220.26071 29.959213L220.26071 24.834213L221.99509 24.834213L221.99509 39.146713L220.37009 39.146713ZM214.80759 33.97484Q214.80759 35.959213 215.65134 36.94359Q216.49509 37.927963 217.63571 37.927963Q218.79196 37.927963 219.58884 36.990463Q220.40134 36.052963 220.40134 34.115463Q220.40134 31.990463 219.57321 30.990463Q218.76071 29.990463 217.55759 29.990463Q216.38571 29.990463 215.58884 30.959213Q214.80759 31.912338 214.80759 33.97484ZM225.13571 30.771713L225.13571 28.771713L227.13571 28.771713L227.13571 30.771713L225.13571 30.771713ZM225.13571 39.146713L225.13571 37.146713L227.13571 37.146713L227.13571 39.146713L225.13571 39.146713ZM243.41696 35.34984L245.13571 35.56859Q244.85446 37.365463 243.68259 38.38109Q242.52634 39.38109 240.82321 39.38109Q238.69821 39.38109 237.40134 37.990463Q236.10446 36.59984 236.10446 34.00609Q236.10446 32.31859 236.65134 31.068588Q237.21384 29.802963 238.35446 29.177963Q239.49509 28.537338 240.83884 28.537338Q242.52634 28.537338 243.58884 29.396713Q244.66696 30.256088 244.97946 31.818588L243.26071 32.084213Q243.02634 31.037338 242.40134 30.521713Q241.77634 29.990463 240.90134 29.990463Q239.57321 29.990463 238.74509 30.943588Q237.91696 31.896713 237.91696 33.94359Q237.91696 36.03734 238.71384 36.990463Q239.51071 37.927963 240.80759 37.927963Q241.83884 37.927963 242.52634 37.302963Q243.22946 36.66234 243.41696 35.34984ZM245.99509 33.959213Q245.99509 31.084213 247.58884 29.693588Q248.93259 28.537338 250.85446 28.537338Q252.99509 28.537338 254.33884 29.943588Q255.69821 31.349838 255.69821 33.81859Q255.69821 35.81859 255.10446 36.97484Q254.51071 38.115463 253.35446 38.75609Q252.21384 39.38109 250.85446 39.38109Q248.66696 39.38109 247.32321 37.990463Q245.99509 36.584213 245.99509 33.959213ZM247.79196 33.959213Q247.79196 35.959213 248.65134 36.94359Q249.52634 37.927963 250.85446 37.927963Q252.16696 37.927963 253.02634 36.94359Q253.90134 35.94359 253.90134 33.896713Q253.90134 31.974838 253.02634 30.990463Q252.15134 29.990463 250.85446 29.990463Q249.52634 29.990463 248.65134 30.990463Q247.79196 31.974838 247.79196 33.959213ZM257.6357 39.146713L257.6357 28.771713L259.21384 28.771713L259.21384 30.224838Q259.6982 29.474838 260.5107 29.006088Q261.3232 28.537338 262.35446 28.537338Q263.5107 28.537338 264.2451 29.021713Q264.97946 29.490463 265.29196 30.349838Q266.52634 28.537338 268.4951 28.537338Q270.04196 28.537338 270.8701 29.396713Q271.6982 30.256088 271.6982 32.021713L271.6982 39.146713L269.9482 39.146713L269.9482 32.615463Q269.9482 31.552963 269.77634 31.099838Q269.60446 30.631088 269.15134 30.349838Q268.71384 30.068588 268.10446 30.068588Q267.0107 30.068588 266.27634 30.802963Q265.5576 31.521713 265.5576 33.115463L265.5576 39.146713L263.8076 39.146713L263.8076 32.41234Q263.8076 31.240463 263.3701 30.662338Q262.9482 30.068588 261.96384 30.068588Q261.22946 30.068588 260.58884 30.459213Q259.96384 30.849838 259.6826 31.599838Q259.40134 32.34984 259.40134 33.771713L259.40134 39.146713L257.6357 39.146713ZM273.6357 43.115463L273.6357 28.771713L275.2451 28.771713L275.2451 30.115463Q275.8076 29.334213 276.5107 28.943588Q277.22946 28.537338 278.2451 28.537338Q279.5732 28.537338 280.58884 29.224838Q281.60446 29.912338 282.1201 31.162338Q282.65134 32.396713 282.65134 33.88109Q282.65134 35.47484 282.0732 36.75609Q281.5107 38.021713 280.41696 38.709213Q279.3232 39.38109 278.1201 39.38109Q277.2451 39.38109 276.54196 39.00609Q275.85446 38.63109 275.40134 38.06859L275.40134 43.115463L273.6357 43.115463ZM275.22946 34.021713Q275.22946 36.021713 276.04196 36.97484Q276.85446 37.927963 278.0107 37.927963Q279.1826 37.927963 280.0107 36.94359Q280.85446 35.959213 280.85446 33.865463Q280.85446 31.896713 280.02634 30.912338Q279.21384 29.912338 278.08884 29.912338Q276.96384 29.912338 276.08884 30.974838Q275.22946 32.021713 275.22946 34.021713ZM291.41696 37.865463Q290.4326 38.69359 289.52634 39.03734Q288.6201 39.38109 287.58884 39.38109Q285.8857 39.38109 284.96384 38.552963Q284.04196 37.709213 284.04196 36.41234Q284.04196 35.646713 284.3857 35.021713Q284.7451 34.396713 285.3076 34.021713Q285.8701 33.63109 286.5732 33.427963Q287.08884 33.302963 288.1357 33.16234Q290.2607 32.91234 291.2607 32.56859Q291.27634 32.209213 291.27634 32.09984Q291.27634 31.037338 290.77634 30.584213Q290.10446 29.990463 288.77634 29.990463Q287.52634 29.990463 286.9326 30.427963Q286.35446 30.865463 286.0732 31.974838L284.35446 31.740463Q284.58884 30.631088 285.1201 29.959213Q285.65134 29.271713 286.66696 28.912338Q287.6826 28.537338 289.02634 28.537338Q290.35446 28.537338 291.1826 28.849838Q292.0107 29.162338 292.40134 29.646713Q292.79196 30.115463 292.9482 30.834213Q293.04196 31.287338 293.04196 32.459213L293.04196 34.802963Q293.04196 37.25609 293.15134 37.91234Q293.2607 38.552963 293.60446 39.146713L291.7607 39.146713Q291.4951 38.59984 291.41696 37.865463ZM291.2607 33.94359Q290.3076 34.334213 288.3857 34.59984Q287.3076 34.75609 286.85446 34.959213Q286.41696 35.146713 286.16696 35.521713Q285.91696 35.896713 285.91696 36.365463Q285.91696 37.06859 286.4482 37.53734Q286.97946 38.00609 288.0107 38.00609Q289.02634 38.00609 289.8076 37.56859Q290.60446 37.115463 290.97946 36.34984Q291.2607 35.740463 291.2607 34.584213L291.2607 33.94359ZM295.6201 39.146713L295.6201 28.771713L297.1982 28.771713L297.1982 30.349838Q297.8076 29.240463 298.3232 28.896713Q298.83884 28.537338 299.4482 28.537338Q300.33884 28.537338 301.2607 29.099838L300.65134 30.740463Q300.0107 30.349838 299.3701 30.349838Q298.79196 30.349838 298.3232 30.709213Q297.8701 31.052963 297.66696 31.662338Q297.3857 32.59984 297.3857 33.709213L297.3857 39.146713L295.6201 39.146713ZM309.7451 35.802963L311.5576 36.03734Q311.1357 37.615463 309.96384 38.50609Q308.8076 39.38109 306.9951 39.38109Q304.72946 39.38109 303.3857 37.990463Q302.0576 36.584213 302.0576 34.052963Q302.0576 31.427963 303.40134 29.990463Q304.7451 28.537338 306.90134 28.537338Q308.97946 28.537338 310.29196 29.959213Q311.6201 31.365463 311.6201 33.94359Q311.6201 34.09984 311.60446 34.41234L303.8701 34.41234Q303.96384 36.115463 304.83884 37.021713Q305.71384 37.927963 307.0107 37.927963Q307.97946 37.927963 308.65134 37.427963Q309.33884 36.91234 309.7451 35.802963ZM303.96384 32.959213L309.7607 32.959213Q309.65134 31.662338 309.10446 31.006088Q308.2607 29.990463 306.91696 29.990463Q305.71384 29.990463 304.8857 30.802963Q304.0576 31.599838 303.96384 32.959213ZM330.08884 34.13109L331.97946 34.59984Q331.3857 36.94359 329.83884 38.177963Q328.29196 39.396713 326.04196 39.396713Q323.72946 39.396713 322.27634 38.459213Q320.83884 37.50609 320.0732 35.72484Q319.3232 33.927963 319.3232 31.881088Q319.3232 29.646713 320.16696 27.990463Q321.02634 26.318588 322.60446 25.459213Q324.1826 24.584213 326.0732 24.584213Q328.22946 24.584213 329.6826 25.677963Q331.15134 26.771713 331.72946 28.756088L329.8701 29.193588Q329.3701 27.631088 328.41696 26.927963Q327.47946 26.209213 326.04196 26.209213Q324.3857 26.209213 323.27634 27.006088Q322.16696 27.787338 321.71384 29.131088Q321.27634 30.459213 321.27634 31.865463Q321.27634 33.69359 321.8076 35.06859Q322.33884 36.427963 323.46384 37.09984Q324.58884 37.771713 325.8857 37.771713Q327.47946 37.771713 328.58884 36.84984Q329.6982 35.927963 330.08884 34.13109ZM333.8701 39.146713L333.8701 24.834213L339.2607 24.834213Q340.6982 24.834213 341.4482 24.959213Q342.4951 25.146713 343.21384 25.646713Q343.9326 26.131088 344.35446 27.021713Q344.79196 27.912338 344.79196 28.974838Q344.79196 30.802963 343.6201 32.06859Q342.46384 33.31859 339.4326 33.31859L335.7607 33.31859L335.7607 39.146713L333.8701 39.146713ZM335.7607 31.631088L339.46384 31.631088Q341.29196 31.631088 342.0576 30.959213Q342.83884 30.271713 342.83884 29.021713Q342.83884 28.131088 342.3857 27.490463Q341.9326 26.849838 341.1982 26.646713Q340.71384 26.521713 339.41696 26.521713L335.7607 26.521713L335.7607 31.631088ZM356.2607 24.834213L358.15134 24.834213L358.15134 33.09984Q358.15134 35.25609 357.66696 36.53734Q357.1826 37.802963 355.90134 38.59984Q354.6357 39.396713 352.5576 39.396713Q350.54196 39.396713 349.2607 38.709213Q347.9951 38.00609 347.4482 36.69359Q346.90134 35.38109 346.90134 33.09984L346.90134 24.834213L348.79196 24.834213L348.79196 33.084213Q348.79196 34.959213 349.1357 35.84984Q349.47946 36.72484 350.3232 37.209213Q351.16696 37.677963 352.40134 37.677963Q354.47946 37.677963 355.3701 36.740463Q356.2607 35.78734 356.2607 33.084213L356.2607 24.834213ZM360.10446 39.146713L360.10446 37.146713L362.10446 37.146713L362.10446 39.146713Q362.10446 40.25609 361.71384 40.927963Q361.3232 41.615463 360.47946 41.97484L359.97946 41.22484Q360.54196 40.990463 360.8076 40.50609Q361.0732 40.03734 361.10446 39.146713L360.10446 39.146713ZM378.5732 33.53734L378.5732 31.849838L384.6357 31.834213L384.6357 37.146713Q383.22946 38.271713 381.7451 38.834213Q380.2607 39.396713 378.6982 39.396713Q376.58884 39.396713 374.8701 38.490463Q373.15134 37.584213 372.2607 35.88109Q371.3857 34.16234 371.3857 32.052963Q371.3857 29.959213 372.2607 28.162338Q373.1357 26.349838 374.77634 25.474838Q376.41696 24.584213 378.5576 24.584213Q380.10446 24.584213 381.35446 25.084213Q382.6201 25.584213 383.3232 26.490463Q384.04196 27.381088 384.41696 28.834213L382.71384 29.302963Q382.3857 28.209213 381.90134 27.584213Q381.4326 26.959213 380.54196 26.584213Q379.65134 26.209213 378.5732 26.209213Q377.2607 26.209213 376.3076 26.599838Q375.3701 26.990463 374.79196 27.646713Q374.21384 28.287338 373.8857 29.052963Q373.33884 30.381088 373.33884 31.943588Q373.33884 33.84984 373.9951 35.146713Q374.66696 36.427963 375.91696 37.052963Q377.1826 37.677963 378.58884 37.677963Q379.8232 37.677963 380.9951 37.209213Q382.16696 36.740463 382.77634 36.19359L382.77634 33.53734L378.5732 33.53734ZM387.8701 39.146713L387.8701 24.834213L393.2607 24.834213Q394.6982 24.834213 395.4482 24.959213Q396.4951 25.146713 397.21384 25.646713Q397.9326 26.131088 398.35446 27.021713Q398.79196 27.912338 398.79196 28.974838Q398.79196 30.802963 397.6201 32.06859Q396.46384 33.31859 393.4326 33.31859L389.7607 33.31859L389.7607 39.146713L387.8701 39.146713ZM389.7607 31.631088L393.46384 31.631088Q395.29196 31.631088 396.0576 30.959213Q396.83884 30.271713 396.83884 29.021713Q396.83884 28.131088 396.3857 27.490463Q395.9326 26.849838 395.1982 26.646713Q394.71384 26.521713 393.41696 26.521713L389.7607 26.521713L389.7607 31.631088ZM410.2607 24.834213L412.15134 24.834213L412.15134 33.09984Q412.15134 35.25609 411.66696 36.53734Q411.1826 37.802963 409.90134 38.59984Q408.6357 39.396713 406.5576 39.396713Q404.54196 39.396713 403.2607 38.709213Q401.9951 38.00609 401.4482 36.69359Q400.90134 35.38109 400.90134 33.09984L400.90134 24.834213L402.79196 24.834213L402.79196 33.084213Q402.79196 34.959213 403.1357 35.84984Q403.47946 36.72484 404.3232 37.209213Q405.16696 37.677963 406.40134 37.677963Q408.47946 37.677963 409.3701 36.740463Q410.2607 35.78734 410.2607 33.084213L410.2607 24.834213ZM414.10446 39.146713L414.10446 37.146713L416.10446 37.146713L416.10446 39.146713Q416.10446 40.25609 415.71384 40.927963Q415.3232 41.615463 414.47946 41.97484L413.97946 41.22484Q414.54196 40.990463 414.8076 40.50609Q415.0732 40.03734 415.10446 39.146713L414.10446 39.146713ZM429.5107 39.146713L429.5107 26.521713L424.79196 26.521713L424.79196 24.834213L436.1357 24.834213L436.1357 26.521713L431.40134 26.521713L431.40134 39.146713L429.5107 39.146713ZM437.8701 39.146713L437.8701 24.834213L443.2607 24.834213Q444.6982 24.834213 445.4482 24.959213Q446.4951 25.146713 447.21384 25.646713Q447.9326 26.131088 448.35446 27.021713Q448.79196 27.912338 448.79196 28.974838Q448.79196 30.802963 447.6201 32.06859Q446.46384 33.31859 443.4326 33.31859L439.7607 33.31859L439.7607 39.146713L437.8701 39.146713ZM439.7607 31.631088L443.46384 31.631088Q445.29196 31.631088 446.0576 30.959213Q446.83884 30.271713 446.83884 29.021713Q446.83884 28.131088 446.3857 27.490463Q445.9326 26.849838 445.1982 26.646713Q444.71384 26.521713 443.41696 26.521713L439.7607 26.521713L439.7607 31.631088ZM460.2607 24.834213L462.15134 24.834213L462.15134 33.09984Q462.15134 35.25609 461.66696 36.53734Q461.1826 37.802963 459.90134 38.59984Q458.6357 39.396713 456.5576 39.396713Q454.54196 39.396713 453.2607 38.709213Q451.9951 38.00609 451.4482 36.69359Q450.90134 35.38109 450.90134 33.09984L450.90134 24.834213L452.79196 24.834213L452.79196 33.084213Q452.79196 34.959213 453.1357 35.84984Q453.47946 36.72484 454.3232 37.209213Q455.16696 37.677963 456.40134 37.677963Q458.47946 37.677963 459.3701 36.740463Q460.2607 35.78734 460.2607 33.084213L460.2607 24.834213Z" fill-rule="nonzero"/></svg>
