<svg version="1.1" viewBox="0.0 0.0 907.0866141732283 415.748031496063" fill="none" stroke="none" stroke-linecap="square" stroke-miterlimit="10" xmlns:xlink="http://www.w3.org/1999/xlink" xmlns="http://www.w3.org/2000/svg"><clipPath id="p.0"><path d="m0 0l907.0866 0l0 415.74802l-907.0866 0l0 -415.74802z" clip-rule="nonzero"/></clipPath><g clip-path="url(#p.0)"><path fill="#000000" fill-opacity="0.0" d="m0 0l907.0866 0l0 415.74802l-907.0866 0z" fill-rule="evenodd"/><path fill="#595959" d="m383.32022 24.755905l37.795258 0l0 321.25983l-37.795258 0z" fill-rule="evenodd"/><path stroke="#595959" stroke-width="4.0" stroke-linejoin="round" stroke-linecap="butt" d="m383.32022 24.755905l37.795258 0l0 321.25983l-37.795258 0z" fill-rule="evenodd"/><path fill="#595959" d="m421.11548 308.22046l0 37.795288l-321.25983 0l0 -37.795288z" fill-rule="evenodd"/><path stroke="#595959" stroke-width="4.0" stroke-linejoin="round" stroke-linecap="butt" d="m421.11548 308.22046l0 37.795288l-321.25983 0l0 -37.795288z" fill-rule="evenodd"/><path fill="#595959" d="m99.855644 24.76903l280.79266 280.6299l40.467163 0l-280.79266 -280.6299z" fill-rule="evenodd"/><path stroke="#595959" stroke-width="4.0" stroke-linejoin="round" stroke-linecap="butt" d="m99.855644 24.76903l280.79266 280.6299l40.467163 0l-280.79266 -280.6299z" fill-rule="evenodd"/><path fill="#595959" d="m379.1942 346.01575l-279.33856 -279.5006l0 -41.759247l279.33856 279.5006z" fill-rule="evenodd"/><path stroke="#595959" stroke-width="4.0" stroke-linejoin="round" stroke-linecap="butt" d="m379.1942 346.01575l-279.33856 -279.5006l0 -41.759247l279.33856 279.5006z" fill-rule="evenodd"/><path fill="#186bff" fill-opacity="0.7468" d="m898.1155 308.22046l0 37.795288l-321.25983 0l0 -37.795288z" fill-rule="evenodd"/><path fill="#00ff00" fill-opacity="0.7595" d="m541.19946 24.779528l282.99915 283.40155l35.583557 0l-282.99915 -283.40155z" fill-rule="evenodd"/><path fill="#000000" fill-opacity="0.0" d="m460.19946 182.39896l78.74017 0" fill-rule="evenodd"/><path stroke="#980000" stroke-width="4.0" stroke-linejoin="round" stroke-linecap="butt" d="m460.19946 182.39896l65.03186 0" fill-rule="evenodd"/><path fill="#980000" stroke="#980000" stroke-width="4.0" stroke-linecap="butt" d="m525.23126 182.39896l-4.498291 4.4983215l12.35907 -4.4983215l-12.35907 -4.498337z" fill-rule="evenodd"/><path fill="#000000" fill-opacity="0.0" d="m420.67453 345.47244l-319.74802 -319.71655" fill-rule="evenodd"/><path stroke="#f1c232" stroke-width="3.0" stroke-linejoin="round" stroke-linecap="butt" d="m420.67453 345.47244l-319.74802 -319.71655" fill-rule="evenodd"/><path fill="#000000" fill-opacity="0.0" d="m-0.49868765 33.519684l81.22835 0l0 22.614174l-81.22835 0z" fill-rule="evenodd"/><path fill="#980000" d="m13.584221 51.439682l0 -9.25l1.71875 0l0.171875 1.375l0.09375 0q0.375 -0.671875 1.15625 -1.140625q0.78125 -0.46875 1.8125 -0.46875q1.6875 0 2.546875 1.03125q0.859375 1.03125 0.859375 3.03125l0 5.421875l-1.984375 0l0 -5.1875q0 -1.15625 -0.484375 -1.78125q-0.484375 -0.640625 -1.515625 -0.640625q-1.03125 0 -1.71875 0.6875q-0.671875 0.6875 -0.671875 2.0l0 4.921875l-1.984375 0zm15.834381 0.21875q-1.015625 0 -1.71875 -0.40625q-0.703125 -0.421875 -1.078125 -1.171875l-0.109375 0l-0.171875 1.359375l-1.6875 0l0 -13.4375l1.96875 0l0 5.375q0.34375 -0.5625 1.0625 -0.984375q0.734375 -0.4375 1.734375 -0.4375q1.15625 0 2.0625 0.5625q0.921875 0.546875 1.453125 1.625q0.546875 1.078125 0.546875 2.671875q0 1.578125 -0.546875 2.671875q-0.53125 1.078125 -1.453125 1.625q-0.90625 0.546875 -2.0625 0.546875zm-0.40625 -1.875q1.0625 0 1.765625 -0.734375q0.703125 -0.75 0.703125 -2.21875q0 -1.484375 -0.703125 -2.234375q-0.703125 -0.75 -1.765625 -0.75q-1.0625 0 -1.765625 0.734375q-0.6875 0.734375 -0.6875 2.234375q0 1.46875 0.6875 2.21875q0.703125 0.75 1.765625 0.75zm10.256256 1.875q-1.09375 0 -1.84375 -0.375q-0.734375 -0.390625 -1.109375 -1.03125q-0.375 -0.640625 -0.375 -1.40625q0 -1.359375 1.0 -2.125q1.0 -0.765625 2.828125 -0.765625l2.375 0l0 -0.203125q0 -2.09375 -1.9375 -2.09375q-0.796875 0 -1.359375 0.34375q-0.546875 0.34375 -0.734375 1.109375l-1.96875 0q0.140625 -1.453125 1.25 -2.296875q1.125 -0.859375 2.8125 -0.859375q2.0625 0 2.984375 1.015625q0.9375 1.0 0.9375 2.78125l0 5.6875l-1.6875 0l-0.15625 -1.359375l-0.140625 0q-0.40625 0.65625 -1.03125 1.125q-0.609375 0.453125 -1.84375 0.453125zm0.375 -1.65625q1.21875 0 1.828125 -0.734375q0.609375 -0.734375 0.65625 -1.875l-2.15625 0q-1.0625 0 -1.515625 0.34375q-0.4375 0.34375 -0.4375 0.953125q0 0.625 0.4375 0.96875q0.453125 0.34375 1.1875 0.34375zm7.521881 1.4375l0 -9.25l1.71875 0l0.171875 1.375l0.09375 0q0.375 -0.671875 1.15625 -1.140625q0.78125 -0.46875 1.8125 -0.46875q1.6875 0 2.546875 1.03125q0.859375 1.03125 0.859375 3.03125l0 5.421875l-1.984375 0l0 -5.1875q0 -1.15625 -0.484375 -1.78125q-0.484375 -0.640625 -1.515625 -0.640625q-1.03125 0 -1.71875 0.6875q-0.671875 0.6875 -0.671875 2.0l0 4.921875l-1.984375 0zm14.834381 0.21875q-1.15625 0 -2.078125 -0.546875q-0.90625 -0.546875 -1.4375 -1.625q-0.53125 -1.09375 -0.53125 -2.671875q0 -1.59375 0.53125 -2.671875q0.546875 -1.078125 1.46875 -1.625q0.921875 -0.5625 2.0625 -0.5625q1.0625 0 1.75 0.40625q0.703125 0.40625 1.03125 1.015625l0 -5.375l1.984375 0l0 13.4375l-1.703125 0l-0.171875 -1.359375l-0.109375 0q-0.375 0.71875 -1.0625 1.15625q-0.671875 0.421875 -1.734375 0.421875zm0.40625 -1.875q1.0625 0 1.765625 -0.75q0.703125 -0.75 0.703125 -2.21875q0 -1.5 -0.703125 -2.234375q-0.703125 -0.734375 -1.765625 -0.734375q-1.0625 0 -1.765625 0.75q-0.6875 0.75 -0.6875 2.234375q0 1.46875 0.6875 2.21875q0.703125 0.734375 1.765625 0.734375z" fill-rule="nonzero"/><path fill="#000000" fill-opacity="0.0" d="m93.33071 346.27298c-4.1747513 0 -7.559059 -3.3843079 -7.559059 -7.559082l0 -4.2093506c0 -4.1747437 -3.3843002 -7.5590515 -7.5590515 -7.5590515l0 0c4.1747513 0 7.5590515 -3.3843079 7.5590515 -7.5590515l0 -4.2001038l0 0c0 -4.1747437 3.3843079 -7.5590515 7.559059 -7.5590515z" fill-rule="evenodd"/><path fill="#000000" fill-opacity="0.0" d="m93.33071 346.27298c-4.1747513 0 -7.559059 -3.3843079 -7.559059 -7.559082l0 -4.2093506c0 -4.1747437 -3.3843002 -7.5590515 -7.5590515 -7.5590515l0 0c4.1747513 0 7.5590515 -3.3843079 7.5590515 -7.5590515l0 -4.2001038l0 0c0 -4.1747437 3.3843079 -7.5590515 7.559059 -7.5590515" fill-rule="evenodd"/><path stroke="#980000" stroke-width="2.0" stroke-linejoin="round" stroke-linecap="butt" d="m93.33071 346.27298c-4.1747513 0 -7.559059 -3.3843079 -7.559059 -7.559082l0 -4.2093506c0 -4.1747437 -3.3843002 -7.5590515 -7.5590515 -7.5590515l0 0c4.1747513 0 7.5590515 -3.3843079 7.5590515 -7.5590515l0 -4.2001038l0 0c0 -4.1747437 3.3843079 -7.5590515 7.559059 -7.5590515" fill-rule="evenodd"/><path fill="#000000" fill-opacity="0.0" d="m-3.015748 313.65353l81.22835 0l0 22.614197l-81.22835 0z" fill-rule="evenodd"/><path fill="#980000" d="m5.4702826 331.57355l0 -9.25l1.71875 0l0.171875 1.375l0.09375 0q0.375 -0.671875 1.15625 -1.140625q0.78125 -0.46875 1.8125 -0.46875q1.6875 0 2.546875 1.03125q0.859375 1.03125 0.859375 3.03125l0 5.421875l-1.984375 0l0 -5.1875q0 -1.15625 -0.484375 -1.78125q-0.484375 -0.640625 -1.515625 -0.640625q-1.03125 0 -1.71875 0.6875q-0.671875 0.6875 -0.671875 2.0l0 4.921875l-1.984375 0zm14.83438 0.21875q-1.15625 0 -2.078125 -0.546875q-0.90625 -0.546875 -1.4375 -1.625q-0.53125 -1.09375 -0.53125 -2.671875q0 -1.59375 0.53125 -2.671875q0.546875 -1.078125 1.46875 -1.625q0.921875 -0.5625 2.0625 -0.5625q1.0625 0 1.75 0.40625q0.703125 0.40625 1.03125 1.015625l0 -5.375l1.984375 0l0 13.4375l-1.703125 0l-0.171875 -1.359375l-0.109375 0q-0.375 0.71875 -1.0625 1.15625q-0.671875 0.421875 -1.734375 0.421875zm0.40625 -1.875q1.0625 0 1.765625 -0.75q0.703125 -0.75 0.703125 -2.21875q0 -1.5 -0.703125 -2.234375q-0.703125 -0.734375 -1.765625 -0.734375q-1.0625 0 -1.765625 0.75q-0.6875 0.75 -0.6875 2.234375q0 1.46875 0.6875 2.21875q0.703125 0.734375 1.765625 0.734375zm11.396883 1.875q-1.3437519 0 -2.375002 -0.59375q-1.015625 -0.609375 -1.59375 -1.6875q-0.578125 -1.09375 -0.578125 -2.53125q0 -1.453125 0.5625 -2.546875q0.578125 -1.109375 1.609375 -1.71875q1.03125 -0.625 2.406252 -0.625q1.34375 0 2.3125 0.609375q0.96875 0.609375 1.5 1.625q0.53125 1.0 0.53125 2.21875q0 0.1875 0 0.40625q0 0.203125 -0.015625 0.46875l-6.968752 0q0.09375 1.28125 0.84375 1.953125q0.75 0.65625 1.7500019 0.65625q0.875 0 1.390625 -0.359375q0.515625 -0.375 0.75 -1.0l2.0 0q-0.328125 1.328125 -1.390625 2.234375q-1.0625 0.890625 -2.734375 0.890625zm0 -7.984375q-0.9062519 0 -1.6250019 0.5625q-0.703125 0.546875 -0.90625 1.53125l4.921877 0q-0.078125 -0.9375 -0.734375 -1.515625q-0.640625 -0.578125 -1.65625 -0.578125zm6.943756 7.765625l0 -9.25l1.71875 0l0.171875 1.375l0.09375 0q0.375 -0.671875 1.15625 -1.140625q0.78125 -0.46875 1.8125 -0.46875q1.6875 0 2.546875 1.03125q0.859375 1.03125 0.859375 3.03125l0 5.421875l-1.984375 0l0 -5.1875q0 -1.15625 -0.484375 -1.78125q-0.484375 -0.640625 -1.515625 -0.640625q-1.03125 0 -1.71875 0.6875q-0.671875 0.6875 -0.671875 2.0l0 4.921875l-1.984375 0zm15.412506 0.21875q-1.828125 0 -2.921875 -0.859375q-1.078125 -0.859375 -1.21875 -2.265625l2.03125 0q0.109375 0.65625 0.65625 1.0625q0.5625 0.40625 1.46875 0.40625q0.875 0 1.34375 -0.359375q0.484375 -0.375 0.484375 -0.859375q0 -0.703125 -0.578125 -0.953125q-0.5625 -0.265625 -1.65625 -0.40625q-0.953125 -0.109375 -1.734375 -0.4375q-0.765625 -0.328125 -1.21875 -0.890625q-0.4375 -0.5625 -0.4375 -1.421875q0 -1.21875 0.9375 -1.96875q0.953125 -0.75 2.65625 -0.75q1.703125 0 2.625 0.765625q0.9375 0.765625 1.09375 2.09375l-1.90625 0q-0.078125 -0.5625 -0.578125 -0.875q-0.5 -0.328125 -1.25 -0.328125q-0.765625 0 -1.21875 0.296875q-0.4375 0.28125 -0.4375 0.734375q0 1.015625 2.15625 1.234375q1.03125 0.109375 1.828125 0.390625q0.796875 0.265625 1.265625 0.84375q0.46875 0.5625 0.46875 1.578125q0.015625 0.84375 -0.484375 1.515625q-0.484375 0.671875 -1.359375 1.0625q-0.859375 0.390625 -2.015625 0.390625zm11.225006 0q-1.34375 0 -2.375 -0.59375q-1.015625 -0.609375 -1.59375 -1.6875q-0.578125 -1.09375 -0.578125 -2.53125q0 -1.453125 0.5625 -2.546875q0.578125 -1.109375 1.609375 -1.71875q1.03125 -0.625 2.40625 -0.625q1.34375 0 2.3125 0.609375q0.96875 0.609375 1.5 1.625q0.53125 1.0 0.53125 2.21875q0 0.1875 0 0.40625q0 0.203125 -0.015625 0.46875l-6.96875 0q0.09375 1.28125 0.84375 1.953125q0.75 0.65625 1.75 0.65625q0.875 0 1.390625 -0.359375q0.515625 -0.375 0.75 -1.0l2.0 0q-0.328125 1.328125 -1.390625 2.234375q-1.0625 0.890625 -2.734375 0.890625zm0 -7.984375q-0.90625 0 -1.625 0.5625q-0.703125 0.546875 -0.90625 1.53125l4.921875 0q-0.078125 -0.9375 -0.734375 -1.515625q-0.640625 -0.578125 -1.65625 -0.578125z" fill-rule="nonzero"/><path fill="#000000" fill-opacity="0.0" d="m100.18898 355.25723c0 6.9927063 5.668709 12.661407 12.661415 12.661407l135.21964 0c6.9927063 0 12.661423 5.668701 12.661423 12.661407l0 0c0 -6.9927063 5.668701 -12.661407 12.661407 -12.661407l135.14258 0l0 0c6.9927063 0 12.661407 -5.668701 12.661407 -12.661407z" fill-rule="evenodd"/><path fill="#000000" fill-opacity="0.0" d="m100.18898 355.25723c0 6.9927063 5.668709 12.661407 12.661415 12.661407l135.21964 0c6.9927063 0 12.661423 5.668701 12.661423 12.661407l0 0c0 -6.9927063 5.668701 -12.661407 12.661407 -12.661407l135.14258 0l0 0c6.9927063 0 12.661407 -5.668701 12.661407 -12.661407" fill-rule="evenodd"/><path stroke="#980000" stroke-width="2.0" stroke-linejoin="round" stroke-linecap="butt" d="m100.18898 355.25723c0 6.9927063 5.668709 12.661407 12.661415 12.661407l135.21964 0c6.9927063 0 12.661423 5.668701 12.661423 12.661407l0 0c0 -6.9927063 5.668701 -12.661407 12.661407 -12.661407l135.14258 0l0 0c6.9927063 0 12.661407 -5.668701 12.661407 -12.661407" fill-rule="evenodd"/><path fill="#000000" fill-opacity="0.0" d="m219.48032 381.71652l81.22833 0l0 22.614197l-81.22833 0z" fill-rule="evenodd"/><path fill="#980000" d="m227.96634 399.63654l0 -9.25l1.71875 0l0.171875 1.375l0.09375 0q0.375 -0.671875 1.15625 -1.140625q0.78125 -0.46875 1.8125 -0.46875q1.6875 0 2.546875 1.03125q0.859375 1.03125 0.859375 3.03125l0 5.421875l-1.984375 0l0 -5.1875q0 -1.15625 -0.484375 -1.78125q-0.484375 -0.640625 -1.515625 -0.640625q-1.03125 0 -1.71875 0.6875q-0.671875 0.6875 -0.671875 2.0l0 4.921875l-1.984375 0zm16.350006 0q-1.359375 0 -2.171875 -0.65625q-0.796875 -0.671875 -0.796875 -2.359375l0 -4.5625l-2.328125 0l0 -1.671875l1.375 0q0.953125 0 1.125 -0.9375l0.265625 -1.484375l1.53125 0l0 2.421875l3.65625 0l0 1.671875l-3.65625 0l0 4.515625q0 0.734375 0.328125 1.03125q0.328125 0.28125 1.140625 0.28125l2.15625 0l0 1.75l-2.625 0zm10.178131 0.21875q-1.328125 0 -2.375 -0.59375q-1.03125 -0.59375 -1.640625 -1.6875q-0.59375 -1.09375 -0.59375 -2.5625q0 -1.46875 0.59375 -2.5625q0.609375 -1.09375 1.640625 -1.6875q1.046875 -0.609375 2.390625 -0.609375q1.34375 0 2.375 0.609375q1.046875 0.59375 1.625 1.6875q0.59375 1.09375 0.59375 2.5625q0 1.46875 -0.59375 2.5625q-0.59375 1.09375 -1.640625 1.6875q-1.03125 0.59375 -2.375 0.59375zm0 -1.875q0.71875 0 1.3125 -0.3125q0.59375 -0.328125 0.953125 -0.984375q0.375 -0.671875 0.375 -1.671875q0 -1.03125 -0.375 -1.671875q-0.359375 -0.65625 -0.953125 -0.96875q-0.578125 -0.328125 -1.296875 -0.328125q-0.703125 0 -1.296875 0.328125q-0.59375 0.3125 -0.96875 0.96875q-0.359375 0.640625 -0.359375 1.671875q0 1.53125 0.765625 2.25q0.78125 0.71875 1.84375 0.71875zm12.209381 1.65625q-1.359375 0 -2.171875 -0.65625q-0.796875 -0.671875 -0.796875 -2.359375l0 -4.5625l-2.328125 0l0 -1.671875l1.375 0q0.953125 0 1.125 -0.9375l0.265625 -1.484375l1.53125 0l0 2.421875l3.65625 0l0 1.671875l-3.65625 0l0 4.515625q0 0.734375 0.328125 1.03125q0.328125 0.28125 1.140625 0.28125l2.15625 0l0 1.75l-2.625 0zm9.334381 0.21875q-1.09375 0 -1.84375 -0.375q-0.734375 -0.390625 -1.109375 -1.03125q-0.375 -0.640625 -0.375 -1.40625q0 -1.359375 1.0 -2.125q1.0 -0.765625 2.828125 -0.765625l2.375 0l0 -0.203125q0 -2.09375 -1.9375 -2.09375q-0.796875 0 -1.359375 0.34375q-0.546875 0.34375 -0.734375 1.109375l-1.96875 0q0.140625 -1.453125 1.25 -2.296875q1.125 -0.859375 2.8125 -0.859375q2.0625 0 2.984375 1.015625q0.9375 1.0 0.9375 2.78125l0 5.6875l-1.6875 0l-0.15625 -1.359375l-0.140625 0q-0.40625 0.65625 -1.03125 1.125q-0.609375 0.453125 -1.84375 0.453125zm0.375 -1.65625q1.21875 0 1.828125 -0.734375q0.609375 -0.734375 0.65625 -1.875l-2.15625 0q-1.0625 0 -1.515625 0.34375q-0.4375 0.34375 -0.4375 0.953125q0 0.625 0.4375 0.96875q0.453125 0.34375 1.1875 0.34375zm7.334381 1.4375l0 -1.71875l3.09375 0l0 -9.375q0 -0.625 -0.59375 -0.625l-2.234375 0l0 -1.71875l2.59375 0q1.078125 0 1.640625 0.578125q0.578125 0.5625 0.578125 1.640625l0 9.5l3.109375 0l0 1.71875l-8.1875 0z" fill-rule="nonzero"/><path fill="#000000" fill-opacity="0.0" d="m93.33071 68.07612c-4.1747513 0 -7.559059 -3.3843079 -7.559059 -7.559059l0 -6.1468353c0 -4.1747475 -3.3843002 -7.5590515 -7.5590515 -7.5590515l0 0c4.1747513 0 7.5590515 -3.3843079 7.5590515 -7.5590553l0 -6.136631l0 0c0 -4.1747513 3.3843079 -7.5590553 7.559059 -7.5590553z" fill-rule="evenodd"/><path fill="#000000" fill-opacity="0.0" d="m93.33071 68.07612c-4.1747513 0 -7.559059 -3.3843079 -7.559059 -7.559059l0 -6.1468353c0 -4.1747475 -3.3843002 -7.5590515 -7.5590515 -7.5590515l0 0c4.1747513 0 7.5590515 -3.3843079 7.5590515 -7.5590553l0 -6.136631l0 0c0 -4.1747513 3.3843079 -7.5590553 7.559059 -7.5590553" fill-rule="evenodd"/><path stroke="#980000" stroke-width="2.0" stroke-linejoin="round" stroke-linecap="butt" d="m93.33071 68.07612c-4.1747513 0 -7.559059 -3.3843079 -7.559059 -7.559059l0 -6.1468353c0 -4.1747475 -3.3843002 -7.5590515 -7.5590515 -7.5590515l0 0c4.1747513 0 7.5590515 -3.3843079 7.5590515 -7.5590553l0 -6.136631l0 0c0 -4.1747513 3.3843079 -7.5590553 7.559059 -7.5590553" fill-rule="evenodd"/><path fill="#000000" fill-opacity="0.0" d="m99.779526 24.937008l321.25983 0l0 321.25983l-321.25983 0z" fill-rule="evenodd"/><path stroke="#980000" stroke-width="4.0" stroke-linejoin="round" stroke-linecap="butt" d="m99.779526 24.937008l321.25983 0l0 321.25983l-321.25983 0z" fill-rule="evenodd"/><path fill="#000000" fill-opacity="0.0" d="m896.6037 345.47244l-319.74805 -319.71655" fill-rule="evenodd"/><path stroke="#ffd966" stroke-width="3.0" stroke-linejoin="round" stroke-linecap="butt" d="m896.6037 345.47244l-319.74805 -319.71655" fill-rule="evenodd"/><path fill="#000000" fill-opacity="0.0" d="m576.85565 24.984251l321.25983 0l0 321.25983l-321.25983 0z" fill-rule="evenodd"/><path stroke="#980000" stroke-width="4.0" stroke-linejoin="round" stroke-linecap="butt" d="m576.85565 24.984251l321.25983 0l0 321.25983l-321.25983 0z" fill-rule="evenodd"/></g></svg>
