<?xml version="1.0" encoding="utf-8" standalone="no"?>
<!DOCTYPE svg PUBLIC "-//W3C//DTD SVG 1.1//EN"
  "http://www.w3.org/Graphics/SVG/1.1/DTD/svg11.dtd">
<svg xmlns:xlink="http://www.w3.org/1999/xlink" width="684pt" height="460.8pt" viewBox="0 0 684 460.8" xmlns="http://www.w3.org/2000/svg" version="1.1">
 <metadata>
  <rdf:RDF xmlns:dc="http://purl.org/dc/elements/1.1/" xmlns:cc="http://creativecommons.org/ns#" xmlns:rdf="http://www.w3.org/1999/02/22-rdf-syntax-ns#">
   <cc:Work>
    <dc:type rdf:resource="http://purl.org/dc/dcmitype/StillImage"/>
    <dc:date>2026-05-13T13:08:19.517788</dc:date>
    <dc:format>image/svg+xml</dc:format>
    <dc:creator>
     <cc:Agent>
      <dc:title>Matplotlib v3.10.6, https://matplotlib.org/</dc:title>
     </cc:Agent>
    </dc:creator>
   </cc:Work>
  </rdf:RDF>
 </metadata>
 <defs>
  <style type="text/css">*{stroke-linejoin: round; stroke-linecap: butt}</style>
 </defs>
 <g id="figure_1">
  <g id="patch_1">
   <path d="M 0 460.8
L 684 460.8
L 684 0
L 0 0
L 0 460.8
z
" style="fill: none; opacity: 0"/>
  </g>
  <g id="axes_1">
   <g id="patch_2">
    <path d="M 54.189474 377.242105
L 629.810526 377.242105
Q 659.178947 377.242105 659.178947 347.873684
L 659.178947 300.884211
Q 659.178947 271.515789 629.810526 271.515789
L 54.189474 271.515789
Q 24.821053 271.515789 24.821053 300.884211
L 24.821053 347.873684
Q 24.821053 377.242105 54.189474 377.242105
z
" clip-path="url(#p4466066fda)" style="fill: #8e8e93; opacity: 0.35; stroke: #aaaaaa; stroke-width: 1.5; stroke-linejoin: miter"/>
   </g>
   <g id="patch_3">
    <path d="M 54.189474 362.557895
L 629.810526 362.557895
Q 644.494737 362.557895 644.494737 347.873684
L 644.494737 300.884211
Q 644.494737 286.2 629.810526 286.2
L 54.189474 286.2
Q 39.505263 286.2 39.505263 300.884211
L 39.505263 347.873684
Q 39.505263 362.557895 54.189474 362.557895
z
" clip-path="url(#p4466066fda)" style="fill: #5b7ea8; opacity: 0.55; stroke: #aaaaaa; stroke-width: 1.5; stroke-linejoin: miter"/>
   </g>
   <g id="patch_4">
    <path d="M 54.189474 347.873684
L 629.810526 347.873684
Q 629.810526 347.873684 629.810526 347.873684
L 629.810526 300.884211
Q 629.810526 300.884211 629.810526 300.884211
L 54.189474 300.884211
Q 54.189474 300.884211 54.189474 300.884211
L 54.189474 347.873684
Q 54.189474 347.873684 54.189474 347.873684
z
" clip-path="url(#p4466066fda)" style="fill: #e69933; opacity: 0.6; stroke: #aaaaaa; stroke-width: 1.5; stroke-linejoin: miter"/>
   </g>
   <g id="patch_5">
    <path d="M 124.673684 242.147368
C 144.924035 242.147368 164.347709 234.101819 178.666869 219.782659
C 192.986029 205.463499 201.031579 186.039824 201.031579 165.789474
C 201.031579 145.539123 192.986029 126.115449 178.666869 111.796289
C 164.347709 97.477128 144.924035 89.431579 124.673684 89.431579
C 104.423334 89.431579 84.999659 97.477128 70.680499 111.796289
C 56.361339 126.115449 48.315789 145.539123 48.315789 165.789474
C 48.315789 186.039824 56.361339 205.463499 70.680499 219.782659
C 84.999659 234.101819 104.423334 242.147368 124.673684 242.147368
z
" clip-path="url(#p4466066fda)" style="fill: #8e8e93; opacity: 0.35; stroke: #aaaaaa; stroke-width: 1.5; stroke-linejoin: miter"/>
   </g>
   <g id="patch_6">
    <path d="M 124.673684 224.526316
C 140.250877 224.526316 155.192165 218.337432 166.206904 207.322693
C 177.221642 196.307955 183.410526 181.366666 183.410526 165.789474
C 183.410526 150.212281 177.221642 135.270993 166.206904 124.256254
C 155.192165 113.241516 140.250877 107.052632 124.673684 107.052632
C 109.096492 107.052632 94.155203 113.241516 83.140465 124.256254
C 72.125726 135.270993 65.936842 150.212281 65.936842 165.789474
C 65.936842 181.366666 72.125726 196.307955 83.140465 207.322693
C 94.155203 218.337432 109.096492 224.526316 124.673684 224.526316
z
" clip-path="url(#p4466066fda)" style="fill: #5b7ea8; opacity: 0.55; stroke: #aaaaaa; stroke-width: 1.5; stroke-linejoin: miter"/>
   </g>
   <g id="patch_7">
    <path d="M 124.673684 206.905263
C 135.577719 206.905263 146.036621 202.573044 153.746938 194.862727
C 161.457255 187.15241 165.789474 176.693509 165.789474 165.789474
C 165.789474 154.885439 161.457255 144.426537 153.746938 136.71622
C 146.036621 129.005903 135.577719 124.673684 124.673684 124.673684
C 113.769649 124.673684 103.310748 129.005903 95.600431 136.71622
C 87.890114 144.426537 83.557895 154.885439 83.557895 165.789474
C 83.557895 176.693509 87.890114 187.15241 95.600431 194.862727
C 103.310748 202.573044 113.769649 206.905263 124.673684 206.905263
z
" clip-path="url(#p4466066fda)" style="fill: #e69933; opacity: 0.6; stroke: #aaaaaa; stroke-width: 1.5; stroke-linejoin: miter"/>
   </g>
   <g id="patch_8">
    <path d="M 342 277.389474
C 362.25035 277.389474 381.674025 269.343924 395.993185 255.024764
C 410.312345 240.705604 418.357895 221.281929 418.357895 201.031579
C 418.357895 180.781229 410.312345 161.357554 395.993185 147.038394
C 381.674025 132.719234 362.25035 124.673684 342 124.673684
C 321.74965 124.673684 302.325975 132.719234 288.006815 147.038394
C 273.687655 161.357554 265.642105 180.781229 265.642105 201.031579
C 265.642105 221.281929 273.687655 240.705604 288.006815 255.024764
C 302.325975 269.343924 321.74965 277.389474 342 277.389474
z
" clip-path="url(#p4466066fda)" style="fill: #8e8e93; opacity: 0.35; stroke: #aaaaaa; stroke-width: 1.5; stroke-linejoin: miter"/>
   </g>
   <g id="patch_9">
    <path d="M 342 259.768421
C 357.577193 259.768421 372.518481 253.579537 383.533219 242.564798
C 394.547958 231.55006 400.736842 216.608772 400.736842 201.031579
C 400.736842 185.454386 394.547958 170.513098 383.533219 159.49836
C 372.518481 148.483621 357.577193 142.294737 342 142.294737
C 326.422807 142.294737 311.481519 148.483621 300.466781 159.49836
C 289.452042 170.513098 283.263158 185.454386 283.263158 201.031579
C 283.263158 216.608772 289.452042 231.55006 300.466781 242.564798
C 311.481519 253.579537 326.422807 259.768421 342 259.768421
z
" clip-path="url(#p4466066fda)" style="fill: #5b7ea8; opacity: 0.55; stroke: #aaaaaa; stroke-width: 1.5; stroke-linejoin: miter"/>
   </g>
   <g id="patch_10">
    <path d="M 342 242.147368
C 352.904035 242.147368 363.362937 237.815149 371.073254 230.104832
C 378.783571 222.394516 383.115789 211.935614 383.115789 201.031579
C 383.115789 190.127544 378.783571 179.668642 371.073254 171.958325
C 363.362937 164.248008 352.904035 159.915789 342 159.915789
C 331.095965 159.915789 320.637063 164.248008 312.926746 171.958325
C 305.216429 179.668642 300.884211 190.127544 300.884211 201.031579
C 300.884211 211.935614 305.216429 222.394516 312.926746 230.104832
C 320.637063 237.815149 331.095965 242.147368 342 242.147368
z
" clip-path="url(#p4466066fda)" style="fill: #e69933; opacity: 0.6; stroke: #aaaaaa; stroke-width: 1.5; stroke-linejoin: miter"/>
   </g>
   <g id="patch_11">
    <path d="M 559.326316 309.694737
C 579.576666 309.694737 599.000341 301.649187 613.319501 287.330027
C 627.638661 273.010867 635.684211 253.587192 635.684211 233.336842
C 635.684211 213.086492 627.638661 193.662817 613.319501 179.343657
C 599.000341 165.024497 579.576666 156.978947 559.326316 156.978947
C 539.075965 156.978947 519.652291 165.024497 505.333131 179.343657
C 491.013971 193.662817 482.968421 213.086492 482.968421 233.336842
C 482.968421 253.587192 491.013971 273.010867 505.333131 287.330027
C 519.652291 301.649187 539.075965 309.694737 559.326316 309.694737
z
" clip-path="url(#p4466066fda)" style="fill: #8e8e93; opacity: 0.35; stroke: #aaaaaa; stroke-width: 1.5; stroke-linejoin: miter"/>
   </g>
   <g id="patch_12">
    <path d="M 559.326316 292.073684
C 574.903508 292.073684 589.844797 285.8848 600.859535 274.870061
C 611.874274 263.855323 618.063158 248.914035 618.063158 233.336842
C 618.063158 217.759649 611.874274 202.818361 600.859535 191.803623
C 589.844797 180.788884 574.903508 174.6 559.326316 174.6
C 543.749123 174.6 528.807835 180.788884 517.793096 191.803623
C 506.778358 202.818361 500.589474 217.759649 500.589474 233.336842
C 500.589474 248.914035 506.778358 263.855323 517.793096 274.870061
C 528.807835 285.8848 543.749123 292.073684 559.326316 292.073684
z
" clip-path="url(#p4466066fda)" style="fill: #5b7ea8; opacity: 0.55; stroke: #aaaaaa; stroke-width: 1.5; stroke-linejoin: miter"/>
   </g>
   <g id="patch_13">
    <path d="M 559.326316 274.452632
C 570.230351 274.452632 580.689252 270.120413 588.399569 262.410096
C 596.109886 254.699779 600.442105 244.240877 600.442105 233.336842
C 600.442105 222.432807 596.109886 211.973906 588.399569 204.263589
C 580.689252 196.553272 570.230351 192.221053 559.326316 192.221053
C 548.422281 192.221053 537.963379 196.553272 530.253062 204.263589
C 522.542745 211.973906 518.210526 222.432807 518.210526 233.336842
C 518.210526 244.240877 522.542745 254.699779 530.253062 262.410096
C 537.963379 270.120413 548.422281 274.452632 559.326316 274.452632
z
" clip-path="url(#p4466066fda)" style="fill: #e69933; opacity: 0.6; stroke: #aaaaaa; stroke-width: 1.5; stroke-linejoin: miter"/>
   </g>
   <g id="text_1">
    <!-- No contact -->
    <g style="fill: #ffffff" transform="translate(81.313684 412.894342) scale(0.16 -0.16)">
     <defs>
      <path id="DejaVuSans-4e" d="M 628 4666
L 1478 4666
L 3547 763
L 3547 4666
L 4159 4666
L 4159 0
L 3309 0
L 1241 3903
L 1241 0
L 628 0
L 628 4666
z
" transform="scale(0.015625)"/>
      <path id="DejaVuSans-6f" d="M 1959 3097
Q 1497 3097 1228 2736
Q 959 2375 959 1747
Q 959 1119 1226 758
Q 1494 397 1959 397
Q 2419 397 2687 759
Q 2956 1122 2956 1747
Q 2956 2369 2687 2733
Q 2419 3097 1959 3097
z
M 1959 3584
Q 2709 3584 3137 3096
Q 3566 2609 3566 1747
Q 3566 888 3137 398
Q 2709 -91 1959 -91
Q 1206 -91 779 398
Q 353 888 353 1747
Q 353 2609 779 3096
Q 1206 3584 1959 3584
z
" transform="scale(0.015625)"/>
      <path id="DejaVuSans-20" transform="scale(0.015625)"/>
      <path id="DejaVuSans-63" d="M 3122 3366
L 3122 2828
Q 2878 2963 2633 3030
Q 2388 3097 2138 3097
Q 1578 3097 1268 2742
Q 959 2388 959 1747
Q 959 1106 1268 751
Q 1578 397 2138 397
Q 2388 397 2633 464
Q 2878 531 3122 666
L 3122 134
Q 2881 22 2623 -34
Q 2366 -91 2075 -91
Q 1284 -91 818 406
Q 353 903 353 1747
Q 353 2603 823 3093
Q 1294 3584 2113 3584
Q 2378 3584 2631 3529
Q 2884 3475 3122 3366
z
" transform="scale(0.015625)"/>
      <path id="DejaVuSans-6e" d="M 3513 2113
L 3513 0
L 2938 0
L 2938 2094
Q 2938 2591 2744 2837
Q 2550 3084 2163 3084
Q 1697 3084 1428 2787
Q 1159 2491 1159 1978
L 1159 0
L 581 0
L 581 3500
L 1159 3500
L 1159 2956
Q 1366 3272 1645 3428
Q 1925 3584 2291 3584
Q 2894 3584 3203 3211
Q 3513 2838 3513 2113
z
" transform="scale(0.015625)"/>
      <path id="DejaVuSans-74" d="M 1172 4494
L 1172 3500
L 2356 3500
L 2356 3053
L 1172 3053
L 1172 1153
Q 1172 725 1289 603
Q 1406 481 1766 481
L 2356 481
L 2356 0
L 1766 0
Q 1100 0 847 248
Q 594 497 594 1153
L 594 3053
L 172 3053
L 172 3500
L 594 3500
L 594 4494
L 1172 4494
z
" transform="scale(0.015625)"/>
      <path id="DejaVuSans-61" d="M 2194 1759
Q 1497 1759 1228 1600
Q 959 1441 959 1056
Q 959 750 1161 570
Q 1363 391 1709 391
Q 2188 391 2477 730
Q 2766 1069 2766 1631
L 2766 1759
L 2194 1759
z
M 3341 1997
L 3341 0
L 2766 0
L 2766 531
Q 2569 213 2275 61
Q 1981 -91 1556 -91
Q 1019 -91 701 211
Q 384 513 384 1019
Q 384 1609 779 1909
Q 1175 2209 1959 2209
L 2766 2209
L 2766 2266
Q 2766 2663 2505 2880
Q 2244 3097 1772 3097
Q 1472 3097 1187 3025
Q 903 2953 641 2809
L 641 3341
Q 956 3463 1253 3523
Q 1550 3584 1831 3584
Q 2591 3584 2966 3190
Q 3341 2797 3341 1997
z
" transform="scale(0.015625)"/>
     </defs>
     <use xlink:href="#DejaVuSans-4e"/>
     <use xlink:href="#DejaVuSans-6f" transform="translate(74.804688 0)"/>
     <use xlink:href="#DejaVuSans-20" transform="translate(135.986328 0)"/>
     <use xlink:href="#DejaVuSans-63" transform="translate(167.773438 0)"/>
     <use xlink:href="#DejaVuSans-6f" transform="translate(222.753906 0)"/>
     <use xlink:href="#DejaVuSans-6e" transform="translate(283.935547 0)"/>
     <use xlink:href="#DejaVuSans-74" transform="translate(347.314453 0)"/>
     <use xlink:href="#DejaVuSans-61" transform="translate(386.523438 0)"/>
     <use xlink:href="#DejaVuSans-63" transform="translate(447.802734 0)"/>
     <use xlink:href="#DejaVuSans-74" transform="translate(502.783203 0)"/>
    </g>
   </g>
   <g id="text_2">
    <!-- Inactive contact, -->
    <g style="fill: #ffffff" transform="translate(275.23 412.894342) scale(0.16 -0.16)">
     <defs>
      <path id="DejaVuSans-49" d="M 628 4666
L 1259 4666
L 1259 0
L 628 0
L 628 4666
z
" transform="scale(0.015625)"/>
      <path id="DejaVuSans-69" d="M 603 3500
L 1178 3500
L 1178 0
L 603 0
L 603 3500
z
M 603 4863
L 1178 4863
L 1178 4134
L 603 4134
L 603 4863
z
" transform="scale(0.015625)"/>
      <path id="DejaVuSans-76" d="M 191 3500
L 800 3500
L 1894 563
L 2988 3500
L 3597 3500
L 2284 0
L 1503 0
L 191 3500
z
" transform="scale(0.015625)"/>
      <path id="DejaVuSans-65" d="M 3597 1894
L 3597 1613
L 953 1613
Q 991 1019 1311 708
Q 1631 397 2203 397
Q 2534 397 2845 478
Q 3156 559 3463 722
L 3463 178
Q 3153 47 2828 -22
Q 2503 -91 2169 -91
Q 1331 -91 842 396
Q 353 884 353 1716
Q 353 2575 817 3079
Q 1281 3584 2069 3584
Q 2775 3584 3186 3129
Q 3597 2675 3597 1894
z
M 3022 2063
Q 3016 2534 2758 2815
Q 2500 3097 2075 3097
Q 1594 3097 1305 2825
Q 1016 2553 972 2059
L 3022 2063
z
" transform="scale(0.015625)"/>
      <path id="DejaVuSans-2c" d="M 750 794
L 1409 794
L 1409 256
L 897 -744
L 494 -744
L 750 256
L 750 794
z
" transform="scale(0.015625)"/>
     </defs>
     <use xlink:href="#DejaVuSans-49"/>
     <use xlink:href="#DejaVuSans-6e" transform="translate(29.492188 0)"/>
     <use xlink:href="#DejaVuSans-61" transform="translate(92.871094 0)"/>
     <use xlink:href="#DejaVuSans-63" transform="translate(154.150391 0)"/>
     <use xlink:href="#DejaVuSans-74" transform="translate(209.130859 0)"/>
     <use xlink:href="#DejaVuSans-69" transform="translate(248.339844 0)"/>
     <use xlink:href="#DejaVuSans-76" transform="translate(276.123047 0)"/>
     <use xlink:href="#DejaVuSans-65" transform="translate(335.302734 0)"/>
     <use xlink:href="#DejaVuSans-20" transform="translate(396.826172 0)"/>
     <use xlink:href="#DejaVuSans-63" transform="translate(428.613281 0)"/>
     <use xlink:href="#DejaVuSans-6f" transform="translate(483.59375 0)"/>
     <use xlink:href="#DejaVuSans-6e" transform="translate(544.775391 0)"/>
     <use xlink:href="#DejaVuSans-74" transform="translate(608.154297 0)"/>
     <use xlink:href="#DejaVuSans-61" transform="translate(647.363281 0)"/>
     <use xlink:href="#DejaVuSans-63" transform="translate(708.642578 0)"/>
     <use xlink:href="#DejaVuSans-74" transform="translate(763.623047 0)"/>
     <use xlink:href="#DejaVuSans-2c" transform="translate(802.832031 0)"/>
    </g>
    <!-- no force -->
    <g style="fill: #ffffff" transform="translate(309.35125 433.242342) scale(0.16 -0.16)">
     <defs>
      <path id="DejaVuSans-66" d="M 2375 4863
L 2375 4384
L 1825 4384
Q 1516 4384 1395 4259
Q 1275 4134 1275 3809
L 1275 3500
L 2222 3500
L 2222 3053
L 1275 3053
L 1275 0
L 697 0
L 697 3053
L 147 3053
L 147 3500
L 697 3500
L 697 3744
Q 697 4328 969 4595
Q 1241 4863 1831 4863
L 2375 4863
z
" transform="scale(0.015625)"/>
      <path id="DejaVuSans-72" d="M 2631 2963
Q 2534 3019 2420 3045
Q 2306 3072 2169 3072
Q 1681 3072 1420 2755
Q 1159 2438 1159 1844
L 1159 0
L 581 0
L 581 3500
L 1159 3500
L 1159 2956
Q 1341 3275 1631 3429
Q 1922 3584 2338 3584
Q 2397 3584 2469 3576
Q 2541 3569 2628 3553
L 2631 2963
z
" transform="scale(0.015625)"/>
     </defs>
     <use xlink:href="#DejaVuSans-6e"/>
     <use xlink:href="#DejaVuSans-6f" transform="translate(63.378906 0)"/>
     <use xlink:href="#DejaVuSans-20" transform="translate(124.560547 0)"/>
     <use xlink:href="#DejaVuSans-66" transform="translate(156.347656 0)"/>
     <use xlink:href="#DejaVuSans-6f" transform="translate(191.552734 0)"/>
     <use xlink:href="#DejaVuSans-72" transform="translate(252.734375 0)"/>
     <use xlink:href="#DejaVuSans-63" transform="translate(291.597656 0)"/>
     <use xlink:href="#DejaVuSans-65" transform="translate(346.578125 0)"/>
    </g>
   </g>
   <g id="text_3">
    <!-- Active contact, -->
    <g style="fill: #ffffff" transform="translate(499.556316 412.894342) scale(0.16 -0.16)">
     <defs>
      <path id="DejaVuSans-41" d="M 2188 4044
L 1331 1722
L 3047 1722
L 2188 4044
z
M 1831 4666
L 2547 4666
L 4325 0
L 3669 0
L 3244 1197
L 1141 1197
L 716 0
L 50 0
L 1831 4666
z
" transform="scale(0.015625)"/>
     </defs>
     <use xlink:href="#DejaVuSans-41"/>
     <use xlink:href="#DejaVuSans-63" transform="translate(66.658203 0)"/>
     <use xlink:href="#DejaVuSans-74" transform="translate(121.638672 0)"/>
     <use xlink:href="#DejaVuSans-69" transform="translate(160.847656 0)"/>
     <use xlink:href="#DejaVuSans-76" transform="translate(188.630859 0)"/>
     <use xlink:href="#DejaVuSans-65" transform="translate(247.810547 0)"/>
     <use xlink:href="#DejaVuSans-20" transform="translate(309.333984 0)"/>
     <use xlink:href="#DejaVuSans-63" transform="translate(341.121094 0)"/>
     <use xlink:href="#DejaVuSans-6f" transform="translate(396.101562 0)"/>
     <use xlink:href="#DejaVuSans-6e" transform="translate(457.283203 0)"/>
     <use xlink:href="#DejaVuSans-74" transform="translate(520.662109 0)"/>
     <use xlink:href="#DejaVuSans-61" transform="translate(559.871094 0)"/>
     <use xlink:href="#DejaVuSans-63" transform="translate(621.150391 0)"/>
     <use xlink:href="#DejaVuSans-74" transform="translate(676.130859 0)"/>
     <use xlink:href="#DejaVuSans-2c" transform="translate(715.339844 0)"/>
    </g>
    <!-- force generated -->
    <g style="fill: #ffffff" transform="translate(495.320066 433.242342) scale(0.16 -0.16)">
     <defs>
      <path id="DejaVuSans-67" d="M 2906 1791
Q 2906 2416 2648 2759
Q 2391 3103 1925 3103
Q 1463 3103 1205 2759
Q 947 2416 947 1791
Q 947 1169 1205 825
Q 1463 481 1925 481
Q 2391 481 2648 825
Q 2906 1169 2906 1791
z
M 3481 434
Q 3481 -459 3084 -895
Q 2688 -1331 1869 -1331
Q 1566 -1331 1297 -1286
Q 1028 -1241 775 -1147
L 775 -588
Q 1028 -725 1275 -790
Q 1522 -856 1778 -856
Q 2344 -856 2625 -561
Q 2906 -266 2906 331
L 2906 616
Q 2728 306 2450 153
Q 2172 0 1784 0
Q 1141 0 747 490
Q 353 981 353 1791
Q 353 2603 747 3093
Q 1141 3584 1784 3584
Q 2172 3584 2450 3431
Q 2728 3278 2906 2969
L 2906 3500
L 3481 3500
L 3481 434
z
" transform="scale(0.015625)"/>
      <path id="DejaVuSans-64" d="M 2906 2969
L 2906 4863
L 3481 4863
L 3481 0
L 2906 0
L 2906 525
Q 2725 213 2448 61
Q 2172 -91 1784 -91
Q 1150 -91 751 415
Q 353 922 353 1747
Q 353 2572 751 3078
Q 1150 3584 1784 3584
Q 2172 3584 2448 3432
Q 2725 3281 2906 2969
z
M 947 1747
Q 947 1113 1208 752
Q 1469 391 1925 391
Q 2381 391 2643 752
Q 2906 1113 2906 1747
Q 2906 2381 2643 2742
Q 2381 3103 1925 3103
Q 1469 3103 1208 2742
Q 947 2381 947 1747
z
" transform="scale(0.015625)"/>
     </defs>
     <use xlink:href="#DejaVuSans-66"/>
     <use xlink:href="#DejaVuSans-6f" transform="translate(35.205078 0)"/>
     <use xlink:href="#DejaVuSans-72" transform="translate(96.386719 0)"/>
     <use xlink:href="#DejaVuSans-63" transform="translate(135.25 0)"/>
     <use xlink:href="#DejaVuSans-65" transform="translate(190.230469 0)"/>
     <use xlink:href="#DejaVuSans-20" transform="translate(251.753906 0)"/>
     <use xlink:href="#DejaVuSans-67" transform="translate(283.541016 0)"/>
     <use xlink:href="#DejaVuSans-65" transform="translate(347.017578 0)"/>
     <use xlink:href="#DejaVuSans-6e" transform="translate(408.541016 0)"/>
     <use xlink:href="#DejaVuSans-65" transform="translate(471.919922 0)"/>
     <use xlink:href="#DejaVuSans-72" transform="translate(533.443359 0)"/>
     <use xlink:href="#DejaVuSans-61" transform="translate(574.556641 0)"/>
     <use xlink:href="#DejaVuSans-74" transform="translate(635.835938 0)"/>
     <use xlink:href="#DejaVuSans-65" transform="translate(675.044922 0)"/>
     <use xlink:href="#DejaVuSans-64" transform="translate(736.568359 0)"/>
    </g>
   </g>
   <g id="patch_14">
    <path d="M 538.768421 112.926316
L 626.873684 112.926316
Q 635.684211 112.926316 635.684211 104.115789
L 635.684211 27.757895
Q 635.684211 18.947368 626.873684 18.947368
L 538.768421 18.947368
Q 529.957895 18.947368 529.957895 27.757895
L 529.957895 104.115789
Q 529.957895 112.926316 538.768421 112.926316
z
" clip-path="url(#p4466066fda)" style="fill: #333333; opacity: 0.85; stroke: #aaaaaa; stroke-linejoin: miter"/>
   </g>
   <g id="patch_15">
    <path d="M 547.578947 44.791579
C 549.759754 44.791579 551.851535 43.925135 553.393598 42.383072
C 554.935661 40.841008 555.802105 38.749228 555.802105 36.568421
C 555.802105 34.387614 554.935661 32.295834 553.393598 30.75377
C 551.851535 29.211707 549.759754 28.345263 547.578947 28.345263
C 545.39814 28.345263 543.30636 29.211707 541.764297 30.75377
C 540.222233 32.295834 539.355789 34.387614 539.355789 36.568421
C 539.355789 38.749228 540.222233 40.841008 541.764297 42.383072
C 543.30636 43.925135 545.39814 44.791579 547.578947 44.791579
z
" clip-path="url(#p4466066fda)" style="fill: #e69933; stroke: #aaaaaa; stroke-width: 1.2; stroke-linejoin: miter"/>
   </g>
   <g id="patch_16">
    <path d="M 547.578947 74.16
C 549.759754 74.16 551.851535 73.293556 553.393598 71.751493
C 554.935661 70.209429 555.802105 68.117649 555.802105 65.936842
C 555.802105 63.756035 554.935661 61.664255 553.393598 60.122191
C 551.851535 58.580128 549.759754 57.713684 547.578947 57.713684
C 545.39814 57.713684 543.30636 58.580128 541.764297 60.122191
C 540.222233 61.664255 539.355789 63.756035 539.355789 65.936842
C 539.355789 68.117649 540.222233 70.209429 541.764297 71.751493
C 543.30636 73.293556 545.39814 74.16 547.578947 74.16
z
" clip-path="url(#p4466066fda)" style="fill: #5b7ea8; stroke: #aaaaaa; stroke-width: 1.2; stroke-linejoin: miter"/>
   </g>
   <g id="patch_17">
    <path d="M 547.578947 103.528421
C 549.759754 103.528421 551.851535 102.661977 553.393598 101.119914
C 554.935661 99.57785 555.802105 97.48607 555.802105 95.305263
C 555.802105 93.124456 554.935661 91.032676 553.393598 89.490612
C 551.851535 87.948549 549.759754 87.082105 547.578947 87.082105
C 545.39814 87.082105 543.30636 87.948549 541.764297 89.490612
C 540.222233 91.032676 539.355789 93.124456 539.355789 95.305263
C 539.355789 97.48607 540.222233 99.57785 541.764297 101.119914
C 543.30636 102.661977 545.39814 103.528421 547.578947 103.528421
z
" clip-path="url(#p4466066fda)" style="fill: #8e8e93; stroke: #aaaaaa; stroke-width: 1.2; stroke-linejoin: miter"/>
   </g>
   <g id="text_4">
    <!-- Geom -->
    <g style="fill: #ffffff" transform="translate(565.2 40.431546) scale(0.14 -0.14)">
     <defs>
      <path id="DejaVuSans-47" d="M 3809 666
L 3809 1919
L 2778 1919
L 2778 2438
L 4434 2438
L 4434 434
Q 4069 175 3628 42
Q 3188 -91 2688 -91
Q 1594 -91 976 548
Q 359 1188 359 2328
Q 359 3472 976 4111
Q 1594 4750 2688 4750
Q 3144 4750 3555 4637
Q 3966 4525 4313 4306
L 4313 3634
Q 3963 3931 3569 4081
Q 3175 4231 2741 4231
Q 1884 4231 1454 3753
Q 1025 3275 1025 2328
Q 1025 1384 1454 906
Q 1884 428 2741 428
Q 3075 428 3337 486
Q 3600 544 3809 666
z
" transform="scale(0.015625)"/>
      <path id="DejaVuSans-6d" d="M 3328 2828
Q 3544 3216 3844 3400
Q 4144 3584 4550 3584
Q 5097 3584 5394 3201
Q 5691 2819 5691 2113
L 5691 0
L 5113 0
L 5113 2094
Q 5113 2597 4934 2840
Q 4756 3084 4391 3084
Q 3944 3084 3684 2787
Q 3425 2491 3425 1978
L 3425 0
L 2847 0
L 2847 2094
Q 2847 2600 2669 2842
Q 2491 3084 2119 3084
Q 1678 3084 1418 2786
Q 1159 2488 1159 1978
L 1159 0
L 581 0
L 581 3500
L 1159 3500
L 1159 2956
Q 1356 3278 1631 3431
Q 1906 3584 2284 3584
Q 2666 3584 2933 3390
Q 3200 3197 3328 2828
z
" transform="scale(0.015625)"/>
     </defs>
     <use xlink:href="#DejaVuSans-47"/>
     <use xlink:href="#DejaVuSans-65" transform="translate(77.490234 0)"/>
     <use xlink:href="#DejaVuSans-6f" transform="translate(139.013672 0)"/>
     <use xlink:href="#DejaVuSans-6d" transform="translate(200.195312 0)"/>
    </g>
   </g>
   <g id="text_5">
    <!-- Margin -->
    <g style="fill: #ffffff" transform="translate(565.2 69.799967) scale(0.14 -0.14)">
     <defs>
      <path id="DejaVuSans-4d" d="M 628 4666
L 1569 4666
L 2759 1491
L 3956 4666
L 4897 4666
L 4897 0
L 4281 0
L 4281 4097
L 3078 897
L 2444 897
L 1241 4097
L 1241 0
L 628 0
L 628 4666
z
" transform="scale(0.015625)"/>
     </defs>
     <use xlink:href="#DejaVuSans-4d"/>
     <use xlink:href="#DejaVuSans-61" transform="translate(86.279297 0)"/>
     <use xlink:href="#DejaVuSans-72" transform="translate(147.558594 0)"/>
     <use xlink:href="#DejaVuSans-67" transform="translate(186.921875 0)"/>
     <use xlink:href="#DejaVuSans-69" transform="translate(250.398438 0)"/>
     <use xlink:href="#DejaVuSans-6e" transform="translate(278.181641 0)"/>
    </g>
   </g>
   <g id="text_6">
    <!-- Gap -->
    <g style="fill: #ffffff" transform="translate(565.2 99.168388) scale(0.14 -0.14)">
     <defs>
      <path id="DejaVuSans-70" d="M 1159 525
L 1159 -1331
L 581 -1331
L 581 3500
L 1159 3500
L 1159 2969
Q 1341 3281 1617 3432
Q 1894 3584 2278 3584
Q 2916 3584 3314 3078
Q 3713 2572 3713 1747
Q 3713 922 3314 415
Q 2916 -91 2278 -91
Q 1894 -91 1617 61
Q 1341 213 1159 525
z
M 3116 1747
Q 3116 2381 2855 2742
Q 2594 3103 2138 3103
Q 1681 3103 1420 2742
Q 1159 2381 1159 1747
Q 1159 1113 1420 752
Q 1681 391 2138 391
Q 2594 391 2855 752
Q 3116 1113 3116 1747
z
" transform="scale(0.015625)"/>
     </defs>
     <use xlink:href="#DejaVuSans-47"/>
     <use xlink:href="#DejaVuSans-61" transform="translate(77.490234 0)"/>
     <use xlink:href="#DejaVuSans-70" transform="translate(138.769531 0)"/>
    </g>
   </g>
  </g>
 </g>
 <defs>
  <clipPath id="p4466066fda">
   <rect x="7.2" y="7.2" width="669.6" height="446.4"/>
  </clipPath>
 </defs>
</svg>
