<svg id="Layer_1" data-name="Layer 1" xmlns="http://www.w3.org/2000/svg" viewBox="0 0 455.01 171.24">
  <defs>
    <style>
      .cls-1, .cls-10, .cls-4, .cls-5, .cls-6, .cls-7 {
        fill: none;
      }

      .cls-1, .cls-9 {
        stroke: #999;
      }

      .cls-10, .cls-2, .cls-4, .cls-5, .cls-7 {
        stroke: #231f20;
      }

      .cls-3 {
        font-size: 12px;
        font-family: ArialMT, Arial;
      }

      .cls-4 {
        stroke-dasharray: 5 5;
      }

      .cls-5 {
        stroke-dasharray: 5;
      }

      .cls-6 {
        stroke: #000;
        stroke-width: 3px;
      }

      .cls-8 {
        fill: #231f20;
      }

      .cls-9 {
        fill: #f3f3f3;
      }

      .cls-10 {
        stroke-dasharray: 4 4;
      }
    </style>
  </defs>
  <line class="cls-1" x1="68" y1="151.26" x2="133.33" y2="67.93"/>
  <line class="cls-1" x1="68" y1="151.26" x2="2.67" y2="67.93"/>
  <circle class="cls-2" cx="122.19" cy="116.89" r="2.67" transform="translate(-32.08 186.75) rotate(-67.5)"/>
  <text class="cls-3" transform="translate(0 45.93)">cone<tspan x="0" y="14.4">constraint</tspan></text>
  <text class="cls-3" transform="translate(133.33 134.6)">unconstrained<tspan x="0" y="14.4">minimum</tspan></text>
  <line class="cls-4" x1="122.67" y1="118.6" x2="122.67" y2="81.54"/>
  <line class="cls-5" x1="125.33" y1="118.6" x2="93.61" y2="118.6"/>
  <line class="cls-6" x1="93.14" y1="119.2" x2="122.67" y2="81.54"/>
  <g>
    <line class="cls-7" x1="104" y1="53.93" x2="104" y2="88.93"/>
    <path class="cls-8" d="M103.52,86.46l2.7-1.64.06.09-1.75,4.4c-.33,1.54-.67,3.07-1,4.61-.34-1.54-.67-3.07-1-4.61l-1.75-4.4,0-.09Z" transform="translate(0.48 1.71)"/>
  </g>
  <text class="cls-3" transform="translate(85.81 35.63)">continuum of<tspan x="0" y="14.4">PGS local minima</tspan></text>
  <line class="cls-1" x1="387.29" y1="170.93" x2="452.62" y2="87.6"/>
  <line class="cls-1" x1="387.29" y1="170.93" x2="321.96" y2="87.6"/>
  <path class="cls-9" d="M454,76c0,19.83-30.19,35.9-67.44,35.9S319.14,95.82,319.14,76s30.2-35.9,67.45-35.9S454,56.16,454,76Z" transform="translate(0.48 1.71)"/>
  <path class="cls-2" d="M417.37,68.73a1.86,1.86,0,1,1-1.86-1.86A1.85,1.85,0,0,1,417.37,68.73Z" transform="translate(0.48 1.71)"/>
  <text class="cls-3" transform="translate(402.51 10.3)">search<tspan x="0" y="14.4">ray</tspan></text>
  <text class="cls-3" transform="translate(297.84 33.33)">search<tspan x="0" y="14.4">ellipsoid</tspan></text>
  <g>
    <line class="cls-7" x1="416.79" y1="68.24" x2="429.11" y2="25.33"/>
    <path class="cls-8" d="M428.42,24.36l-3.05.83,0-.1,2.89-3.75,2.25-4.15-.3,4.71.47,4.71-.07.08Z" transform="translate(0.48 1.71)"/>
  </g>
  <line class="cls-10" x1="403.95" y1="112.94" x2="416.79" y2="68.24"/>
  <line class="cls-7" x1="387.29" y1="170.93" x2="403.95" y2="112.94"/>
</svg>
