<svg xmlns="http://www.w3.org/2000/svg" xmlns:xlink="http://www.w3.org/1999/xlink" version="1.1" width="771.87997pt" height="238.96292pt" viewBox="0 0 771.87997 238.96292">
<defs>
<clipPath id="clip_0">
<path transform="matrix(1,0,0,-1,-598.2481,690.6262)" d="M0 0H1920V1080H0Z"/>
</clipPath>
<clipPath id="clip_1">
<path transform="matrix(1,0,0,-1,-598.2481,690.6262)" d="M1106.002 576.4439H1122.823V591.0093H1106.002Z"/>
</clipPath>
</defs>
<g clip-path="url(#clip_0)">
<path transform="matrix(1,0,0,-1,-598.2481,690.6262)" d="M0 0H1920V1080H0Z" fill="#ffffff"/>
<path transform="matrix(.9580353,-.2866502,.2866502,.9580353,137.0238,198.89972)" stroke-width="16" stroke-linecap="butt" stroke-miterlimit="4" stroke-linejoin="miter" fill="none" stroke="#000000" d="M0 0H528.2787"/>
<path transform="matrix(.9999944,-.003351985,.003351985,.9999944,135.55829,26.180298)" stroke-width="2" stroke-linecap="butt" stroke-miterlimit="4" stroke-linejoin="miter" fill="none" stroke="#007b76" d="M501.7182 14.89341C432.7024-50.42863 108.474 117.5608 0 163.1673"/>
<path transform="matrix(1,0,0,1,-16.150513,6.1448976)" stroke-width="2" stroke-linecap="butt" stroke-miterlimit="4" stroke-linejoin="miter" fill="none" stroke="#0076ba" d="M792.5561 47.68689C753.3962 47.0543 713.0286 46.27591 678.7394 27.16879 667.3651 20.83055 657.0775 12.581 645.1292 7.376457 624.4572-1.628081 602.7061-.8732544 580.6685 1.71949 410.6574 21.72136 262.6907 139.3051 96.37235 177.6597 64.72086 184.9589 32.47417 189.2054 0 189.9195"/>
<path transform="matrix(1,0,0,1,-11.400818,73.43042)" stroke-width="2" stroke-linecap="butt" stroke-miterlimit="4" stroke-linejoin="miter" fill="none" stroke="#0076ba" d="M783.3193 .7884597C748.5002-1.851793 713.668 2.487631 679.3967 9.075733 653.5863 14.03738 628.0432 20.27122 602.6815 27.16604 448.6335 69.04565 300.6064 135.3603 141.6754 152.7233 94.62809 157.8632 47.24892 158.5936 0 161.1963"/>
<path transform="matrix(-1,-0,0,-1,766.6359,53.89514)" stroke-width="2" stroke-linecap="butt" stroke-miterlimit="4" stroke-linejoin="miter" fill="none" stroke="#0076ba" d="M0 0H6.864602-1.735398"/>
<path transform="matrix(1,0,0,-1,-598.2481,690.6262)" d="M1367.619 641.5311 1358.019 636.7311 1367.619 631.9311Z" fill="#0076ba"/>
<path transform="matrix(-1,-0,0,-1,762.2249,73.24945)" stroke-width="2" stroke-linecap="butt" stroke-miterlimit="4" stroke-linejoin="miter" fill="none" stroke="#0076ba" d="M0 0H6.864602-1.735398"/>
<path transform="matrix(1,0,0,-1,-598.2481,690.6262)" d="M1363.209 622.1768 1353.609 617.3768 1363.209 612.5768Z" fill="#0076ba"/>
<path transform="matrix(-1,-0,0,-1,12.190674,194.73282)" stroke-width="2" stroke-linecap="butt" stroke-miterlimit="4" stroke-linejoin="miter" fill="none" stroke="#0076ba" d="M0 0H8.184024-.4159761"/>
<path transform="matrix(1,0,0,-1,-598.2481,690.6262)" d="M611.8548 500.6934 602.2548 495.8934 611.8548 491.0934Z" fill="#0076ba"/>
<path transform="matrix(-1,-0,0,-1,5.006714,233.62622)" stroke-width="2" stroke-linecap="butt" stroke-miterlimit="4" stroke-linejoin="miter" fill="none" stroke="#0076ba" d="M0 0H1-7.6"/>
<path transform="matrix(1,0,0,-1,-598.2481,690.6262)" d="M611.8548 461.8 602.2548 457 611.8548 452.2Z" fill="#0076ba"/>
<path transform="matrix(-1,-0,0,-1,597.72689,6.1013185)" stroke-width="2" stroke-linecap="butt" stroke-miterlimit="4" stroke-linejoin="miter" fill="none" stroke="#0076ba" d="M0 0H8.184024-.4159761"/>
<path transform="matrix(1,0,0,-1,-598.2481,690.6262)" d="M1197.391 689.3249 1187.791 684.5249 1197.391 679.7249Z" fill="#0076ba"/>
<path transform="matrix(-.9126669,.4087042,-.4087042,-.9126669,335.68159,82.305728)" stroke-width="2" stroke-linecap="butt" stroke-miterlimit="4" stroke-linejoin="miter" fill="none" stroke="#0076ba" d="M0 0H1.684309 2.684309"/>
<path transform="matrix(1,0,0,-1,-598.2481,690.6262)" d="M930.4307 612.0129 923.6309 603.7085 934.3543 603.2513Z" fill="#0076ba"/>
<path transform="matrix(-.9448149,.3276048,-.3276048,-.9448149,461.72688,31.125794)" stroke-width="2" stroke-linecap="butt" stroke-miterlimit="4" stroke-linejoin="miter" fill="none" stroke="#0076ba" d="M0 0H1.684309 2.684309"/>
<path transform="matrix(1,0,0,-1,-598.2481,690.6262)" d="M1056.811 663.4838 1049.313 655.8036 1059.956 654.4135Z" fill="#0076ba"/>
<path transform="matrix(-.9389535,.3440442,-.3440442,-.9389535,178.89917,152.30274)" stroke-width="2" stroke-linecap="butt" stroke-miterlimit="4" stroke-linejoin="miter" fill="none" stroke="#0076ba" d="M0 0H1.684309 2.684309"/>
<path transform="matrix(1,0,0,-1,-598.2481,690.6262)" d="M773.9144 542.251 766.5518 534.4412 777.2172 533.2371Z" fill="#0076ba"/>
<path transform="matrix(-.9669135,.2551046,-.2551046,-.9669135,597.5909,99.05774)" stroke-width="2" stroke-linecap="butt" stroke-miterlimit="4" stroke-linejoin="miter" fill="none" stroke="#0076ba" d="M0 0H8.184024-.4159761"/>
<path transform="matrix(1,0,0,-1,-598.2481,690.6262)" d="M1195.984 596.5709 1187.926 589.4807 1198.433 587.2885Z" fill="#0076ba"/>
<path transform="matrix(-.9669135,.2551046,-.2551046,-.9669135,427.16389,151.98743)" stroke-width="2" stroke-linecap="butt" stroke-miterlimit="4" stroke-linejoin="miter" fill="none" stroke="#0076ba" d="M0 0H8.184024-.4159761"/>
<path transform="matrix(1,0,0,-1,-598.2481,690.6262)" d="M1025.556 543.6412 1017.498 536.551 1028.005 534.3588Z" fill="#0076ba"/>
<path transform="matrix(-.9823533,.1870347,-.1870347,-.9823533,195.22657,216.43653)" stroke-width="2" stroke-linecap="butt" stroke-miterlimit="4" stroke-linejoin="miter" fill="none" stroke="#0076ba" d="M0 0H8.184024-.4159761"/>
<path transform="matrix(1,0,0,-1,-598.2481,690.6262)" d="M793.968 479.1698 785.4351 472.659 795.7635 469.7392Z" fill="#0076ba"/>
<path transform="matrix(1,0,0,1,389.18428,39.2666)" stroke-width="2" stroke-linecap="butt" stroke-miterlimit="4" stroke-linejoin="miter" fill="none" stroke="#0076ba" d="M147.6963 21.83868C158.9935 15.38295 183.9471 9.066525 170.0279 1.104305 152.7453-8.781958-11.57757 50.70998 .6491816 60.18663 9.170442 66.79125 47.41993 54.16165 72.9151 45.28126L73.86098 44.95004"/>
<path transform="matrix(1,0,0,-1,-598.2481,690.6262)" d="M1061.936 601.5488 1069.41 609.2519 1058.763 610.6093Z" fill="#0076ba"/>
<path transform="matrix(1,0,0,1,389.7519,123.6391)" stroke-width="2" stroke-linecap="butt" stroke-miterlimit="4" stroke-linejoin="miter" fill="none" stroke="#000000" d="M0 0H218.4522 219.4522"/>
<path transform="matrix(1,0,0,-1,-598.2481,690.6262)" d="M1206.452 562.1871 1216.052 566.9871 1206.452 571.7871Z"/>
<text xml:space="preserve" transform="matrix(1 0 -0 1 620.9029 132.77613)" font-size="32" font-family="LatinModernMath"><tspan y="0" x="0">v</tspan></text>
<path transform="matrix(.9578225,-.2873605,.2873605,.9578225,125.16272,158.26215)" stroke-width="2" stroke-linecap="butt" stroke-miterlimit="4" stroke-linejoin="miter" fill="none" stroke="#000000" d="M0 0H40.47911 41.47911"/>
<path transform="matrix(1,0,0,-1,-598.2481,690.6262)" d="M763.5619 539.3986 771.3777 546.7548 760.8033 548.5937Z"/>
<path transform="matrix(-.2873605,-.9578225,.9578225,-.2873605,125.14148,159.08972)" stroke-width="2" stroke-linecap="butt" stroke-miterlimit="4" stroke-linejoin="miter" fill="none" stroke="#000000" d="M0 0H40.47911 41.47911"/>
<path transform="matrix(1,0,0,-1,-598.2481,690.6262)" d="M716.3551 571.6877 708.9989 579.5034 707.16 568.929Z"/>
<text xml:space="preserve" transform="matrix(1 0 -0 1 118.88617 108.28851)" font-size="32" font-family="LatinModernMath"><tspan y="0" x="0">y</tspan></text>
<text xml:space="preserve" transform="matrix(1 0 -0 1 165.3255 132.77613)" font-size="32" font-family="LatinModernMath"><tspan y="0" x="0">x</tspan></text>
<path transform="matrix(1,0,0,-1,-598.2481,690.6262)" d="M1254.748 634.4438C1256.779 632.4717 1256.779 629.2742 1254.748 627.3021 1252.717 625.33 1249.425 625.33 1247.394 627.3021 1245.364 629.2742 1245.364 632.4717 1247.394 634.4438 1249.425 636.416 1252.717 636.416 1254.748 634.4438ZM1254.748 634.4438" fill="#99195e"/>
<path transform="matrix(1,0,0,-1,-598.2481,690.6262)" d="M729.2592 492.4438C731.2899 490.4717 731.2899 487.2742 729.2592 485.3021 727.2285 483.33 723.936 483.33 721.9053 485.3021 719.8746 487.2742 719.8746 490.4717 721.9053 492.4438 723.936 494.416 727.2285 494.416 729.2592 492.4438ZM729.2592 492.4438" fill="#99195e"/>
<path transform="matrix(1,0,0,1,478.9959,91.54443)" stroke-width="2" stroke-linecap="butt" stroke-miterlimit="4" stroke-linejoin="miter" fill="none" stroke="#000000" d="M12.88579 31.99126C13.61055 12.25828 9.315282 1.59453 0 0"/>
</g>
<g clip-path="url(#clip_1)">
<text xml:space="preserve" transform="matrix(1 0 -0 1 506.88386 139.8006)" font-size="32.2243" font-family="STIXGeneral" font-style="italic"><tspan y="-25.97284" x="0">&#x03b1;</tspan></text>
</g>
</svg>
